<?xml version="1.0" encoding="UTF-8" standalone="no"?>
<svg
   xmlns:dc="http://purl.org/dc/elements/1.1/"
   xmlns:cc="http://creativecommons.org/ns#"
   xmlns:rdf="http://www.w3.org/1999/02/22-rdf-syntax-ns#"
   xmlns:svg="http://www.w3.org/2000/svg"
   xmlns="http://www.w3.org/2000/svg"
   xmlns:xlink="http://www.w3.org/1999/xlink"
   xmlns:sodipodi="http://sodipodi.sourceforge.net/DTD/sodipodi-0.dtd"
   xmlns:inkscape="http://www.inkscape.org/namespaces/inkscape"
   width="115.67028mm"
   height="101.8961mm"
   viewBox="0 0 115.67028 101.8961"
   version="1.1"
   id="svg8"
   inkscape:version="1.0.1 (1.0.1+r75)"
   sodipodi:docname="elephant_elmar.svg">
  <defs
     id="defs2">
    <rect
       x="723.35223"
       y="52.573097"
       width="825.46857"
       height="222.91702"
       id="rect2356" />
  </defs>
  <sodipodi:namedview
     id="base"
     pagecolor="#ffffff"
     bordercolor="#666666"
     borderopacity="1.0"
     inkscape:pageopacity="0.0"
     inkscape:pageshadow="2"
     inkscape:zoom="0.7"
     inkscape:cx="624.05263"
     inkscape:cy="487.19171"
     inkscape:document-units="mm"
     inkscape:current-layer="layer8"
     inkscape:document-rotation="0"
     showgrid="false"
     inkscape:window-width="1864"
     inkscape:window-height="1016"
     inkscape:window-x="1976"
     inkscape:window-y="27"
     inkscape:window-maximized="1"
     inkscape:snap-global="false"
     fit-margin-top="0"
     fit-margin-left="0"
     fit-margin-right="0"
     fit-margin-bottom="0" />
  <metadata
     id="metadata5">
    <rdf:RDF>
      <cc:Work
         rdf:about="">
        <dc:format>image/svg+xml</dc:format>
        <dc:type
           rdf:resource="http://purl.org/dc/dcmitype/StillImage" />
        <dc:title></dc:title>
      </cc:Work>
    </rdf:RDF>
  </metadata>
  <g
     inkscape:groupmode="layer"
     id="layer8"
     inkscape:label="License"
     transform="translate(-0.53659531,-0.70751159)"
     sodipodi:insensitive="true">
    <text
       xml:space="preserve"
       id="text2354"
       style="font-style:normal;font-variant:normal;font-weight:normal;font-stretch:normal;font-size:17.5px;line-height:125%;font-family:sans-serif;-inkscape-font-specification:sans-serif;text-align:start;writing-mode:lr-tb;white-space:pre;shape-inside:url(#rect2356);display:inline;fill:#008000;stroke:none;stroke-width:1.77165;stroke-linecap:round;stroke-linejoin:round;stroke-dashoffset:0.354331;"
       x="-15.83374"
       y="0"
       transform="matrix(0.28222223,0,0,0.28222223,-85.636609,9.2594682)"><tspan
         x="723.35156"
         y="68.055664"><tspan
           style="shape-inside:url(#rect2356);display:inline">This file is published under the
</tspan></tspan><tspan
         x="723.35156"
         y="89.930664"><tspan
           style="font-style:normal;font-variant:normal;font-weight:bold;font-stretch:normal;font-family:sans-serif;-inkscape-font-specification:'sans-serif Bold';fill:#008000;stroke:none">Attribution-NonCommercial-ShareAlike 4.0 International (CC BY-NC-SA 4.0)</tspan><tspan
           style="shape-inside:url(#rect2356);display:inline"> license.
</tspan></tspan><tspan
         x="723.35156"
         y="111.80566"><tspan
           style="shape-inside:url(#rect2356);display:inline">https://creativecommons.org/licenses/by-nc-sa/4.0/
</tspan></tspan><tspan
         x="723.35156"
         y="133.68066"><tspan
           style="font-style:normal;font-variant:normal;font-weight:normal;font-stretch:normal;font-family:sans-serif;-inkscape-font-specification:'sans-serif Bold Italic'">
</tspan></tspan><tspan
         x="723.35156"
         y="155.55566"><tspan
           style="font-style:normal;font-variant:normal;font-weight:normal;font-stretch:normal;font-family:sans-serif;-inkscape-font-specification:'sans-serif Bold Italic'">This design is based on an image of Elmar the Elephant that is available at:
</tspan></tspan><tspan
         x="723.35156"
         y="177.43066"><tspan
           style="font-style:normal;font-variant:normal;font-weight:normal;font-stretch:normal;font-family:sans-serif;-inkscape-font-specification:'sans-serif Bold Italic'">https://www.wort.lu/de/panorama/bunter-elefant-mit-botschaft-kinderbuchfigur-elmar-</tspan></tspan><tspan
         x="723.35156"
         y="199.30566"><tspan
           style="font-style:normal;font-variant:normal;font-weight:normal;font-stretch:normal;font-family:sans-serif;-inkscape-font-specification:'sans-serif Bold Italic'">wird-30-5ceea05bda2cc1784e3451cd</tspan><tspan
           style="font-style:normal;font-variant:normal;font-weight:normal;font-stretch:normal;font-family:sans-serif;-inkscape-font-specification:'sans-serif Bold Italic'">
</tspan></tspan><tspan
         x="723.35156"
         y="221.18066"><tspan
           style="font-style:normal;font-variant:normal;font-weight:normal;font-stretch:normal;font-family:sans-serif;-inkscape-font-specification:'sans-serif Bold Italic'">The image was traced by hand into this SVG.
</tspan></tspan><tspan
         x="723.35156"
         y="243.05566"><tspan
           style="font-style:normal;font-variant:normal;font-weight:normal;font-stretch:normal;font-family:sans-serif;-inkscape-font-specification:'sans-serif Bold Italic'">Elmar the Elefant is probably protected as a trade mark!</tspan></tspan></text>
    <g
       id="g2531"
       transform="matrix(0.28222223,0,0,0.28222223,-161.97583,27.831834)"
       style="fill:#008000">
      <g
         id="g2462"
         transform="matrix(1.1196698,0,0,1.1196698,992.51148,-97.603024)"
         style="fill:#008000;stroke-width:0.8373">
        <path
           d="M 31.957,0.311 C 23.275,0.311 15.635,3.524 9.731,9.514 3.653,15.678 0.354,23.666 0.354,32 c 0,8.422 3.212,16.236 9.29,22.313 6.078,6.078 13.978,9.377 22.313,9.377 8.334,0 16.409,-3.299 22.66,-9.463 C 60.521,48.41 63.646,40.683 63.646,32 63.646,23.405 60.521,15.592 54.53,9.601 48.453,3.523 40.639,0.311 31.957,0.311 Z m 0.086,5.73 c 7.12,0 13.458,2.691 18.406,7.641 4.862,4.861 7.466,11.286 7.466,18.318 0,7.119 -2.518,13.371 -7.379,18.146 -5.123,5.035 -11.721,7.727 -18.493,7.727 -6.858,0 -13.283,-2.691 -18.232,-7.641 C 8.862,45.283 6.084,38.772 6.084,32 6.084,25.142 8.862,18.631 13.811,13.594 18.673,8.646 24.924,6.041 32.043,6.041 Z"
           id="path2446"
           style="fill:#008000;stroke-width:0.8373" />
        <path
           id="c"
           d="m 31.635,26.734 c -1.79,-3.264 -4.844,-4.563 -8.389,-4.563 -5.16,0 -9.267,3.65 -9.267,9.828 0,6.283 3.861,9.829 9.442,9.829 3.581,0 6.635,-1.966 8.319,-4.949 l -3.931,-2.001 c -0.878,2.105 -2.212,2.738 -3.896,2.738 -2.914,0 -4.248,-2.422 -4.248,-5.617 0,-3.193 1.124,-5.616 4.248,-5.616 0.842,0 2.527,0.456 3.51,2.563 z"
           style="fill:#008000;stroke-width:0.8373" />
        <use
           xlink:href="#c"
           transform="translate(18.281)"
           id="use2449"
           x="0"
           y="0"
           width="100%"
           height="100%"
           style="fill:#008000;stroke-width:0.8373" />
      </g>
      <g
         id="surface1"
         transform="matrix(1.1072835,0,0,1.1072835,1077.4845,-97.20418)"
         style="fill:#008000;stroke-width:1.12889">
        <path
           d="M 31.1875,0 C 13.90625,0.4375 0,14.613281 0,32 0,49.664063 14.335938,64 32,64 49.664063,64 64,49.664063 64,32 64,14.335938 49.664063,0 32,0 31.722656,0 31.460938,-0.0078125 31.1875,0 Z M 31.15625,5.5 C 31.441406,5.492188 31.714844,5.5 32,5.5 46.628906,5.5 58.5,17.371094 58.5,32 58.5,46.628906 46.628906,58.5 32,58.5 17.371094,58.5 5.5,46.628906 5.5,32 5.5,17.65625 16.921875,5.953125 31.15625,5.5 Z"
           id="path2464"
           style="fill:#008000;stroke-width:1.12889" />
        <path
           d="m 36.625,15.9375 c 0,2.550781 -2.070312,4.625 -4.625,4.625 -2.554687,0 -4.625,-2.074219 -4.625,-4.625 0,-2.554687 2.070313,-4.625 4.625,-4.625 2.554688,0 4.625,2.070313 4.625,4.625 z"
           id="path2466"
           style="fill:#008000;stroke-width:1.12889" />
        <path
           d="m 27.214844,52.6875 h 9.570312 v -15.375 h 2.894532 c 0,0 -0.0039,-10.992187 0,-12.722656 -0.0039,-0.457031 0.03906,-1.363281 -0.621094,-2.027344 C 38.394531,21.902344 37.5,21.941406 37.03125,21.941406 c -0.472656,0.0039 -9.589844,0.0039 -10.0625,0 -0.46875,0 -1.363281,-0.03906 -2.027344,0.621094 -0.660156,0.664063 -0.617187,1.570313 -0.621093,2.027344 0.0039,1.730469 0,12.722656 0,12.722656 h 2.894531 z"
           id="path2468"
           style="fill:#008000;stroke-width:1.12889" />
      </g>
      <g
         id="surface1-4"
         transform="matrix(1.1072835,0,0,1.1072835,1162.0611,-97.20418)"
         style="fill:#008000;stroke-width:0.846667">
        <path
           d="M 31.1875,0 C 13.90625,0.4375 0,14.613281 0,32 0,49.664063 14.335938,64 32,64 49.664063,64 64,49.664063 64,32 64,14.335938 49.664063,0 32,0 31.722656,0 31.460938,-0.0078125 31.1875,0 Z M 31.15625,5.5 C 31.441406,5.492188 31.714844,5.5 32,5.5 46.628906,5.5 58.5,17.371094 58.5,32 58.5,46.628906 46.628906,58.5 32,58.5 17.371094,58.5 5.5,46.628906 5.5,32 5.5,17.65625 16.921875,5.953125 31.15625,5.5 Z"
           id="path2483"
           style="fill:#008000;stroke-width:0.846667" />
        <path
           d="m 25.644531,38.742188 c 2.0625,2.882812 8.351563,3.089843 10.511719,1.871093 0.792969,-0.449218 0.988281,-1.75 0.988281,-2.628906 0,-0.605469 -0.15625,-1.078125 -0.476562,-1.425781 -0.335938,-0.34375 -1.1875,-1.21875 -2.175781,-1.476563 C 29.472656,33.785156 26,32.167969 24.636719,30.996094 c -1.695313,-1.46875 -1.96875,-2.425781 -1.96875,-4.980469 0,-2.554687 0.734375,-4.695312 2.394531,-6.230469 1.660156,-1.535156 4.074219,-2.304687 7.234375,-2.304687 3.019531,0 7.269531,0.796875 9.339844,3.257812 l -3.453125,3.753907 c -1.949219,-1.632813 -3.394531,-1.78125 -5.78125,-1.78125 -1.5,0 -2.28125,0.214843 -2.917969,0.648437 -0.636719,0.414063 -0.953125,0.957031 -0.953125,1.628906 0,0.605469 0.289063,1.105469 0.875,1.5 0.582031,0.417969 2.105469,1.039063 5.144531,1.867188 3.40625,0.929687 5.722657,2.0625 6.941407,3.390625 1.199218,1.328125 1.800781,3.097656 1.800781,5.304687 0,2.660157 -0.9375,4.851563 -2.808594,6.578125 -1.855469,1.726563 -4.136719,3.066407 -7.421875,3.066407 -4.230469,0 -9.875,-1.496094 -11.433594,-4.253907"
           id="path2485"
           style="fill:#008000;stroke-width:0.846667" />
        <path
           d="M 59.34375,40.105469 56.9375,45.386719 5.816406,22.351563 8.222656,17.070313 Z"
           id="path2487"
           style="fill:#008000;stroke-width:0.846667" />
        <path
           d="m 30.375,12.875 v 6.84375 h 3.25 V 12.875 Z m 0,32.09375 V 51.125 h 3.25 v -6.15625 z"
           id="path2489"
           style="fill:#008000;stroke-width:0.846667" />
      </g>
      <g
         id="g2513"
         transform="matrix(1.1072835,0,0,1.1072835,1246.6378,-97.20439)"
         style="fill:#008000;stroke-width:0.846667">
        <path
           style="opacity:1;fill:#008000;fill-opacity:1;fill-rule:nonzero;stroke:none;stroke-width:219.716;stroke-linecap:butt;stroke-linejoin:round;stroke-miterlimit:4;stroke-dasharray:none;stroke-dashoffset:0;stroke-opacity:1"
           d="M 31.1875,0 C 13.904525,0.43835438 0,14.612004 0,32 0,49.663996 14.336004,64 32,64 49.663996,64 64,49.663996 64,32 64,14.336004 49.663996,0 32,0 31.724,0 31.461833,-0.00695801 31.1875,0 Z M 31.15625,5.5 C 31.439783,5.49101 31.714297,5.5 32,5.5 46.628003,5.4999998 58.5,17.371998 58.5,32 58.499998,46.628001 46.628002,58.5 32,58.5 17.371999,58.499999 5.5,46.628002 5.5,32 5.4999999,17.657701 16.922915,5.9512829 31.15625,5.5 Z"
           id="path1334" />
        <path
           style="opacity:1;fill:#008000;fill-opacity:1;fill-rule:nonzero;stroke:none;stroke-width:219.716;stroke-linecap:butt;stroke-linejoin:round;stroke-miterlimit:4;stroke-dasharray:none;stroke-dashoffset:0;stroke-opacity:1"
           d="m 18.115779,26.784547 h -2.740778 l 6.21875,6.96875 6.21875,-6.96875 h -2.243852 c 0.486099,-3.3998 3.476871,-5.586425 6.931352,-5.3125 0.136556,0.01083 0.267854,0 0.40625,0 5.62743,0 7.84682,4.255865 8.03125,10.53125 0.19247,6.549199 -3.60349,10.620376 -8.03125,10.53125 -4.673386,-0.09221 -6.444049,-2.32751 -7.125,-5.71875 h -8.34375 c 1.373177,7.811231 7.123855,12.392036 15.28125,12.40625 9.23458,0.01625 15.906248,-7.709347 15.906248,-17.21875 0,-10.154893 -6.669368,-17.21875 -15.906248,-17.21875 -0.274244,0 -0.541652,-0.01489 -0.8125,0 -0.0656,0.0036 -0.12197,-0.0011 -0.1875,0 -5.772209,0.09597 -13.602929,4.139742 -13.602972,12 z"
           id="path2371"
           sodipodi:nodetypes="cccccssssccsssssc" />
      </g>
    </g>
  </g>
  <g
     inkscape:groupmode="layer"
     id="layer2"
     inkscape:label="Cut"
     transform="translate(-0.53659531,-0.70751159)"
     style="display:inline">
    <path
       style="display:inline;fill:none;stroke:#ff0000;stroke-width:0.499999;stroke-linecap:round;stroke-linejoin:round;stroke-dashoffset:0.377953"
       d="m 97.290211,92.22718 c 0.545546,1.82173 1.26492,3.359713 1.142983,6.270988 -0.01869,0.445998 0.80092,-0.395679 1.191071,-0.612768 0.817985,-0.455142 1.646695,-0.894614 2.432415,-1.403398 1.90247,-1.231922 3.93685,-2.306767 5.62776,-3.815878 0.70597,-0.630063 1.12834,-1.560593 1.40884,-2.464178 0,0 1.16851,-3.647816 1.70322,-5.48661 0.67072,-2.306552 1.28247,-2.054457 1.88722,-6.954748 0.60475,-4.900292 1.33469,-9.786755 1.81426,-14.70087 0.51147,-5.241035 0.92046,-10.494713 1.15796,-15.755279 0.19001,-4.208896 0.49863,-8.442438 0.12391,-12.638928 -0.25592,-2.865969 -0.50496,-5.939469 -2.00229,-8.396792 -1.30466,-2.141118 -3.66968,-3.544771 -5.93258,-4.625365 l -2.85652,-1.364069 c -1.03064,-0.492161 -1.67526,-1.552591 -2.51288,-2.328886 -0.83763,-0.776296 -1.61975,-1.558693 -2.48454,-2.275035 -1.479014,-1.225136 -3.034005,-2.358883 -4.613945,-3.45085 -0.622273,-0.430081 -1.91379,-1.219532 -1.91379,-1.219532 C 92.860725,10.620998 92.222321,10.296166 91.595578,9.9530105 90.553326,9.3823552 89.528553,8.776275 88.456548,8.2636678 86.77544,7.4598028 85.046993,6.7588598 83.342218,6.0064558 81.637444,5.2540513 81.87194,5.8109131 81.164136,5.6000354 80.232252,5.3223971 78.471327,4.478485 78.471327,4.478485 76.860643,3.8076382 75.119765,3.4728009 73.398201,3.1886212 c 0,0 -1.053088,-0.1695313 -1.578566,-0.2605753 C 70.347499,2.6729857 68.887675,2.3448523 67.409463,2.1277343 64.909327,1.7605166 62.369527,1.6901381 59.876199,1.2792672 59.42442,1.2048195 58.990819,1.0189337 58.534068,0.98690445 56.692326,0.85775352 54.844572,1.1861001 53.010623,1.3989594 c -0.702382,0.081523 -1.397728,0.2153487 -2.095316,0.3309113 -1.557719,0.2580525 -3.120648,0.491105 -4.667187,0.8093445 -2.054698,0.422806 -4.120196,0.8314934 -6.121447,1.4603218 -1.639546,0.5151746 -3.251823,1.1367606 -4.797931,1.8870317 -1.059383,0.514081 -2.002596,1.2441191 -3.049913,1.7823446 -0.693718,0.3565074 -1.452151,0.5802691 -2.136012,0.9553264 -1.267697,0.6952572 -2.449374,1.5406053 -3.621585,2.3869113 -1.851862,1.336996 -3.769202,2.624353 -5.379705,4.243854 -1.605148,1.614117 -2.926386,3.49805 -4.199493,5.384994 -0.768117,1.13847 -2.064079,3.56568 -2.064079,3.56568 -1.283771,2.217705 -2.114466,4.668292 -3.171698,7.00244 -1.057233,2.334149 -0.811157,3.816799 -1.039141,5.751661 -0.210591,1.787252 -0.101851,3.601896 -0.301299,5.390423 -0.165112,1.48062 -0.4422214,2.947967 -0.7397305,4.407764 -0.324358,1.59154 -0.9210677,3.128295 -1.1384846,4.737922 -0.042195,0.312382 0.2323084,0.595004 -0.030915,0.945154 -0.263223,0.350151 -0.5885707,0.661311 -0.7896689,1.050458 l -1.5600781,3.018926 c -0.4053028,0.784309 -0.8689977,1.554703 -1.4631944,2.207727 -0.5985627,0.657822 -1.3786479,1.124153 -2.0736094,1.679224 -0.578746,0.462249 -2.06700223,0.704545 -1.7474087,1.37264 0.3148997,0.658285 1.403838,-0.405683 2.0866938,-0.663378 0.66428,-0.250685 1.3330364,-0.506237 1.9488674,-0.859549 1.4524702,-0.833304 2.9006478,-1.688814 4.2414186,-2.691924 L 9.520617,57.240259 c 0.1151001,-0.08611 0.4000524,-0.0027 0.4076765,0.140632 0,0 -0.013441,1.563404 0.1236985,2.328462 0.411775,2.297178 1.195157,4.525781 2.080182,6.685325 0.850561,2.075452 1.954467,4.042891 3.084768,5.980328 0.406644,0.697022 1.209127,1.226699 1.326784,2.024996 0.02202,0.149394 -0.10954,-0.8952 -0.128408,0.434443 -0.01887,1.329644 -0.07405,2.659261 -0.0566,3.988926 0.01544,1.176455 0.391337,2.373603 0.155273,3.526246 0,0 -0.136959,0.731824 -0.223975,1.093611 -0.07534,0.313244 -0.188255,0.616941 -0.257859,0.93151 -0.168186,0.760104 -0.205603,1.545941 -0.384664,2.303563 -0.04813,0.203644 0.559916,-1.266363 -0.184746,0.599963 -0.744663,1.866326 -1.500775,3.728124 -2.233989,5.598973 l -1.169313,2.983591 c -0.08355,0.213186 0.0391,0.4829 -0.07203,0.683103 l -1.160031,2.089807 c -0.247078,0.445116 -0.573416,0.84374 -0.813054,1.292899 -0.124709,0.233743 -0.1830972,0.497203 -0.274646,0.745813 -0.091548,0.24861 0.043739,0.15434 0.1040906,0.19829 0.8691084,0.63294 2.1093494,0.43519 3.1783704,0.55078 2.122043,0.22943 5.629629,0.32742 6.3971,0.28046 0.767472,-0.047 1.535138,-0.0908 2.302417,-0.14082 0.06227,-0.004 0.13119,-0.0512 0.186002,-0.0214 l 0.604699,0.32907 c 0.326391,0.17762 0.734601,0.12563 1.105904,0.14086 1.854228,0.076 3.710761,0.0793 5.56578,0.13274 1.768086,0.0509 3.534859,0.14861 5.303397,0.18014 1.358179,0.0242 2.718745,0.061 4.075162,-0.0122 0.734494,-0.0396 1.447499,-0.29769 2.182535,-0.32552 0.511366,-0.0194 1.01254,0.1679 1.523981,0.1852 1.136993,0.0384 2.277766,0.0575 3.412881,-0.0183 0.486813,-0.0325 0.957157,-0.4193 1.431509,-0.30516 l 0.910224,0.21902 c 0.604841,0.14553 1.235319,-0.18327 1.830288,-0.36498 0.08826,-0.027 0.09481,-0.15831 0.142213,-0.23746 0.0474,-0.0792 -0.06597,-4.489604 -0.225466,-6.727781 -0.138899,-1.949111 -0.334775,-3.896886 -0.636459,-5.827521 -0.229335,-1.467632 -0.613175,-2.907129 -0.890715,-4.366415 -0.234015,-1.23043 -0.553984,-2.451729 -0.652936,-3.700295 -0.04229,-0.533564 0.02647,-1.605496 0.02647,-1.605496 0.0066,-0.402254 -0.270282,-0.757881 -0.406545,-1.13642 -0.187196,-0.520027 -0.370044,-1.04167 -0.563833,-1.559279 -0.08264,-0.22073 -0.410008,-0.46932 -0.265326,-0.655399 l 0.239792,-0.308398 c 0.824188,-1.059994 2.676882,0.225678 4.018116,0.293251 1.279383,0.06445 2.56127,0.142904 3.841645,0.102702 l 4.008,-0.12584 c 0.58794,-0.01847 1.173107,-0.177964 1.759647,-0.133347 0.18175,0.01384 0.420831,0.123057 0.4559,0.301883 0.09767,0.497998 -0.03183,1.016184 -0.09872,1.519239 0,0 -0.164568,1.209048 -0.241294,1.814293 -0.07073,0.557984 -0.06722,1.129134 -0.201932,1.675218 -0.09469,0.383853 -0.421977,1.108494 -0.421977,1.108494 -0.275707,0.724258 -0.216906,1.534774 -0.343459,2.299309 -0.172475,1.041945 -0.331022,2.087223 -0.553545,3.119642 -0.05663,0.262763 -0.194187,0.501445 -0.281701,0.755603 l -0.962264,2.794626 c -0.511347,1.485068 -0.803706,3.036674 -1.205559,4.555014 -0.401852,1.51834 -0.673288,2.235646 -1.059904,3.336774 -0.217835,0.62042 -0.645576,1.712933 -0.709225,1.840763 -0.06365,0.12782 -0.30249,0.29429 -0.190946,0.38347 0.304401,0.24338 0.726487,0.31471 1.114205,0.3547 0.812208,0.0838 1.634004,-0.0274 2.449525,0.013 0.58316,0.0289 1.165935,0.29673 1.740788,0.19451 l 2.322819,-0.41306 c 1.059951,-0.18849 2.181793,-0.22584 3.2297,0.0209 0,0 1.154952,0.39007 1.755771,0.41348 0.481834,0.0188 0.951915,-0.15522 1.429607,-0.22098 0.764989,-0.10533 1.528298,-0.24692 2.299885,-0.27797 0.78885,-0.0317 1.480619,-0.0188 2.366592,0.0943 0.885973,0.11321 1.769812,0.24466 2.657923,0.33963 0.623582,0.0667 1.267517,-0.007 1.875801,0.14521 0,0 0.72992,0.3379 1.10464,0.27708 0.130835,-0.0212 0.02246,0.37757 0.335255,-0.21377 0.312785,-0.59134 0.583934,-1.20666 0.938359,-1.77403 0.04982,-0.0797 0.156828,-0.12317 0.25066,-0.12945 0.907975,-0.06075 1.819543,-0.0421 2.729123,-0.06998 0.932622,-0.02859 1.865039,-0.06338 2.797408,-0.09931 0.775094,-0.02989 1.567789,0.07034 2.324941,-0.0981 l 1.603198,-0.35665 c 0.08769,-0.01949 0.08112,-0.168185 0.07782,-0.257932 L 89.70633,95.572434 c -0.02418,-0.658204 0.203628,-1.305972 0.211713,-1.964575 0.01363,-1.111122 -0.08847,-2.220709 -0.146665,-3.330393 -0.05311,-1.013131 -0.16955,-2.02343 -0.187314,-3.037794 -0.0119,-0.680088 0.137018,-1.359093 0.09847,-2.03819 0,0 -0.238402,-3.283385 -0.279719,-4.928265 -0.04099,-1.630804 0.03167,-4.893851 0.03167,-4.893851 0.0038,-0.595489 -0.182704,-1.184074 -0.161482,-1.779196 0.0076,-0.213767 0.09916,-0.437173 0.246066,-0.592689 l 3.616264,-3.828074 c 1.261199,-1.335071 2.395634,-2.784487 3.60951,-4.162701 0.171,-0.19415 0.384496,-0.349887 0.544233,-0.553396 0.100144,-0.127591 0.264659,-0.272121 0.227667,-0.430028 -0.07308,-0.311924 -0.405006,-0.509834 -0.518094,-0.809589 -0.229116,-0.607303 -0.33637,-1.253843 -0.497577,-1.882582 -0.106458,-0.415215 -0.223159,-0.828463 -0.305373,-1.249148 -0.05332,-0.272773 -0.03506,-0.557597 -0.1005,-0.82772 -0.07536,-0.311133 -0.27924,-0.588144 -0.319394,-0.905744 -0.1058,-0.836869 -0.170703,-1.686305 -0.114751,-2.527971 0.0572,-0.860432 0.266905,-1.704979 0.45215,-2.547189 0.046,-0.209163 0.239269,-0.38213 0.239269,-0.596291 0,0 -0.08963,-0.290569 0,-0.380176 0.0638,-0.06378 0.180781,0.0077 0.270681,0 0.40143,-0.03441 0.791941,-0.260452 1.191087,-0.205577 0.103414,0.01422 0.323691,-0.50719 0.282757,0.134564 -0.04094,0.641759 -0.114811,1.282258 -0.122751,1.925272 0,0 -0.116039,1.210981 -0.0223,1.805533 0.103112,0.653977 0.634412,1.882162 0.634412,1.882162 0.208724,0.619241 0.542649,1.189195 0.796525,1.791344 0.357759,0.848548 0.740756,1.688626 1.038136,2.560161 0.1906,0.558609 0.18969,1.177084 0.42217,1.719609 0.32018,0.747148 0.87911,1.373653 1.21968,2.111734 0.30084,0.652006 0.39445,1.386877 0.69547,2.038808 l 1.05498,2.284868 c 0.23527,0.509543 0.10038,1.126339 0.26641,1.66244 0.1293,0.417497 0.46476,0.74878 0.60822,1.161625 0.0914,0.263128 0.0782,0.552922 0.0844,0.831408 0.0277,1.245809 10e-4,2.492303 0.0174,3.738317 0.0109,0.839151 0.0321,1.678238 0.0639,2.516856 0.0344,0.906671 0.23084,1.816405 0.13481,2.718638 -0.0381,0.358136 -0.45128,0.591994 -0.52473,0.944584 l -0.21047,1.010218 c -0.1761,0.845312 -0.57589,1.629798 -0.92352,2.420218 -0.15963,0.362971 -0.34251,0.724118 -0.59416,1.030593 -0.49574,0.603754 -1.08291,1.126377 -1.63268,1.68141 -0.50106,0.505844 -0.98996,1.025231 -1.519615,1.501044 -0.26502,0.238074 -0.50996,0.56471 -0.859079,0.635804 l -0.869497,0.177065 c -0.191504,0.03899 -0.620538,-0.345627 -0.564484,-0.158455 z"
       id="path917"
       sodipodi:nodetypes="ssssssssssssssssssssssssssssssssssssssssssssssssssssssssssssssssssssssssssssssssssssssssssssssssssssssssssssssssssssssssssssssssssssssssssssssssssssssssssssssssssssssssssssssssssssssss" />
  </g>
  <g
     inkscape:groupmode="layer"
     id="layer3"
     inkscape:label="Engrave"
     transform="translate(-0.53659531,-0.70751159)"
     style="display:inline">
    <g
       id="g1127"
       style="stroke-width:1.85686"
       transform="matrix(0.53861467,0,0,0.53846991,4.64085,-30.119344)">
      <path
         style="fill:none;stroke:#0000ff;stroke-width:0.92843;stroke-linecap:round;stroke-linejoin:round;stroke-dashoffset:0.377953"
         d="m 31.963992,83.665855 c 0,0 -0.591642,1.929292 -0.747911,2.922702 -0.284131,1.806236 -0.24993,3.648602 -0.337315,5.474959 -0.128179,2.678958 -0.105513,5.364683 -0.274219,8.041394 -0.178461,2.83149 -0.474791,5.65486 -0.780243,8.47548 -0.140643,1.29873 -0.371733,2.58745 -0.484492,3.8889 -0.316312,3.65081 0.07698,7.3677 -0.537443,10.98031 -0.30532,1.79519 -1.262126,3.44009 -1.551776,5.23787 -0.312073,1.93695 0.09302,3.94077 -0.18515,5.88288 -0.23599,1.64759 -1.24638,3.16978 -1.250182,4.83418 -0.0024,1.04931 0.692808,2.0051 0.774239,3.05125 0.3559,4.57228 -1.027681,9.1195 -1.279546,13.69869 -0.19137,3.47933 0.03883,6.97429 -0.175167,10.4523 -0.142154,2.31039 -0.529135,4.59967 -0.735709,6.90519 -0.338721,3.78038 -0.409893,7.58392 -0.825691,11.3566 -0.319736,2.90107 -1.206047,5.74389 -1.282156,8.66154 -0.0091,0.34719 0.01707,0.69966 0.09863,1.03726 0.53772,2.22568 1.732155,4.23973 2.543497,6.38088 1.022797,2.69918 2.124731,5.37681 2.929492,8.14882 0.772173,2.65976 1.258429,5.39504 1.813107,8.10851 0.231539,1.13268 0.443893,2.26955 0.632155,3.41022 0.324344,1.96519 0.504599,3.95319 0.856587,5.91362 0.247655,1.37933 0.698658,2.72124 0.882394,4.11053 0.279512,2.11349 0.331224,4.25529 0.329356,6.38718 -0.002,2.27302 -0.363091,6.80938 -0.363091,6.80938"
         id="path919"
         sodipodi:nodetypes="csssssssssssssssssssssssc" />
      <path
         style="fill:none;stroke:#0000ff;stroke-width:0.92843;stroke-linecap:round;stroke-linejoin:round;stroke-dashoffset:0.377953"
         d="m 58.646345,66.520374 c 0,0 -0.691788,3.636092 -0.922131,5.47112 -0.368788,2.937948 -0.430714,5.907212 -0.734404,8.852601 -0.109599,1.06296 -0.387116,2.113096 -0.392422,3.181678 -0.0084,1.686324 0.541802,3.340771 0.569383,5.02689 0.04828,2.951268 -0.500435,5.88228 -0.708303,8.826614 -0.261508,3.704113 -0.17563,7.440153 -0.677896,11.119363 -0.202941,1.48659 -0.726383,2.91677 -0.940338,4.40181 -0.324277,2.25079 -0.344189,4.53501 -0.51604,6.80253 -0.174298,2.29981 -0.260917,4.60794 -0.522402,6.89948 -0.323333,2.83355 -0.908417,5.63167 -1.292629,8.45761 -0.236815,1.74181 -0.536893,3.48079 -0.623965,5.23647 -0.03457,0.69712 0.04858,1.3956 0.04081,2.09353 -0.03452,3.09849 -0.31983,6.19001 -0.388181,9.28794 -0.05738,2.60081 0.09309,5.20525 -0.01834,7.80431 -0.07594,1.77122 -0.05011,3.57127 -0.442765,5.30009 -0.205879,0.90647 -0.842417,1.68902 -0.991036,2.60662 -0.298455,1.84271 0.320447,3.73037 0.236143,5.59519 -0.0996,2.20315 -0.645536,4.36468 -0.874302,6.55819 -0.298033,2.85768 -0.403582,5.73238 -0.648436,8.5951 -0.174166,2.03627 0.415258,4.32034 -0.583705,6.10326 -0.102583,0.18309 -0.406543,0.1921 -0.503219,0.37837 -0.08713,0.16788 -0.0525,0.38121 -0.01781,0.56715 0.491233,2.63325 2.19204,4.89226 3.131248,7.40088 1.063101,2.83954 2.006436,5.72666 2.828679,8.64506 0.719534,2.55386 1.202496,5.16869 1.838129,7.74471 0.215398,0.87294 0.472608,1.73566 0.669446,2.61297 0.566363,2.52429 1.100782,5.06006 1.470441,7.62056 0.484251,3.35424 0.751678,6.7385 0.975997,10.12008 0.11993,1.80794 0.197451,5.43214 0.197451,5.43214"
         id="path921"
         sodipodi:nodetypes="cssssssssssssssssssssssssssssc" />
      <path
         style="fill:none;stroke:#0000ff;stroke-width:0.92843;stroke-linecap:round;stroke-linejoin:round;stroke-dashoffset:0.377953"
         d="m 86.364825,59.699416 c 0,0 -0.815644,2.778616 -1.003173,4.208512 -0.244272,1.862554 0.03204,3.763927 -0.151059,5.633485 -0.241026,2.460965 -0.922481,4.861433 -1.243689,7.313221 -0.238656,1.821669 -0.384085,3.655224 -0.506839,5.488355 -0.06254,0.933924 -0.206159,1.941842 0.154433,2.805612 0.597125,1.430362 0.309357,2.996752 0.396842,4.515935 0.162411,2.820273 -0.07074,5.65262 -0.269848,8.47054 -0.211902,2.998994 -0.374276,5.281874 -0.604976,8.279484 -0.0842,1.09407 -0.187434,2.6918 -0.05339,3.78088 0.10419,0.84655 0.358013,1.79925 0.259031,2.64642 -0.07392,0.63269 -0.806271,1.03663 -0.952733,1.65656 -0.237762,1.00638 0.20783,2.06334 0.179604,3.09704 -0.0812,2.97377 -0.748036,5.90418 -1.00213,8.86818 -0.197434,2.30306 -0.180619,4.62211 -0.405506,6.92265 -0.195188,1.99672 -0.809058,3.95662 -0.818285,5.96284 -0.0044,0.9578 0.435552,1.89506 0.364461,2.85023 -0.0377,0.50653 -0.301791,0.97104 -0.414898,1.46622 -0.297752,1.30354 -0.55293,2.62134 -0.69196,3.95121 -0.292914,2.80183 -0.103422,5.63558 -0.295426,8.44612 -0.173833,2.54456 -0.601736,5.06753 -0.774956,7.61213 -0.101019,1.48396 0.04932,2.98608 -0.153832,4.45954 -0.189139,1.37185 -0.713093,2.67812 -0.985652,4.03585 -0.266458,1.32734 -0.492505,2.66528 -0.633788,4.01171 -0.305931,2.91552 -0.341687,5.85339 -0.460706,8.7825 -0.113538,2.7942 -0.404588,5.59428 -0.241692,8.38604 0.05905,1.01196 -0.12114,2.16512 0.440545,3.00895 0.193224,0.29029 0.896424,0.53929 0.896424,0.53929"
         id="path923"
         sodipodi:nodetypes="cssssssssssssssssssssssssssc" />
      <path
         style="fill:none;stroke:#0000ff;stroke-width:0.92843;stroke-linecap:round;stroke-linejoin:round;stroke-dashoffset:0.377953"
         d="m 113.47562,59.628973 c 0,0 -0.2454,1.258995 -0.11983,1.871295 0.11752,0.573072 0.15757,0.951211 0.25258,1.528443 0.30791,1.870781 0.002,3.790949 -0.26642,5.667871 -0.36472,2.554839 -0.75444,5.106269 -1.09081,7.664995 -0.35367,2.690273 -0.55368,5.401148 -0.97498,8.081661 -0.1578,1.00402 -0.44829,1.985523 -0.58103,2.993163 -0.37592,2.853651 -0.28316,5.753476 -0.60586,8.613634 -0.13399,1.187578 -0.41552,2.355309 -0.55167,3.542641 -0.15365,1.339974 -0.21072,2.689354 -0.29855,4.035244 -0.11138,1.70683 -0.2785,3.41278 -0.28966,5.1232 -0.006,0.9131 0.1038,1.82379 0.11893,2.73679 0.0148,0.89347 0.0765,1.79312 -0.0276,2.68063 -0.0681,0.58089 -0.44458,1.12891 -0.38844,1.71108 0.0382,0.39586 0.3918,0.70414 0.48159,1.09157 0.23097,0.99661 0.15713,2.04419 0.12261,3.06663 -0.0809,2.39514 -0.55093,4.76167 -0.77114,7.14803 -0.20958,2.27109 -0.41047,4.54423 -0.52342,6.82217 -0.11405,2.30025 0.11234,4.62004 -0.15552,6.90749 -0.0295,0.25161 -0.13751,0.49077 -0.15889,0.74319 -0.10254,1.21081 0.16425,2.4272 0.15181,3.64228 -0.0312,3.04788 -0.35181,6.0861 -0.56776,9.12648 -0.20526,2.88989 -0.54609,5.77042 -0.69185,8.66392 -0.0712,1.41416 -0.34518,2.85431 -0.0891,4.24691 0.0967,0.52595 0.44862,0.69836 0.27534,1.20427 -0.0757,0.2209 -0.4191,0.45185 -0.64457,0.51257 -0.25941,0.0699 -0.36009,0.39282 -0.39093,0.6597 -0.25098,2.17183 -0.51731,5.36193 -0.64248,8.31768 -0.0946,2.23371 0.002,4.47364 -0.11928,6.70609 -0.15117,2.7914 -0.56919,5.56305 -0.75727,8.35221 -0.0793,1.17556 -0.15632,3.53124 -0.15632,3.53124"
         id="path925"
         sodipodi:nodetypes="csssssssssssssssssssssssssssssc" />
      <path
         style="fill:none;stroke:#0000ff;stroke-width:0.92843;stroke-linecap:round;stroke-linejoin:round;stroke-dashoffset:0.377953"
         d="m 140.2732,65.669284 c 0,0 -0.34693,1.758434 -0.60288,2.615858 -0.32688,1.095057 -0.99504,2.08973 -1.18738,3.216233 -0.24742,1.449111 0.13145,2.941004 0.0681,4.40972 -0.0815,1.889738 -0.63043,3.754485 -0.57584,5.645192 0.0296,1.02459 0.52825,2.011848 0.48804,3.036076 -0.0275,0.700174 -0.40105,1.348608 -0.49532,2.042951 -0.14244,1.049143 -0.10029,2.11591 -0.10169,3.174677 -0.001,1.035085 -0.10663,2.087913 0.0912,3.103917 0.13611,0.699002 0.55268,1.316791 0.74308,2.002996 0.0871,0.313761 0.43828,0.76078 0.18071,0.959985 -0.37415,0.289371 -0.87675,-0.363615 -1.28369,-0.604715 -0.93401,-0.553378 -1.69388,-1.37216 -2.63263,-1.91746 -1.4054,-0.816372 -2.82902,-1.839086 -4.44619,-2.001504 -0.3134,-0.03148 -0.66568,0.02513 -0.92158,0.208788 -0.90399,0.64879 -1.16801,1.894336 -1.74077,2.848311 -0.67269,1.120401 -1.26021,2.293954 -1.99154,3.376986 -1.0503,1.555391 -2.45858,2.859195 -3.42991,4.465095 -0.46869,0.77489 -0.70341,1.67263 -1.1398,2.46616 -0.47084,0.85616 -1.20455,1.56507 -1.58835,2.46363 -0.83528,1.95559 -0.8865,4.16364 -1.48349,6.20463 -0.58079,1.9856 -1.53997,3.85438 -2.03718,5.86254 -0.49773,2.01026 -0.7446,4.07997 -0.93453,6.14221 -0.17891,1.94264 -0.3161,3.90259 -0.19126,5.84945 0.15553,2.42537 0.76672,4.79989 1.16706,7.19704 0.40975,2.4535 0.43995,5.0076 1.26398,7.35463 0.70822,2.01718 1.99881,3.78245 3.10355,5.61279 0.78743,1.30463 1.5831,2.61121 2.50905,3.82147 0.62162,0.81248 1.22807,1.66873 2.03561,2.29675 1.0497,0.81634 2.3444,1.25792 3.54514,1.82933 1.28887,0.61335 2.56506,1.27749 3.92386,1.71457 0.5173,0.1664 1.18423,-0.016 1.59425,0.34059 0.13533,0.11771 0.1847,0.32617 0.18427,0.50553 -0.002,0.74001 -0.61747,1.35808 -0.77019,2.08216 -0.2159,1.02364 -0.17591,2.08653 -0.19269,3.13256 -0.0105,0.65632 0.30147,1.35885 0.0578,1.96835 -0.1297,0.32444 -0.79865,0.39258 -0.74459,0.73778 0.33343,2.12927 0.46396,4.25478 0.47664,6.39099 0.0119,2.00811 -0.20453,4.0119 -0.37673,6.01265 -0.0804,0.93419 -0.19056,1.86572 -0.30639,2.79618 -0.22025,1.76922 -0.56075,3.52341 -0.73874,5.29738 -0.13374,1.33292 0.0167,2.6978 -0.24675,4.01125 -0.1416,0.70598 -0.82219,1.32932 -0.70909,2.04042 0.053,0.33324 0.70694,0.48196 0.61255,0.80592 -0.51669,1.77339 -1.09117,4.08859 -1.61233,6.13919 -0.6574,2.58664 -1.15815,5.2147 -1.91046,7.77535 -0.56175,1.91205 -1.34703,3.75246 -1.94058,5.65488 -0.37431,1.19971 -0.63524,2.43329 -1.02118,3.62931 -0.39206,1.21498 -0.82382,2.41869 -1.31328,3.59781 -0.71895,1.73198 -1.54504,3.41847 -2.3806,5.09731 -0.89924,1.80681 -1.88765,3.56785 -2.83174,5.35163 -0.81133,1.53294 -1.64025,3.05669 -2.43444,4.59858 -0.51592,1.00163 -1.09484,1.97623 -1.51386,3.0221 -0.30528,0.76196 -0.72239,2.35418 -0.72239,2.35418"
         id="path927"
         sodipodi:nodetypes="cssssssssssssssssssssssssssssssssssssssssssssssssssssc" />
      <path
         style="fill:none;stroke:#0000ff;stroke-width:0.92843;stroke-linecap:round;stroke-linejoin:round;stroke-dashoffset:0.377953"
         d="m 164.75196,76.439651 c 0,0 -0.23621,4.517432 -0.45477,6.767898 -0.1651,1.700075 -0.5192,3.263565 -0.2696,4.953303 0.0684,0.462794 0.12295,0.949287 0.19502,1.411517 0.25523,1.636875 -0.45927,3.285384 -0.54795,4.939662 -0.14913,2.781854 0.18124,5.575859 0.0281,8.357499 -0.15612,2.83591 -0.85129,5.62796 -0.9638,8.46594 -0.0494,1.2473 0.27795,2.50346 0.1277,3.74267 -0.0677,0.5582 -0.31579,1.07948 -0.45875,1.62329 -0.53785,2.04593 -1.19967,4.07245 -1.50065,6.16638 -0.42149,2.93235 -0.27365,5.91866 -0.41578,8.87774 -0.0869,1.80969 -0.16012,3.62016 -0.26727,5.42876 -0.12831,2.1658 -0.36187,4.23579 -0.60824,6.50121 -0.0278,0.25526 0.18804,0.50575 0.39004,0.66426 0.16961,0.13309 0.69391,-0.017 0.61962,0.18546 -0.89451,2.43833 -0.76392,6.5425 -1.01828,9.82531 -0.15836,2.04382 -0.2586,4.09257 -0.31588,6.14172 -0.0298,1.06546 -0.0258,2.13179 -0.0144,3.19761 0.0116,1.0869 0.1208,2.17346 0.0842,3.25981 -0.0344,1.01992 -0.19453,2.03172 -0.28488,3.04821 -0.15994,1.79942 -0.3536,3.59673 -0.4553,5.40038 -0.0919,1.63075 -0.038,3.26788 -0.13986,4.89804 -0.13622,2.17935 -0.39421,4.3496 -0.62987,6.52045 -0.0874,0.80537 -0.32215,1.60335 -0.29086,2.41285 0.0186,0.4822 0.28368,1.41961 0.28368,1.41961"
         id="path929"
         sodipodi:nodetypes="csssssssssssssssssssssssc" />
      <path
         style="fill:none;stroke:#0000ff;stroke-width:0.92843;stroke-linecap:round;stroke-linejoin:round;stroke-dashoffset:0.377953"
         d="m 188.34048,94.846599 c 0,0 -0.0893,3.414806 -0.11632,5.122548 -0.0294,1.860773 -0.19542,3.727483 -0.0499,5.582793 0.11894,1.51642 0.33137,2.97995 0.35202,4.50089 0.0263,1.93603 -0.0344,3.85202 -0.4013,5.75314 -0.18786,0.9733 -0.58065,1.90438 -0.71554,2.88642 -0.2857,2.07999 -0.0307,4.20217 -0.18898,6.29572 -0.17897,2.36752 -0.86721,4.69658 -0.85903,7.07084 0.004,1.29123 0.34563,2.55941 0.49365,3.84214 0.198,1.71588 0.45824,3.42899 0.52756,5.15486 0.0509,1.26658 -0.1032,2.53448 -0.0825,3.80191 0.0309,1.89158 0.35811,3.77593 0.3084,5.66711 -0.049,1.86313 -0.65433,3.69652 -0.59668,5.5594 0.0745,2.40881 0.74544,4.76328 1.21458,7.12714 0.46961,2.3662 1.09562,4.69892 1.60082,7.05778 0.45903,2.14326 0.97668,4.27796 1.29947,6.44593 0.50894,3.4182 0.86609,6.86598 1.00077,10.31924 0.0674,1.72808 -0.10967,3.45793 -0.0971,5.18728 0.0217,2.99069 0.3352,5.9768 0.29829,8.96734 -0.0279,2.26365 -0.19263,4.52516 -0.39325,6.78007 -0.1571,1.76577 -0.72378,3.30979 -1.11185,5.2628 -0.11312,0.56933 -0.39762,0.56262 -0.67373,1.0732 -0.22196,0.41045 -0.19892,0.93511 -0.33062,1.38275 -0.44524,1.51299 -1.51521,2.76704 -2.31298,4.12754 -1.09596,1.86903 -2.05382,3.84157 -3.39699,5.54166 -1.19819,1.51658 -2.6148,2.86495 -4.10818,4.09193 -1.41282,1.1608 -2.97028,2.1437 -4.55163,3.06177 -0.54068,0.3139 -1.68074,0.83242 -1.68074,0.83242"
         id="path931"
         sodipodi:nodetypes="cssssssssssssssssssssssssssc" />
      <path
         style="fill:none;stroke:#0000ff;stroke-width:0.92843;stroke-linecap:round;stroke-linejoin:round;stroke-dashoffset:0.377953"
         d="m 150.99925,104.92328 c 0,0 -1.67254,3.33437 -2.53742,4.98679 -0.87854,1.67851 -1.70035,3.39146 -2.69338,5.00488 -0.86861,1.41127 -1.88278,2.72779 -2.84699,4.07555 -0.19137,0.26749 -0.40853,0.51721 -0.58308,0.79596 -1.33938,2.13899 -2.40475,4.43863 -3.5408,6.6922 -1.0653,2.11321 -2.01845,4.28146 -3.07027,6.40142 -0.87918,1.772 -1.70584,3.57501 -2.70826,5.28032 -0.73052,1.24276 -1.69306,2.34109 -2.40223,3.59616 -0.54548,0.96537 -0.8885,2.03473 -1.41602,3.01003 -0.64653,1.19534 -1.51836,2.26192 -2.13757,3.47163 -0.46818,0.91466 -0.68558,1.94759 -1.18418,2.84603 -0.69145,1.24593 -2.48036,3.48164 -2.48036,3.48164"
         id="path1054"
         sodipodi:nodetypes="csssssssssssc" />
      <path
         style="fill:none;stroke:#0000ff;stroke-width:0.92843;stroke-linecap:round;stroke-linejoin:round;stroke-dashoffset:0.377953"
         d="m 195.81573,127.00806 c -1.23002,0.16631 -1.65767,0.33238 -2.54747,1.19775 -0.82842,0.80567 -1.38665,1.99364 -1.4536,3.14728 -0.0681,1.17403 0.42058,2.39183 1.09886,3.35252 0.58536,0.82908 1.00383,1.35678 2.43967,1.52055 1.01771,0.11607 1.90932,-0.43981 2.74875,-1.10125 0.9372,-0.73848 1.56318,-1.59141 1.84954,-2.74973 0.31416,-1.27073 0.13791,-2.41052 -0.47611,-3.56656 -0.4074,-0.76703 -0.85477,-1.2387 -1.6491,-1.58991 -0.37708,-0.16672 -1.60196,-0.26589 -2.01054,-0.21065 z"
         id="path1056"
         sodipodi:nodetypes="ssssssssss" />
      <path
         style="fill:none;stroke:#0000ff;stroke-width:0.92843;stroke-linecap:round;stroke-linejoin:round;stroke-dashoffset:0.377953"
         d="m 198.37108,130.18855 c -0.36229,0.0837 -0.75689,0.40787 -1.00766,0.68241 -0.2741,0.30007 -0.39695,0.66024 -0.5473,1.03781 -0.11877,0.29826 -0.16224,0.63508 -0.12911,0.9544 0.0338,0.32596 0.10488,0.68733 0.32897,0.92644 0.17053,0.18197 0.43822,0.30762 0.68732,0.29552 0.2499,-0.0121 0.47788,-0.18779 0.65758,-0.36188 0.16269,-0.15761 0.39429,-0.30944 0.49461,-0.51252 0.17209,-0.34837 0.34235,-0.69601 0.38779,-1.08189 0.0448,-0.38015 0.0348,-0.82906 -0.08,-1.19422 -0.0737,-0.23438 -0.19344,-0.4204 -0.38372,-0.57584 -0.0732,-0.0598 -0.31636,-0.1915 -0.40845,-0.17023 z"
         id="path1058"
         sodipodi:nodetypes="ssssssssssss" />
      <path
         style="fill:none;stroke:#0000ff;stroke-width:0.92843;stroke-linecap:round;stroke-linejoin:round;stroke-dashoffset:0.377953"
         d="m 134.58988,161.43748 c 0,0 1.77069,0.21532 2.65268,0.13754 1.13598,-0.10017 2.2695,-0.36029 3.33284,-0.77233 1.34466,-0.52106 2.56957,-1.32246 3.77223,-2.11822 1.36953,-0.90617 2.67097,-1.92103 3.89973,-3.01048 0.53913,-0.47801 1.00287,-1.03502 1.51628,-1.54056 0.77437,-0.76249 1.54107,-1.53484 2.35866,-2.25079 0.8784,-0.76919 1.75657,-1.55025 2.73148,-2.19274 0.46099,-0.3038 1.02473,-0.44118 1.4622,-0.77797 0.67786,-0.52185 1.20816,-1.21582 1.74481,-1.88203 0.63956,-0.79396 1.7487,-2.50934 1.7487,-2.50934"
         id="path1060"
         sodipodi:nodetypes="csssssssssc" />
      <path
         style="fill:none;stroke:#0000ff;stroke-width:0.92843;stroke-linecap:round;stroke-linejoin:round;stroke-dashoffset:0.377953"
         d="m 139.4429,96.146336 c 0,0 2.06039,1.101043 3.04753,1.723615 1.40766,0.887791 2.80142,1.810094 4.09046,2.862739 1.57223,1.2839 2.83207,2.33958 4.41836,3.60608 0.39246,0.31334 0.86846,1.09805 1.25308,1.42096 1.4542,1.22088 2.62445,2.74468 3.93495,4.11868 1.04151,1.09197 2.11533,2.15417 3.12177,3.27855 0.49489,0.55288 0.8975,1.18983 1.4329,1.70358 0.53897,0.51717 1.77298,1.37046 1.77298,1.37046"
         id="path1062"
         sodipodi:nodetypes="csssssssc" />
      <path
         style="fill:none;stroke:#0000ff;stroke-width:0.92843;stroke-linecap:round;stroke-linejoin:round;stroke-dashoffset:0.377953"
         d="m 121.97308,104.35664 c 0,0 1.72435,1.29825 2.62032,1.89892 1.00726,0.67528 2.02059,1.34941 3.09373,1.91418 0.79525,0.41852 1.6973,0.62324 2.46732,1.08653 1.26611,0.76177 2.34974,1.79417 3.47877,2.74739 0.86872,0.73345 1.64983,1.56817 2.53282,2.28437 1.04665,0.84894 2.25916,1.4865 3.26902,2.37888 0.81161,0.71719 1.48419,1.57783 2.22061,2.37204 0.26409,0.28481 0.5216,0.57572 0.78818,0.85821 0.88739,0.94035 1.82608,1.83198 2.70011,2.78476 0.80855,0.88141 1.78339,1.69442 2.655,2.51353 1.03158,0.96944 1.935,1.93069 3.07084,2.77557 0.84129,0.62577 1.6605,1.28615 2.54811,1.84427 1.37357,0.86368 2.82928,1.59192 4.28075,2.31708 0.86989,0.4346 2.651,1.21753 2.651,1.21753"
         id="path1064"
         sodipodi:nodetypes="csssssssssssssc" />
      <path
         style="fill:none;stroke:#0000ff;stroke-width:0.92843;stroke-linecap:round;stroke-linejoin:round;stroke-dashoffset:0.377953"
         d="m 115.5237,130.90129 c 0,0 1.97594,1.34309 3.0151,1.92953 0.92844,0.52396 1.9949,0.80355 2.86823,1.41497 0.76332,0.5344 1.28846,1.35513 2.01986,1.93245 0.80322,0.63402 1.75794,1.05444 2.57935,1.6647 0.8315,0.61775 1.57184,1.34968 2.36716,2.01336 0.72001,0.60084 1.43905,1.20332 2.17688,1.78214 0.82458,0.64687 1.6007,1.37391 2.51358,1.88872 0.68081,0.38393 1.49922,0.48311 2.1753,0.87531 0.92661,0.53753 1.67307,1.33847 2.52143,1.99255 0.88548,0.68269 1.75048,1.39587 2.68074,2.01615 1.46538,0.9771 3.02207,1.81054 4.55534,2.67722 0.74949,0.42365 1.52281,0.80442 2.26957,1.23286 0.81104,0.46532 2.39998,1.45219 2.39998,1.45219"
         id="path1066"
         sodipodi:nodetypes="cssssssssssssc" />
      <path
         style="fill:none;stroke:#0000ff;stroke-width:0.92843;stroke-linecap:round;stroke-linejoin:round;stroke-dashoffset:0.377953"
         d="m 33.617595,82.469748 c 0,0 5.233326,0.12624 7.848405,0.233979 2.352624,0.09693 4.699762,0.335181 7.054109,0.371023 1.784835,0.02717 3.60682,-0.484928 5.353817,-0.118356 0.924695,0.194028 1.628881,1.108473 2.569609,1.196443 0.726791,0.06796 1.397491,-0.452816 2.122197,-0.540256 0.93248,-0.112509 1.882774,-0.06515 2.817611,0.02572 1.835425,0.178413 3.600181,0.866021 5.438159,1.015857 2.431727,0.19824 4.963945,-0.245067 7.390678,-0.497187 1.814102,-0.188469 3.376788,-0.315511 5.198152,-0.220024 1.413242,0.07409 2.805448,0.408096 4.175466,0.762767 1.346821,0.348665 2.725246,0.564523 4.075932,0.897901 1.40534,0.346867 2.873194,0.607945 4.306977,0.80685 2.189602,0.303757 4.303692,0.321712 6.513008,0.396202 2.679075,0.09032 5.242765,0.05059 7.923305,0.03309 1.32807,-0.0087 2.75094,0.188346 4.07859,0.153652 2.07029,-0.0541 4.1433,0.0202 6.21179,0.122055 1.59957,0.07876 3.191,0.281875 4.78962,0.377978 3.22355,0.193787 6.45159,0.486062 9.67982,0.400341 2.09306,-0.05558 4.16194,-0.493446 6.2534,-0.592267 0.33191,-0.01568 0.66457,-1.5e-4 0.99685,0 0.95731,4.33e-4 1.91464,0.0092 2.87192,0.0026 2.03561,-0.01394 4.07175,-0.15596 6.10631,-0.08917 2.26889,0.07448 4.52466,0.376327 6.78844,0.545833 2.74198,0.205312 5.53086,0.04192 8.22919,0.57072 0.78783,0.154392 1.50129,0.591793 2.28784,0.752573 2.04982,0.41901 4.1692,0.356621 6.25372,0.535836 2.1818,0.187579 4.36175,0.397823 6.54524,0.564629 1.64832,0.125922 4.94843,0.329258 4.94843,0.329258"
         id="path1068"
         sodipodi:nodetypes="csssssssssssssssssssssssssssc" />
      <path
         style="fill:none;stroke:#0000ff;stroke-width:0.92843;stroke-linecap:round;stroke-linejoin:round;stroke-dashoffset:0.377953"
         d="m 13.848776,112.2718 c 0,0 3.727812,0.81777 5.603479,0.67297 2.046676,-0.15801 4.122111,-0.16287 6.253817,0.18899 1.121843,0.18517 2.247765,-0.34632 3.375533,-0.49111 1.706252,-0.21905 3.414664,-0.42936 5.12907,-0.57111 1.823784,-0.15079 3.655939,-0.4171 5.481992,-0.29685 2.4567,0.16178 4.807775,0.68617 7.259201,0.91433 1.979557,0.18424 4.201751,0.0276 6.18939,-0.0158 1.50392,-0.0328 2.783463,0.1546 4.283485,0.26767 1.435593,0.10821 2.805071,0.69279 4.237881,0.83313 2.300896,0.22536 4.62386,-0.007 6.935716,0.008 3.364555,0.0223 6.739687,-0.15154 10.093145,0.12241 1.003842,0.082 1.989795,0.59407 2.987223,0.45421 0.883782,-0.12392 1.552277,-0.97772 2.434097,-1.11491 1.494943,-0.23257 2.995995,0.44814 4.505677,0.54715 2.496274,0.16372 5.038684,0.14225 7.533611,0.32535 2.367722,0.17376 4.669517,0.43921 7.027057,0.71903 1.09242,0.12966 2.23657,-0.008 3.2838,0.32915 0.6256,0.20126 1.11153,0.70899 1.70837,0.98407 0.79141,0.36475 1.25782,0.32946 2.11809,0.46847 1.3315,0.21515 3.04881,0.18892 4.39097,0.32226 0.68992,0.0685 2.03038,0.45144 2.03038,0.45144"
         id="path1070"
         sodipodi:nodetypes="cssssssssssssssssssssc" />
      <path
         style="fill:none;stroke:#0000ff;stroke-width:0.92843;stroke-linecap:round;stroke-linejoin:round;stroke-dashoffset:0.377953"
         d="m 162.94326,116.49484 c 0,0 2.36895,0.73177 3.61495,0.79842 1.70321,0.0911 3.41254,-0.0652 5.11694,0 2.57216,0.0984 4.9394,0.0579 7.51206,0.14223 1.7601,0.0577 3.71167,0.29766 5.47031,0.38969 1.03457,0.0541 2.06987,0.16273 3.08725,0.35819 0.68211,0.13104 1.32981,0.41073 2.0115,0.54395 1.8684,0.36512 3.76865,0.57839 5.66886,0.69433 1.50486,0.0918 3.01532,0 4.52298,0 1.28347,0 2.57502,-0.14382 3.8504,0 0.53064,0.0598 1.07526,0.13664 1.56178,0.35678 0.33395,0.15111 0.89161,0.64361 0.89161,0.64361"
         id="path1072"
         sodipodi:nodetypes="cssssssssssc" />
      <path
         style="fill:none;stroke:#0000ff;stroke-width:0.92843;stroke-linecap:round;stroke-linejoin:round;stroke-dashoffset:0.377953"
         d="m 10.522567,138.58719 c 0,0 5.681275,0.20748 8.505803,0.50625 2.463055,0.26053 4.897125,0.74581 7.345481,1.12007 2.23204,0.3412 4.425315,0.42799 6.668924,0.68223 3.572664,0.40484 7.194794,0.53182 10.784192,0.7417 2.54113,0.14858 5.586937,-0.006 7.629286,0.72521 0.797089,0.2855 1.634225,0.4755 2.475947,0.56697 3.236832,0.35176 6.512575,-0.17088 9.767308,-0.0841 2.631025,0.0702 5.251361,0.37225 7.880747,0.48861 2.365468,0.10468 4.733109,0.20255 7.10085,0.18844 0.668508,-0.004 1.480737,0.33887 2.004076,-0.0771 0.293147,-0.23301 -0.04147,-0.92026 0.295386,-1.08388 1.698546,-0.825 4.468009,-0.24397 6.70451,-0.27435 2.573738,-0.035 5.147235,0.0979 7.721198,0.10606 1.758515,0.006 3.543626,0.26621 5.275425,-0.0392 1.07185,-0.18903 1.99476,-0.97318 3.07641,-1.0941 1.12219,-0.12545 2.29,0.0523 3.36358,0.4023 0.61983,0.20206 1.07134,0.80667 1.70574,0.95686 1.46567,0.34698 3.00849,-0.26327 4.5137,-0.20916 1.06798,0.0384 3.18364,0.37798 3.18364,0.37798"
         id="path1074"
         sodipodi:nodetypes="cssssssssssssssssssc" />
      <path
         style="fill:none;stroke:#0000ff;stroke-width:0.92843;stroke-linecap:round;stroke-linejoin:round;stroke-dashoffset:0.377953"
         d="m 160.72478,144.27711 c 0,0 3.83797,-0.14126 5.7388,0.075 1.44552,0.16446 2.39928,-0.0423 4.54503,0.35266 2.10907,0.3882 3.87143,-0.10557 6.00719,-0.29892 2.13225,-0.19303 4.37611,-0.23272 6.51637,-0.28792 1.24698,-0.0322 2.49028,0.16334 3.73741,0.18898 1.35599,0.0279 2.7125,-0.0192 4.06864,-0.0383 2.3878,-0.0337 4.77493,-0.15786 7.16286,-0.13473 1.6502,0.016 3.29723,0.21932 4.94723,0.18898 0.92474,-0.017 2.76691,-0.20779 2.76691,-0.20779"
         id="path1076"
         sodipodi:nodetypes="cssssssssc" />
      <path
         style="fill:none;stroke:#0000ff;stroke-width:0.92843;stroke-linecap:round;stroke-linejoin:round;stroke-dashoffset:0.377953"
         d="m 167.41565,152.50435 c 1.76635,0.52253 3.50069,1.08671 6.98783,-0.62921"
         id="path1078"
         sodipodi:nodetypes="cc" />
      <path
         style="fill:none;stroke:#0000ff;stroke-width:0.92843;stroke-linecap:round;stroke-linejoin:round;stroke-dashoffset:0.377953"
         d="m 10.174997,165.69066 c 0,0 5.049679,0.15604 7.573966,0.2498 2.461568,0.0914 4.976433,-0.21816 7.3835,0.30501 0.44277,0.0962 0.810649,0.44669 1.258921,0.51271 1.652152,0.24331 3.319444,-0.5485 4.987654,-0.47179 1.770651,0.0814 3.467545,0.75878 5.22564,0.98447 2.429961,0.31194 4.893086,0.2775 7.332146,0.50773 2.054559,0.19393 4.068603,-0.23824 6.047666,-0.75671 1.02977,-0.26978 2.095722,0.0845 3.154476,0.19514 3.639442,0.38041 7.184631,0.45607 10.843469,0.51219 2.864153,0.0439 5.847645,0.24805 8.711263,0.17736 1.847629,-0.0456 3.696881,-0.25765 5.542344,-0.15726 1.671874,0.0909 3.305515,0.57166 4.975931,0.68631 1.869472,0.12832 3.756235,-0.17821 5.621613,0 2.041474,0.19503 4.069779,0.45151 6.120544,0.447 2.025295,-0.004 3.858141,-0.36674 5.88135,-0.45876 2.04344,-0.0929 3.36573,0.48335 5.39864,0.25627 0.68528,-0.0765 1.98137,-0.18686 2.66422,-0.28267 2.61775,-0.36729 5.27946,0.28365 7.92117,0.37797 2.09529,0.0748 4.19686,-0.001 6.2881,0.14906 1.75088,0.12573 3.48014,0.47184 5.2285,0.62874 1.45825,0.13086 2.94411,0.52231 4.38461,0.26042 0.33752,-0.0614 0.60331,-0.35367 0.94014,-0.41872 2.18339,-0.42164 4.44336,0.1986 6.66649,0.24997 3.14547,0.0727 6.29281,0.0234 9.43856,0.0824 3.09359,0.058 6.1871,0.1382 9.27855,0.26704 1.39519,0.0582 2.78762,0.17439 4.18298,0.22834 2.33476,0.0903 7.00769,0.1595 7.00769,0.1595"
         id="path1080"
         sodipodi:nodetypes="cssssssssssssssssssssssssssc" />
      <path
         style="fill:none;stroke:#0000ff;stroke-width:0.92843;stroke-linecap:round;stroke-linejoin:round;stroke-dashoffset:0.377953"
         d="m 21.557654,193.27554 c 0,0 5.763196,0.54694 8.649944,0.75595 3.805485,0.27553 7.617774,0.44761 11.427502,0.65643 2.021634,0.11081 4.048293,0.14582 6.065753,0.31651 1.005175,0.085 1.998053,0.39934 3.005722,0.35231 1.963392,-0.0916 3.486196,-0.67954 5.448762,-0.78744 1.83757,-0.10103 3.977338,-0.0378 5.811717,0.11028 1.311822,0.10589 2.627398,0.15856 3.940929,0.24056 1.281225,0.08 2.571166,0.0735 3.843342,0.24524 2.189015,0.29555 6.488298,1.34693 6.488298,1.34693"
         id="path1082"
         sodipodi:nodetypes="cssssssssc" />
      <path
         style="fill:none;stroke:#0000ff;stroke-width:0.92843;stroke-linecap:round;stroke-linejoin:round;stroke-dashoffset:0.377953"
         d="m 177.95831,170.48254 c 0,0 4.01612,0.3001 6.02635,0.25923 1.91496,-0.0389 3.82188,-0.27267 5.72598,-0.48005 1.34805,-0.14682 2.67699,-0.48739 4.03196,-0.54077 1.85202,-0.073 3.70529,0.14628 5.55208,0.30327 1.53954,0.13087 4.60465,0.53207 4.60465,0.53207"
         id="path1084"
         sodipodi:nodetypes="cssssc" />
      <path
         style="fill:none;stroke:#0000ff;stroke-width:0.92843;stroke-linecap:round;stroke-linejoin:round;stroke-dashoffset:0.377953"
         d="m 20.574187,217.54988 c 0,0 3.210894,1.00023 4.82561,1.46918 1.276365,0.37068 2.529967,0.85726 3.843112,1.0626 0.484228,0.0757 0.979319,0.0766 1.469133,0.0595 1.194182,-0.0417 2.368791,-0.35221 3.56295,-0.39454 2.435955,-0.0863 4.872892,0.1557 7.306771,0.28822 1.972855,0.10742 3.938723,0.4858 5.913077,0.41082 1.695972,-0.0644 3.159337,-0.52687 4.855421,-0.46546 1.162428,0.0421 2.42978,0.39549 3.589754,0.48192 1.229555,0.0916 2.457746,-0.21633 3.690112,-0.25471 2.623579,-0.0817 5.249882,0.0953 7.874381,0.0523 3.050501,-0.05 6.09838,-0.21111 9.145621,-0.36071 1.959108,-0.0962 5.874272,-0.34513 5.874272,-0.34513"
         id="path1086"
         sodipodi:nodetypes="csssssssssssc" />
      <path
         style="fill:none;stroke:#0000ff;stroke-width:0.92843;stroke-linecap:round;stroke-linejoin:round;stroke-dashoffset:0.377953"
         d="m 99.927224,219.95324 c 0,0 4.367836,-0.15192 6.543806,0 1.11756,0.078 2.21228,0.36875 3.32824,0.46701 1.73212,0.15251 3.47477,0.14514 5.21304,0.18899 3.3778,0.0852 6.75893,0.0219 10.1356,0.14397 1.6245,0.0587 3.24305,0.30477 4.86847,0.28308 2.57674,-0.0344 5.12724,-0.72827 7.70316,-0.65453 1.93855,0.0555 3.82013,0.81811 5.75947,0.82339 1.72783,0.005 3.43818,-0.38109 5.13526,-0.70566 3.03882,-0.58119 9.0126,-2.21877 9.0126,-2.21877"
         id="path1088"
         sodipodi:nodetypes="cssssssssc" />
      <path
         style="fill:none;stroke:#0000ff;stroke-width:0.92843;stroke-linecap:round;stroke-linejoin:round;stroke-dashoffset:0.377953"
         d="m 157.16842,192.16951 c 0,0 -0.62044,0.47063 -0.8103,0.79903 -0.36311,0.62807 -0.36263,1.40494 -0.55105,2.10553 -0.45921,1.70746 -0.9617,3.40319 -1.4122,5.11297 -0.58514,2.22081 -0.93788,4.50812 -1.67634,6.68276 -0.49463,1.4566 -1.33996,2.7779 -1.83507,4.23434 -0.84989,2.50007 -1.11919,5.1702 -1.93251,7.6824 -0.8097,2.501 -1.68199,5.18536 -2.85039,7.54024 -1.1105,2.2382 -2.45611,5.28684 -3.65009,8.03704 -0.96162,2.21498 -2.39664,7.06629 -2.39664,7.06629"
         id="path1090"
         sodipodi:nodetypes="cssssssssc" />
      <path
         style="fill:none;stroke:#0000ff;stroke-width:0.92843;stroke-linecap:round;stroke-linejoin:round;stroke-dashoffset:0.377953"
         d="m 185.28695,190.27138 c 0,0 2.619,0.12936 3.92873,0.18899 0.92131,0.0419 1.84386,0.06 2.76425,0.11874 1.28031,0.0817 2.55322,0.27085 3.83499,0.32508 0.98676,0.0418 1.97649,0.0488 2.96293,0 0.90876,-0.0449 2.71631,-0.26929 2.71631,-0.26929"
         id="path1092"
         sodipodi:nodetypes="cssssc" />
      <path
         style="fill:none;stroke:#0000ff;stroke-width:0.92843;stroke-linecap:round;stroke-linejoin:round;stroke-dashoffset:0.377953"
         d="m 185.68642,212.153 c 0,0 1.95266,0.97381 2.84134,1.36509 0.61077,0.26892 1.19935,0.63143 1.85594,0.75077 0.63454,0.11533 1.29085,-0.003 1.93422,-0.048 0.81082,-0.0567 1.53245,-0.20618 2.3433,-0.14993 0.60839,0.0422 1.81765,0.20262 1.81765,0.20262"
         id="path1094"
         sodipodi:nodetypes="cssssc" />
      <path
         style="fill:none;stroke:#0000ff;stroke-width:0.92843;stroke-linecap:round;stroke-linejoin:round;stroke-dashoffset:0.377953"
         d="m 104.3451,197.09692 c 0,0 3.70914,-0.44411 5.57363,-0.49481 1.66176,-0.0452 3.32433,0.26152 4.9842,0.17041 1.21276,-0.0666 2.39338,-0.45564 3.60614,-0.52232 2.4291,-0.13355 4.86795,0.0685 7.29409,0.24802 1.71073,0.12657 3.41107,0.36917 5.11297,0.58395 1.47847,0.18658 2.79686,0.0633 4.2821,0.18468 2.08966,0.17075 4.43202,0.0249 6.52827,0.065 2.48521,0.0476 4.85372,0.29296 7.33861,0.2309 1.90274,-0.0475 5.72257,0.0302 5.72257,0.0302"
         id="path1096"
         sodipodi:nodetypes="cssssssssc" />
    </g>
  </g>
</svg>
