<?xml version="1.0" encoding="UTF-8" standalone="no"?>
<svg
   xmlns:dc="http://purl.org/dc/elements/1.1/"
   xmlns:cc="http://creativecommons.org/ns#"
   xmlns:rdf="http://www.w3.org/1999/02/22-rdf-syntax-ns#"
   xmlns:svg="http://www.w3.org/2000/svg"
   xmlns="http://www.w3.org/2000/svg"
   xmlns:xlink="http://www.w3.org/1999/xlink"
   xmlns:sodipodi="http://sodipodi.sourceforge.net/DTD/sodipodi-0.dtd"
   xmlns:inkscape="http://www.inkscape.org/namespaces/inkscape"
   width="84.286842mm"
   height="50.338322mm"
   viewBox="0 0 298.65417 178.36413"
   id="svg2"
   version="1.1"
   inkscape:version="1.0.1 (1.0.1+r75)"
   sodipodi:docname="fox.svg">
  <defs
     id="defs4">
    <rect
       x="723.35223"
       y="52.573097"
       width="825.46857"
       height="222.91702"
       id="rect2356" />
  </defs>
  <sodipodi:namedview
     id="base"
     pagecolor="#ffffff"
     bordercolor="#666666"
     borderopacity="1.0"
     inkscape:pageopacity="0.0"
     inkscape:pageshadow="2"
     inkscape:zoom="0.7"
     inkscape:cx="572.29915"
     inkscape:cy="312.62251"
     inkscape:document-units="mm"
     inkscape:current-layer="layer7"
     showgrid="false"
     inkscape:window-width="1864"
     inkscape:window-height="1016"
     inkscape:window-x="1976"
     inkscape:window-y="27"
     inkscape:window-maximized="1"
     fit-margin-top="0"
     fit-margin-left="0"
     fit-margin-right="0"
     fit-margin-bottom="0"
     inkscape:document-rotation="0" />
  <metadata
     id="metadata7">
    <rdf:RDF>
      <cc:Work
         rdf:about="">
        <dc:format>image/svg+xml</dc:format>
        <dc:type
           rdf:resource="http://purl.org/dc/dcmitype/StillImage" />
        <dc:title></dc:title>
      </cc:Work>
    </rdf:RDF>
  </metadata>
  <g
     inkscape:groupmode="layer"
     id="layer7"
     inkscape:label="License"
     transform="translate(-5.7694063,-4.914749)"
     sodipodi:insensitive="true">
    <text
       xml:space="preserve"
       id="text2354"
       style="font-style:normal;font-variant:normal;font-weight:normal;font-stretch:normal;font-size:17.5px;line-height:125%;font-family:sans-serif;-inkscape-font-specification:sans-serif;text-align:start;writing-mode:lr-tb;white-space:pre;shape-inside:url(#rect2356);display:inline;fill:#008000;stroke:none;stroke-width:1.77165;stroke-linecap:round;stroke-linejoin:round;stroke-dashoffset:0.354331;"
       x="-15.83374"
       y="0"
       transform="translate(-410.19743,39.237459)"><tspan
         x="723.35156"
         y="68.055664"><tspan
           style="shape-inside:url(#rect2356);display:inline">This file is published under the
</tspan></tspan><tspan
         x="723.35156"
         y="89.930664"><tspan
           style="font-style:normal;font-variant:normal;font-weight:bold;font-stretch:normal;font-family:sans-serif;-inkscape-font-specification:'sans-serif Bold';fill:#008000;stroke:none">Attribution-NonCommercial-ShareAlike 4.0 International (CC BY-NC-SA 4.0)</tspan><tspan
           style="shape-inside:url(#rect2356);display:inline"> license.
</tspan></tspan><tspan
         x="723.35156"
         y="111.80566"><tspan
           style="shape-inside:url(#rect2356);display:inline">https://creativecommons.org/licenses/by-nc-sa/4.0/
</tspan></tspan><tspan
         x="723.35156"
         y="133.68066"><tspan
           style="font-style:normal;font-variant:normal;font-weight:normal;font-stretch:normal;font-family:sans-serif;-inkscape-font-specification:'sans-serif Bold Italic'">
</tspan></tspan><tspan
         x="723.35156"
         y="155.55566"><tspan
           style="font-style:normal;font-variant:normal;font-weight:normal;font-stretch:normal;font-family:sans-serif;-inkscape-font-specification:'sans-serif Bold Italic'">This design is based on clipart that is available at:
</tspan></tspan><tspan
         x="723.35156"
         y="177.43066"><tspan
           style="font-style:normal;font-variant:normal;font-weight:normal;font-stretch:normal;font-family:sans-serif;-inkscape-font-specification:'sans-serif Bold Italic'">https://depositphotos.com/155293204/stock-illustration-vector-cute-cartoon-fox-fox.html
</tspan></tspan><tspan
         x="723.35156"
         y="199.30566"><tspan
           style="font-style:normal;font-variant:normal;font-weight:normal;font-stretch:normal;font-family:sans-serif;-inkscape-font-specification:'sans-serif Bold Italic'">The image was traced by hand into this SVG.</tspan></tspan></text>
    <g
       id="g2531"
       transform="translate(-680.69077,105.04507)"
       style="fill:#008000">
      <g
         id="g2462"
         transform="matrix(1.1196698,0,0,1.1196698,992.51148,-97.603024)"
         style="fill:#008000;stroke-width:0.8373">
        <path
           d="M 31.957,0.311 C 23.275,0.311 15.635,3.524 9.731,9.514 3.653,15.678 0.354,23.666 0.354,32 c 0,8.422 3.212,16.236 9.29,22.313 6.078,6.078 13.978,9.377 22.313,9.377 8.334,0 16.409,-3.299 22.66,-9.463 C 60.521,48.41 63.646,40.683 63.646,32 63.646,23.405 60.521,15.592 54.53,9.601 48.453,3.523 40.639,0.311 31.957,0.311 Z m 0.086,5.73 c 7.12,0 13.458,2.691 18.406,7.641 4.862,4.861 7.466,11.286 7.466,18.318 0,7.119 -2.518,13.371 -7.379,18.146 -5.123,5.035 -11.721,7.727 -18.493,7.727 -6.858,0 -13.283,-2.691 -18.232,-7.641 C 8.862,45.283 6.084,38.772 6.084,32 6.084,25.142 8.862,18.631 13.811,13.594 18.673,8.646 24.924,6.041 32.043,6.041 Z"
           id="path2446"
           style="fill:#008000;stroke-width:0.8373" />
        <path
           id="c"
           d="m 31.635,26.734 c -1.79,-3.264 -4.844,-4.563 -8.389,-4.563 -5.16,0 -9.267,3.65 -9.267,9.828 0,6.283 3.861,9.829 9.442,9.829 3.581,0 6.635,-1.966 8.319,-4.949 l -3.931,-2.001 c -0.878,2.105 -2.212,2.738 -3.896,2.738 -2.914,0 -4.248,-2.422 -4.248,-5.617 0,-3.193 1.124,-5.616 4.248,-5.616 0.842,0 2.527,0.456 3.51,2.563 z"
           style="fill:#008000;stroke-width:0.8373" />
        <use
           xlink:href="#c"
           transform="translate(18.281)"
           id="use2449"
           x="0"
           y="0"
           width="100%"
           height="100%"
           style="fill:#008000;stroke-width:0.8373" />
      </g>
      <g
         id="surface1"
         transform="matrix(1.1072835,0,0,1.1072835,1077.4845,-97.20418)"
         style="fill:#008000;stroke-width:1.12889">
        <path
           d="M 31.1875,0 C 13.90625,0.4375 0,14.613281 0,32 0,49.664063 14.335938,64 32,64 49.664063,64 64,49.664063 64,32 64,14.335938 49.664063,0 32,0 31.722656,0 31.460938,-0.0078125 31.1875,0 Z M 31.15625,5.5 C 31.441406,5.492188 31.714844,5.5 32,5.5 46.628906,5.5 58.5,17.371094 58.5,32 58.5,46.628906 46.628906,58.5 32,58.5 17.371094,58.5 5.5,46.628906 5.5,32 5.5,17.65625 16.921875,5.953125 31.15625,5.5 Z"
           id="path2464"
           style="fill:#008000;stroke-width:1.12889" />
        <path
           d="m 36.625,15.9375 c 0,2.550781 -2.070312,4.625 -4.625,4.625 -2.554687,0 -4.625,-2.074219 -4.625,-4.625 0,-2.554687 2.070313,-4.625 4.625,-4.625 2.554688,0 4.625,2.070313 4.625,4.625 z"
           id="path2466"
           style="fill:#008000;stroke-width:1.12889" />
        <path
           d="m 27.214844,52.6875 h 9.570312 v -15.375 h 2.894532 c 0,0 -0.0039,-10.992187 0,-12.722656 -0.0039,-0.457031 0.03906,-1.363281 -0.621094,-2.027344 C 38.394531,21.902344 37.5,21.941406 37.03125,21.941406 c -0.472656,0.0039 -9.589844,0.0039 -10.0625,0 -0.46875,0 -1.363281,-0.03906 -2.027344,0.621094 -0.660156,0.664063 -0.617187,1.570313 -0.621093,2.027344 0.0039,1.730469 0,12.722656 0,12.722656 h 2.894531 z"
           id="path2468"
           style="fill:#008000;stroke-width:1.12889" />
      </g>
      <g
         id="surface1-4"
         transform="matrix(1.1072835,0,0,1.1072835,1162.0611,-97.20418)"
         style="fill:#008000;stroke-width:0.846667">
        <path
           d="M 31.1875,0 C 13.90625,0.4375 0,14.613281 0,32 0,49.664063 14.335938,64 32,64 49.664063,64 64,49.664063 64,32 64,14.335938 49.664063,0 32,0 31.722656,0 31.460938,-0.0078125 31.1875,0 Z M 31.15625,5.5 C 31.441406,5.492188 31.714844,5.5 32,5.5 46.628906,5.5 58.5,17.371094 58.5,32 58.5,46.628906 46.628906,58.5 32,58.5 17.371094,58.5 5.5,46.628906 5.5,32 5.5,17.65625 16.921875,5.953125 31.15625,5.5 Z"
           id="path2483"
           style="fill:#008000;stroke-width:0.846667" />
        <path
           d="m 25.644531,38.742188 c 2.0625,2.882812 8.351563,3.089843 10.511719,1.871093 0.792969,-0.449218 0.988281,-1.75 0.988281,-2.628906 0,-0.605469 -0.15625,-1.078125 -0.476562,-1.425781 -0.335938,-0.34375 -1.1875,-1.21875 -2.175781,-1.476563 C 29.472656,33.785156 26,32.167969 24.636719,30.996094 c -1.695313,-1.46875 -1.96875,-2.425781 -1.96875,-4.980469 0,-2.554687 0.734375,-4.695312 2.394531,-6.230469 1.660156,-1.535156 4.074219,-2.304687 7.234375,-2.304687 3.019531,0 7.269531,0.796875 9.339844,3.257812 l -3.453125,3.753907 c -1.949219,-1.632813 -3.394531,-1.78125 -5.78125,-1.78125 -1.5,0 -2.28125,0.214843 -2.917969,0.648437 -0.636719,0.414063 -0.953125,0.957031 -0.953125,1.628906 0,0.605469 0.289063,1.105469 0.875,1.5 0.582031,0.417969 2.105469,1.039063 5.144531,1.867188 3.40625,0.929687 5.722657,2.0625 6.941407,3.390625 1.199218,1.328125 1.800781,3.097656 1.800781,5.304687 0,2.660157 -0.9375,4.851563 -2.808594,6.578125 -1.855469,1.726563 -4.136719,3.066407 -7.421875,3.066407 -4.230469,0 -9.875,-1.496094 -11.433594,-4.253907"
           id="path2485"
           style="fill:#008000;stroke-width:0.846667" />
        <path
           d="M 59.34375,40.105469 56.9375,45.386719 5.816406,22.351563 8.222656,17.070313 Z"
           id="path2487"
           style="fill:#008000;stroke-width:0.846667" />
        <path
           d="m 30.375,12.875 v 6.84375 h 3.25 V 12.875 Z m 0,32.09375 V 51.125 h 3.25 v -6.15625 z"
           id="path2489"
           style="fill:#008000;stroke-width:0.846667" />
      </g>
      <g
         id="g2513"
         transform="matrix(1.1072835,0,0,1.1072835,1246.6378,-97.20439)"
         style="fill:#008000;stroke-width:0.846667">
        <path
           style="opacity:1;fill:#008000;fill-opacity:1;fill-rule:nonzero;stroke:none;stroke-width:219.716;stroke-linecap:butt;stroke-linejoin:round;stroke-miterlimit:4;stroke-dasharray:none;stroke-dashoffset:0;stroke-opacity:1"
           d="M 31.1875,0 C 13.904525,0.43835438 0,14.612004 0,32 0,49.663996 14.336004,64 32,64 49.663996,64 64,49.663996 64,32 64,14.336004 49.663996,0 32,0 31.724,0 31.461833,-0.00695801 31.1875,0 Z M 31.15625,5.5 C 31.439783,5.49101 31.714297,5.5 32,5.5 46.628003,5.4999998 58.5,17.371998 58.5,32 58.499998,46.628001 46.628002,58.5 32,58.5 17.371999,58.499999 5.5,46.628002 5.5,32 5.4999999,17.657701 16.922915,5.9512829 31.15625,5.5 Z"
           id="path1334" />
        <path
           style="opacity:1;fill:#008000;fill-opacity:1;fill-rule:nonzero;stroke:none;stroke-width:219.716;stroke-linecap:butt;stroke-linejoin:round;stroke-miterlimit:4;stroke-dasharray:none;stroke-dashoffset:0;stroke-opacity:1"
           d="m 18.115779,26.784547 h -2.740778 l 6.21875,6.96875 6.21875,-6.96875 h -2.243852 c 0.486099,-3.3998 3.476871,-5.586425 6.931352,-5.3125 0.136556,0.01083 0.267854,0 0.40625,0 5.62743,0 7.84682,4.255865 8.03125,10.53125 0.19247,6.549199 -3.60349,10.620376 -8.03125,10.53125 -4.673386,-0.09221 -6.444049,-2.32751 -7.125,-5.71875 h -8.34375 c 1.373177,7.811231 7.123855,12.392036 15.28125,12.40625 9.23458,0.01625 15.906248,-7.709347 15.906248,-17.21875 0,-10.154893 -6.669368,-17.21875 -15.906248,-17.21875 -0.274244,0 -0.541652,-0.01489 -0.8125,0 -0.0656,0.0036 -0.12197,-0.0011 -0.1875,0 -5.772209,0.09597 -13.602929,4.139742 -13.602972,12 z"
           id="path2371"
           sodipodi:nodetypes="cccccssssccsssssc" />
      </g>
    </g>
  </g>
  <g
     inkscape:groupmode="layer"
     id="layer4"
     inkscape:label="Cut"
     style="display:inline"
     transform="translate(-5.7694063,-4.914749)">
    <path
       sodipodi:nodetypes="ccccssssscsssscsscscscccccccccccsscccccccccccssccsscsssccsscsssscc"
       inkscape:connector-curvature="0"
       d="m 110.74563,132.36572 c 5.13934,1.68714 10.54829,3.27284 25.27908,1.35128 1.71104,3.0035 3.82721,5.87145 7.36248,8.26467 1.38858,1.31914 2.69046,2.83446 3.68224,5.05151 5.39266,15.80835 2.78351,15.55849 0.0234,21.48594 -3.78136,8.12059 -2.78659,10.48878 -10.76216,9.54826 -3.73547,-0.4405 -6.36162,2.3757 -6.68722,4.37341 -1.19808,7.35072 4.16766,7.00502 7.82057,6.88539 7.83139,-0.25647 13.56665,-8.16309 19.74597,-15.18805 4.38011,-4.97952 7.90888,-9.50686 8.25716,-14.25636 2.05867,3.50021 2.51393,7.61214 3.91904,11.48556 3.86003,10.64086 10.61137,7.76474 11.38316,7.5709 4.45477,-1.11885 5.37675,-6.07865 0.33444,-9.42202 -5.14125,-3.40897 -4.46033,-11.507 -5.07451,-17.45901 -0.91365,-8.85402 -7.09186,-5.94146 -10.58063,-9.18035 1.26427,-2.89798 3.17607,-5.19283 4.81898,-6.20975 6.73175,-4.16678 8.67672,-9.88936 11.24276,-15.86818 5.73884,-13.3714 3.19089,-17.37537 1.54547,-21.765039 33.21691,36.060419 58.35797,40.017559 83.46965,38.598639 30.44522,-1.72029 55.65399,-27.63178 50.23541,-46.501414 -11.98959,7.338412 -35.72511,15.056314 -67.71144,1.5082 C 235.8442,87.046097 201.37847,72.022389 178.25472,85.413804 162.7182,70.556179 149.26237,76.27935 135.50563,79.02601 c -12.31266,1.805658 -29.16697,8.963105 -44.469065,-3.168777 0.983285,-1.023768 2.277166,-2.358809 3.55784,-3.680613 l -3.676239,0.463591 C 94.475472,70.618587 98.28655,69.011987 99.867471,60.910856 95.998399,58.846895 92.318659,56.782733 89.060298,54.718108 92.422735,45.431989 94.699489,35.496061 95.002005,24.378516 95.973116,14.764838 91.678249,14.830481 85.344312,18.644109 79.471715,24.289756 72.251699,31.147523 67.477563,35.141581 63.529452,32.248088 58.329538,31.34438 52.811336,34.157107 49.215551,28.895866 46.940675,22.970979 41.69327,15.286466 37.579189,9.2616383 33.631455,10.80212 31.665103,16.782887 c -4.312697,13.117304 -3.751669,25.785607 -3.0442,35.243414 -2.974878,0.97784 -5.808574,2.166953 -9.189098,2.537758 -0.596346,5.042691 0.878171,9.667833 3.704238,12.460737 l -2.501085,-1.106833 c 0.81135,2.207305 1.739017,4.540698 4.331205,6.334401 -1.199752,-0.208947 -1.458595,0.347071 -3.433489,-0.441921 0.631884,1.799203 2.30523,7.728311 16.786709,10.633626 2.183314,2.598209 4.734927,3.344457 7.343686,3.803363 -3.528511,6.935527 -2.995573,16.814228 -2.966105,19.535928 0.765688,-1.51847 1.7388,-3.79795 2.523258,-4.13908 -0.649678,6.16621 1.37232,9.168 3.001104,12.63554 l 0.685634,-3.4477 c 0.268599,-1.35064 1.456297,-0.94252 1.609576,0.91744 0.31223,3.78871 3.301034,7.96214 3.870288,8.58909 l 0.734133,-0.78102 c 2.638709,7.81021 3.960829,15.89346 3.377607,23.76055 -0.666928,8.99621 -6.32462,20.55837 -10.930522,28.68188 -0.384884,0.67883 -0.552481,2.03563 -1.524231,1.74843 -4.786507,-1.74082 -9.954591,0.62429 -10.812405,4.00871 -1.032754,4.07462 1.689407,7.84537 8.011647,7.53514 4.353079,-0.21361 10.116431,-1.88351 15.156547,-9.20835 12.303222,-17.88036 20.054843,-34.8934 20.634162,-43.68377 1.180965,0.27903 2.069439,0.42603 3.427542,0.28183 5.152373,3.37088 6.610315,6.25332 6.120535,12.28745 -0.812392,10.00868 3.896679,17.92786 4.084362,27.26438 0.01568,0.78018 0.564377,2.03236 -0.417795,2.2816 -5.004382,0.94724 -8.240346,5.61964 -7.249802,8.96762 1.192549,4.03075 5.458469,5.88295 10.736016,2.38804 3.633778,-2.40636 8.90968,-6.78406 8.33,-15.65649 -0.8231,-12.59817 -2.83198,-12.44522 -0.0669,-23.75794 1.36275,-5.57546 3.96408,-8.18989 6.74795,-14.09099 z"
       style="display:inline;fill:none;fill-rule:evenodd;stroke:#ff0000;stroke-width:0.454973px;stroke-linecap:butt;stroke-linejoin:miter;stroke-opacity:1"
       id="path4977"
       transform="translate(-13.303673,-6.3197276)" />
  </g>
  <g
     inkscape:groupmode="layer"
     id="layer6"
     inkscape:label="Engrave"
     style="display:inline"
     transform="translate(-5.7694063,-4.914749)">
    <g
       id="g4454"
       style="display:inline"
       transform="translate(-13.303673,-6.3197276)">
      <path
         sodipodi:nodetypes="cccccccc"
         inkscape:connector-curvature="0"
         id="path4979"
         d="m 19.661851,54.793602 c 2.322174,2.348765 4.663166,5.536153 7.200972,9.170089 l 0.390552,-1.595063 c 1.456831,1.336384 2.914653,3.583274 4.372127,5.510359 0.04698,-1.330399 0.689786,-2.066272 1.375777,-2.759052 1.0703,2.643976 2.909272,4.902567 4.374127,7.348728 l 0.226297,-3.217397 c 1.917319,2.159562 3.83485,4.515082 5.752402,6.887636"
         style="fill:none;fill-rule:evenodd;stroke:#0000ff;stroke-width:0.454973px;stroke-linecap:butt;stroke-linejoin:miter;stroke-opacity:1" />
      <path
         sodipodi:nodetypes="cccccccc"
         inkscape:connector-curvature="0"
         id="path4981"
         d="m 60.590568,77.728725 c 3.480709,-2.400784 6.960138,-5.982155 10.44213,-7.202356 -0.26114,1.556367 -1.042216,2.853469 -1.713124,4.205507 3.590256,-3.477398 6.615333,-5.253098 9.805756,-7.526642 l 0.516959,3.67618 c 2.328122,-1.6828 4.615216,-3.406541 7.362345,-4.671244 l 0.231794,1.838119 11.711856,-7.136433"
         style="fill:none;fill-rule:evenodd;stroke:#0000ff;stroke-width:0.454973px;stroke-linecap:butt;stroke-linejoin:miter;stroke-opacity:1" />
      <path
         sodipodi:nodetypes="ccccccc"
         inkscape:connector-curvature="0"
         id="path4983"
         d="m 38.30509,82.119101 c -1.583684,-8.704064 7.345247,-6.626448 9.20355,-2.064241 2.744596,-0.08976 3.27742,0.366606 3.893831,1.13081 6.834105,-8.487891 12.245544,-2.963135 8.505712,2.9781 9.965508,4.277005 20.00467,6.583343 30.557641,-4.858971 l -3.448441,-1.375024 c 1.355443,-0.636909 2.755326,-1.22947 3.904283,-2.072417"
         style="fill:none;fill-rule:evenodd;stroke:#0000ff;stroke-width:0.454973px;stroke-linecap:butt;stroke-linejoin:miter;stroke-opacity:1" />
      <path
         sodipodi:nodetypes="cccc"
         inkscape:connector-curvature="0"
         id="path4985"
         d="m 45.900069,86.209398 c 0.568657,-0.05568 1.137262,-0.159218 1.705686,-0.428394 0.453491,0.192634 1.20103,0.237841 2.5186,-0.0027 4.71812,2.384663 7.219018,0.346908 9.829079,-1.47311"
         style="fill:none;fill-rule:evenodd;stroke:#0000ff;stroke-width:0.454973px;stroke-linecap:butt;stroke-linejoin:miter;stroke-opacity:1" />
      <path
         sodipodi:nodetypes="cc"
         inkscape:connector-curvature="0"
         id="path4987"
         d="M 28.638851,52.003583 C 39.639546,49.87546 45.739904,38.471294 52.668347,34.428454"
         style="fill:none;fill-rule:evenodd;stroke:#0000ff;stroke-width:0.454973px;stroke-linecap:butt;stroke-linejoin:miter;stroke-opacity:1" />
      <path
         sodipodi:nodetypes="cc"
         inkscape:connector-curvature="0"
         id="path4989"
         d="m 67.618526,35.387136 c 6.900751,5.194408 8.45753,14.834314 20.982479,19.476049"
         style="fill:none;fill-rule:evenodd;stroke:#0000ff;stroke-width:0.454973px;stroke-linecap:butt;stroke-linejoin:miter;stroke-opacity:1" />
      <path
         sodipodi:nodetypes="ccc"
         inkscape:connector-curvature="0"
         id="path4991"
         d="m 47.355786,80.053479 c -0.776647,0.361685 -1.584126,0.68382 -1.62274,1.992276 0.02687,1.659551 0.840231,2.746663 1.831996,3.654049"
         style="fill:none;fill-rule:evenodd;stroke:#0000ff;stroke-width:0.454973px;stroke-linecap:butt;stroke-linejoin:miter;stroke-opacity:1" />
      <path
         sodipodi:nodetypes="ccc"
         inkscape:connector-curvature="0"
         id="path4993"
         d="m 51.419239,81.145873 c 0.50358,1.159094 0.256325,1.707729 0.04319,2.356062 -0.328293,0.808618 -0.570842,1.743371 -1.216247,2.235572"
         style="fill:none;fill-rule:evenodd;stroke:#0000ff;stroke-width:0.454973px;stroke-linecap:butt;stroke-linejoin:miter;stroke-opacity:1" />
      <path
         sodipodi:nodetypes="cccsc"
         inkscape:connector-curvature="0"
         id="path4995"
         d="m 110.74538,132.13593 c 0.12774,-3.25559 -1.15606,-6.50964 -1.73409,-9.76447 11.73964,3.55143 23.90468,-1.35522 34.23613,-3.25439 -0.94608,4.6059 -3.09209,8.95225 -1.24851,14.13384 1.30205,3.65954 3.49281,7.27017 3.68874,11.02622"
         style="fill:none;fill-rule:evenodd;stroke:#0000ff;stroke-width:0.454973px;stroke-linecap:butt;stroke-linejoin:miter;stroke-opacity:1" />
      <path
         sodipodi:nodetypes="cc"
         inkscape:connector-curvature="0"
         id="path4997"
         d="m 136.13936,133.48708 c 0.4596,-5e-4 5.62926,-0.69551 5.62926,-0.69551"
         style="fill:none;fill-rule:evenodd;stroke:#0000ff;stroke-width:0.454973px;stroke-linecap:butt;stroke-linejoin:miter;stroke-opacity:1" />
      <path
         sodipodi:nodetypes="cc"
         inkscape:connector-curvature="0"
         id="path4999"
         d="m 165.22998,143.01224 c -2.46258,6.31345 0.0313,10.64802 0.26177,16.57376"
         style="fill:none;fill-rule:evenodd;stroke:#0000ff;stroke-width:0.454973px;stroke-linecap:butt;stroke-linejoin:miter;stroke-opacity:1" />
      <path
         sodipodi:nodetypes="cccccssccc"
         inkscape:connector-curvature="0"
         id="path5001"
         d="m 279.73908,99.990145 c 1.18633,3.560145 5.26574,2.770405 8.9398,2.590125 -1.56762,2.86987 -3.1363,4.76431 -4.70533,6.34225 2.31383,0.58666 5.06508,-0.14374 7.79866,-0.82093 -2.47316,5.52233 -6.13911,6.19641 -6.24572,9.35 2.77289,-0.37701 5.98727,-1.7726 9.01548,-2.52841 1.18428,-0.29558 0.9064,0.50374 0.65102,0.97424 -1.07688,1.98399 -2.72145,3.37461 -4.21944,4.87931 1.73656,0.31106 4.7665,0.10314 7.14975,0.15471 -2.19032,3.03554 -6.48762,6.88583 -6.57074,9.30974"
         style="fill:none;fill-rule:evenodd;stroke:#0000ff;stroke-width:0.454973px;stroke-linecap:butt;stroke-linejoin:miter;stroke-opacity:1" />
      <path
         sodipodi:nodetypes="cc"
         inkscape:connector-curvature="0"
         id="path5003"
         d="m 182.86546,99.03169 c -1.15338,-2.70032 -2.79175,-5.522419 -4.1725,-7.615776"
         style="fill:none;fill-rule:evenodd;stroke:#0000ff;stroke-width:0.454973px;stroke-linecap:butt;stroke-linejoin:miter;stroke-opacity:1" />
      <path
         sodipodi:nodetypes="csscsccscssscc"
         inkscape:connector-curvature="0"
         id="path5005"
         d="m 87.818954,82.812424 c 3.505432,3.93979 6.276988,8.236886 6.516589,15.592014 0.07886,2.420992 -0.118551,2.648522 -1.563042,0.854776 -0.531605,-0.660135 -1.199569,-1.102275 -2.012453,-1.500849 1.539315,3.248135 2.068171,6.459365 1.940135,9.706705 -0.06382,1.61875 -0.682984,2.66035 -1.542225,1.32191 -0.993051,-1.15665 -1.234582,-0.71233 -1.035149,0.6714 0.0014,4.2186 -1.335973,6.21778 -2.305941,8.77701 -0.524131,1.3829 -0.749317,0.98065 -1.014861,0.65106 -0.982463,-1.62361 -1.596173,-1.66236 -1.868904,-0.2417 -0.358074,1.86522 -0.455669,3.73147 -0.664239,5.54572 -0.09219,0.80193 -0.302646,1.47447 -0.954038,0.54944 -1.069102,-1.51823 -1.672078,-2.07026 -2.806427,-3.18583 -0.686885,3.90838 1.175219,7.26765 1.839862,10.88488"
         style="fill:none;fill-rule:evenodd;stroke:#0000ff;stroke-width:0.454973px;stroke-linecap:butt;stroke-linejoin:miter;stroke-opacity:1" />
      <path
         sodipodi:nodetypes="cssssssc"
         inkscape:connector-curvature="0"
         id="path5007"
         d="m 55.05541,119.44619 c -0.275086,-0.89476 -0.618704,-1.8056 -0.581084,-2.6989 0.03836,-0.91087 0.521485,-0.5278 0.658896,-0.0725 1.468415,4.86517 5.736885,7.92428 9.173937,11.49813 0.341826,0.35543 0.744694,0.75054 1.146773,-0.47886 0.313222,-0.95773 0.586262,-1.69666 0.541979,-2.70548 -0.07203,-1.64101 0.921406,-1.52015 1.413984,-0.7664 2.542226,3.89012 6.284837,6.63105 11.478395,8.14978"
         style="fill:none;fill-rule:evenodd;stroke:#0000ff;stroke-width:0.454973px;stroke-linecap:butt;stroke-linejoin:miter;stroke-opacity:1" />
      <g
         style="stroke:#0000ff"
         id="g5009"
         transform="matrix(0.45497323,-4.9493653e-4,4.9493653e-4,0.45497323,-5.3940105,-163.84675)">
        <path
           style="fill:none;fill-rule:evenodd;stroke:#0000ff;stroke-width:1px;stroke-linecap:butt;stroke-linejoin:miter;stroke-opacity:1"
           d="m 141.16882,515.9712 c 0.40492,-5.89655 0.90959,-12.0052 9.34391,-15.65736 5.9715,-2.58573 12.16392,-1.26269 18.24588,-1.89403 -2.0659,4.82207 -5.51925,10.83828 -9.65958,12.75317 -4.36673,2.0196 -10.52704,2.22759 -17.23574,1.26269"
           id="path5011"
           inkscape:connector-curvature="0"
           sodipodi:nodetypes="cscsc" />
        <circle
           style="opacity:0.98;fill:none;fill-opacity:1;stroke:#0000ff;stroke-width:0.775005;stroke-miterlimit:4;stroke-dasharray:none"
           id="circle5013"
           cx="155.43723"
           cy="505.86966"
           r="5.1438599" />
      </g>
      <g
         style="stroke:#0000ff"
         transform="matrix(-0.4451608,-0.0939827,-0.0939827,0.4451608,157.44251,-146.83985)"
         id="g5015">
        <path
           sodipodi:nodetypes="cscsc"
           inkscape:connector-curvature="0"
           id="path5017"
           d="m 141.16882,515.9712 c 0.40492,-5.89655 0.90959,-12.0052 9.34391,-15.65736 5.9715,-2.58573 12.16392,-1.26269 18.24588,-1.89403 -2.0659,4.82207 -5.51925,10.83828 -9.65958,12.75317 -4.36673,2.0196 -10.52704,2.22759 -17.23574,1.26269"
           style="fill:none;fill-rule:evenodd;stroke:#0000ff;stroke-width:1px;stroke-linecap:butt;stroke-linejoin:miter;stroke-opacity:1" />
        <circle
           r="5.1438599"
           cy="505.86966"
           cx="155.43723"
           id="circle5019"
           style="opacity:0.98;fill:none;fill-opacity:1;stroke:#0000ff;stroke-width:0.775005;stroke-miterlimit:4;stroke-dasharray:none" />
      </g>
    </g>
  </g>
</svg>
