<?xml version="1.0" encoding="UTF-8" standalone="no"?>
<svg
   xmlns:dc="http://purl.org/dc/elements/1.1/"
   xmlns:cc="http://creativecommons.org/ns#"
   xmlns:rdf="http://www.w3.org/1999/02/22-rdf-syntax-ns#"
   xmlns:svg="http://www.w3.org/2000/svg"
   xmlns="http://www.w3.org/2000/svg"
   xmlns:xlink="http://www.w3.org/1999/xlink"
   xmlns:sodipodi="http://sodipodi.sourceforge.net/DTD/sodipodi-0.dtd"
   xmlns:inkscape="http://www.inkscape.org/namespaces/inkscape"
   width="55.000004mm"
   height="43.824623mm"
   viewBox="0 0 194.8819 155.28409"
   id="svg2"
   version="1.1"
   inkscape:version="1.0.1 (1.0.1+r75)"
   sodipodi:docname="hedgehog.svg">
  <defs
     id="defs4">
    <rect
       x="723.35223"
       y="52.573097"
       width="970.98404"
       height="226.45254"
       id="rect2356" />
    <rect
       x="723.35223"
       y="52.573097"
       width="825.46857"
       height="222.91702"
       id="rect2840" />
  </defs>
  <sodipodi:namedview
     id="base"
     pagecolor="#ffffff"
     bordercolor="#666666"
     borderopacity="1.0"
     inkscape:pageopacity="0.0"
     inkscape:pageshadow="2"
     inkscape:zoom="0.70710678"
     inkscape:cx="482.8248"
     inkscape:cy="426.43779"
     inkscape:document-units="px"
     inkscape:current-layer="layer3"
     showgrid="false"
     showguides="true"
     inkscape:guide-bbox="true"
     inkscape:window-width="1864"
     inkscape:window-height="1016"
     inkscape:window-x="1976"
     inkscape:window-y="27"
     inkscape:window-maximized="1"
     fit-margin-top="0"
     fit-margin-left="0"
     fit-margin-right="0"
     fit-margin-bottom="0"
     inkscape:document-rotation="0" />
  <metadata
     id="metadata7">
    <rdf:RDF>
      <cc:Work
         rdf:about="">
        <dc:format>image/svg+xml</dc:format>
        <dc:type
           rdf:resource="http://purl.org/dc/dcmitype/StillImage" />
        <dc:title></dc:title>
      </cc:Work>
    </rdf:RDF>
  </metadata>
  <g
     inkscape:groupmode="layer"
     id="layer3"
     inkscape:label="License"
     transform="translate(-3.999971,-4.0000015)">
    <text
       xml:space="preserve"
       id="text2354"
       style="font-style:normal;font-variant:normal;font-weight:normal;font-stretch:normal;font-size:17.5px;line-height:125%;font-family:sans-serif;-inkscape-font-specification:sans-serif;text-align:start;writing-mode:lr-tb;white-space:pre;shape-inside:url(#rect2356);display:inline;fill:#008000;stroke:none;stroke-width:1.77165;stroke-linecap:round;stroke-linejoin:round;stroke-dashoffset:0.354331;"
       x="-15.83374"
       y="0"
       transform="translate(-513.86461,37.992891)"><tspan
         x="723.35156"
         y="68.055664"><tspan
           style="shape-inside:url(#rect2356);display:inline">This file is published under the
</tspan></tspan><tspan
         x="723.35156"
         y="89.930664"><tspan
           style="font-style:normal;font-variant:normal;font-weight:bold;font-stretch:normal;font-family:sans-serif;-inkscape-font-specification:'sans-serif Bold';fill:#008000;stroke:none">Attribution-NonCommercial-ShareAlike 4.0 International (CC BY-NC-SA 4.0)</tspan><tspan
           style="shape-inside:url(#rect2356);display:inline"> license.
</tspan></tspan><tspan
         x="723.35156"
         y="111.80566"><tspan
           style="shape-inside:url(#rect2356);display:inline">https://creativecommons.org/licenses/by-nc-sa/4.0/
</tspan></tspan><tspan
         x="723.35156"
         y="133.68066"><tspan
           style="font-style:italic;font-variant:normal;font-weight:bold;font-stretch:normal;font-family:sans-serif;-inkscape-font-specification:'sans-serif Bold Italic'">
</tspan></tspan><tspan
         x="723.35156"
         y="155.55566"><tspan
           style="font-style:normal;font-variant:normal;font-weight:normal;font-stretch:normal;font-family:sans-serif;-inkscape-font-specification:sans-serif">This design is based on clipart that was marked as for Personal Use. While the original SVG could not be found </tspan></tspan><tspan
         x="723.35156"
         y="177.43066"><tspan
           style="font-style:normal;font-variant:normal;font-weight:normal;font-stretch:normal;font-family:sans-serif;-inkscape-font-specification:sans-serif">anymore, PNG rederings of the original SVG are available at:
</tspan></tspan><tspan
         x="723.35156"
         y="199.30566"><tspan
           style="font-style:normal;font-variant:normal;font-weight:normal;font-stretch:normal;font-family:sans-serif;-inkscape-font-specification:sans-serif">http://clipart-library.com/clipart/170200.htm
</tspan></tspan><tspan
         x="723.35156"
         y="221.18066"><tspan
           style="font-style:normal;font-variant:normal;font-weight:normal;font-stretch:normal;font-family:sans-serif;-inkscape-font-specification:sans-serif">and
</tspan></tspan><tspan
         x="723.35156"
         y="243.05566"><tspan
           style="font-style:normal;font-variant:normal;font-weight:normal;font-stretch:normal;font-family:sans-serif;-inkscape-font-specification:sans-serif">https://www.pinclipart.com/pindetail/oiTbwo_hedgehog-clipart-cartoon-hedgehog-clipart-6268-4975-best/
</tspan></tspan><tspan
         x="723.35156"
         y="264.93066"><tspan
           style="font-style:normal;font-variant:normal;font-weight:normal;font-stretch:normal;font-family:sans-serif;-inkscape-font-specification:sans-serif">Both of those sources claim &quot;License: Personal Use&quot;</tspan><tspan
           style="font-style:italic;font-variant:normal;font-weight:bold;font-stretch:normal;font-family:sans-serif;-inkscape-font-specification:'sans-serif Bold Italic'">
</tspan></tspan></text>
    <g
       id="g2531"
       transform="translate(-784.35795,103.8005)"
       style="fill:#008000">
      <g
         id="g2462"
         transform="matrix(1.1196698,0,0,1.1196698,992.51148,-97.603024)"
         style="fill:#008000;stroke-width:0.8373">
        <path
           d="M 31.957,0.311 C 23.275,0.311 15.635,3.524 9.731,9.514 3.653,15.678 0.354,23.666 0.354,32 c 0,8.422 3.212,16.236 9.29,22.313 6.078,6.078 13.978,9.377 22.313,9.377 8.334,0 16.409,-3.299 22.66,-9.463 C 60.521,48.41 63.646,40.683 63.646,32 63.646,23.405 60.521,15.592 54.53,9.601 48.453,3.523 40.639,0.311 31.957,0.311 Z m 0.086,5.73 c 7.12,0 13.458,2.691 18.406,7.641 4.862,4.861 7.466,11.286 7.466,18.318 0,7.119 -2.518,13.371 -7.379,18.146 -5.123,5.035 -11.721,7.727 -18.493,7.727 -6.858,0 -13.283,-2.691 -18.232,-7.641 C 8.862,45.283 6.084,38.772 6.084,32 6.084,25.142 8.862,18.631 13.811,13.594 18.673,8.646 24.924,6.041 32.043,6.041 Z"
           id="path2446"
           style="fill:#008000;stroke-width:0.8373" />
        <path
           id="c"
           d="m 31.635,26.734 c -1.79,-3.264 -4.844,-4.563 -8.389,-4.563 -5.16,0 -9.267,3.65 -9.267,9.828 0,6.283 3.861,9.829 9.442,9.829 3.581,0 6.635,-1.966 8.319,-4.949 l -3.931,-2.001 c -0.878,2.105 -2.212,2.738 -3.896,2.738 -2.914,0 -4.248,-2.422 -4.248,-5.617 0,-3.193 1.124,-5.616 4.248,-5.616 0.842,0 2.527,0.456 3.51,2.563 z"
           style="fill:#008000;stroke-width:0.8373" />
        <use
           xlink:href="#c"
           transform="translate(18.281)"
           id="use2449"
           x="0"
           y="0"
           width="100%"
           height="100%"
           style="fill:#008000;stroke-width:0.8373" />
      </g>
      <g
         id="surface1"
         transform="matrix(1.1072835,0,0,1.1072835,1077.4845,-97.20418)"
         style="fill:#008000;stroke-width:1.12889">
        <path
           d="M 31.1875,0 C 13.90625,0.4375 0,14.613281 0,32 0,49.664063 14.335938,64 32,64 49.664063,64 64,49.664063 64,32 64,14.335938 49.664063,0 32,0 31.722656,0 31.460938,-0.0078125 31.1875,0 Z M 31.15625,5.5 C 31.441406,5.492188 31.714844,5.5 32,5.5 46.628906,5.5 58.5,17.371094 58.5,32 58.5,46.628906 46.628906,58.5 32,58.5 17.371094,58.5 5.5,46.628906 5.5,32 5.5,17.65625 16.921875,5.953125 31.15625,5.5 Z"
           id="path2464"
           style="fill:#008000;stroke-width:1.12889" />
        <path
           d="m 36.625,15.9375 c 0,2.550781 -2.070312,4.625 -4.625,4.625 -2.554687,0 -4.625,-2.074219 -4.625,-4.625 0,-2.554687 2.070313,-4.625 4.625,-4.625 2.554688,0 4.625,2.070313 4.625,4.625 z"
           id="path2466"
           style="fill:#008000;stroke-width:1.12889" />
        <path
           d="m 27.214844,52.6875 h 9.570312 v -15.375 h 2.894532 c 0,0 -0.0039,-10.992187 0,-12.722656 -0.0039,-0.457031 0.03906,-1.363281 -0.621094,-2.027344 C 38.394531,21.902344 37.5,21.941406 37.03125,21.941406 c -0.472656,0.0039 -9.589844,0.0039 -10.0625,0 -0.46875,0 -1.363281,-0.03906 -2.027344,0.621094 -0.660156,0.664063 -0.617187,1.570313 -0.621093,2.027344 0.0039,1.730469 0,12.722656 0,12.722656 h 2.894531 z"
           id="path2468"
           style="fill:#008000;stroke-width:1.12889" />
      </g>
      <g
         id="surface1-4"
         transform="matrix(1.1072835,0,0,1.1072835,1162.0611,-97.20418)"
         style="fill:#008000;stroke-width:0.846667">
        <path
           d="M 31.1875,0 C 13.90625,0.4375 0,14.613281 0,32 0,49.664063 14.335938,64 32,64 49.664063,64 64,49.664063 64,32 64,14.335938 49.664063,0 32,0 31.722656,0 31.460938,-0.0078125 31.1875,0 Z M 31.15625,5.5 C 31.441406,5.492188 31.714844,5.5 32,5.5 46.628906,5.5 58.5,17.371094 58.5,32 58.5,46.628906 46.628906,58.5 32,58.5 17.371094,58.5 5.5,46.628906 5.5,32 5.5,17.65625 16.921875,5.953125 31.15625,5.5 Z"
           id="path2483"
           style="fill:#008000;stroke-width:0.846667" />
        <path
           d="m 25.644531,38.742188 c 2.0625,2.882812 8.351563,3.089843 10.511719,1.871093 0.792969,-0.449218 0.988281,-1.75 0.988281,-2.628906 0,-0.605469 -0.15625,-1.078125 -0.476562,-1.425781 -0.335938,-0.34375 -1.1875,-1.21875 -2.175781,-1.476563 C 29.472656,33.785156 26,32.167969 24.636719,30.996094 c -1.695313,-1.46875 -1.96875,-2.425781 -1.96875,-4.980469 0,-2.554687 0.734375,-4.695312 2.394531,-6.230469 1.660156,-1.535156 4.074219,-2.304687 7.234375,-2.304687 3.019531,0 7.269531,0.796875 9.339844,3.257812 l -3.453125,3.753907 c -1.949219,-1.632813 -3.394531,-1.78125 -5.78125,-1.78125 -1.5,0 -2.28125,0.214843 -2.917969,0.648437 -0.636719,0.414063 -0.953125,0.957031 -0.953125,1.628906 0,0.605469 0.289063,1.105469 0.875,1.5 0.582031,0.417969 2.105469,1.039063 5.144531,1.867188 3.40625,0.929687 5.722657,2.0625 6.941407,3.390625 1.199218,1.328125 1.800781,3.097656 1.800781,5.304687 0,2.660157 -0.9375,4.851563 -2.808594,6.578125 -1.855469,1.726563 -4.136719,3.066407 -7.421875,3.066407 -4.230469,0 -9.875,-1.496094 -11.433594,-4.253907"
           id="path2485"
           style="fill:#008000;stroke-width:0.846667" />
        <path
           d="M 59.34375,40.105469 56.9375,45.386719 5.816406,22.351563 8.222656,17.070313 Z"
           id="path2487"
           style="fill:#008000;stroke-width:0.846667" />
        <path
           d="m 30.375,12.875 v 6.84375 h 3.25 V 12.875 Z m 0,32.09375 V 51.125 h 3.25 v -6.15625 z"
           id="path2489"
           style="fill:#008000;stroke-width:0.846667" />
      </g>
      <g
         id="g2513"
         transform="matrix(1.1072835,0,0,1.1072835,1246.6378,-97.20439)"
         style="fill:#008000;stroke-width:0.846667">
        <path
           style="opacity:1;fill:#008000;fill-opacity:1;fill-rule:nonzero;stroke:none;stroke-width:219.716;stroke-linecap:butt;stroke-linejoin:round;stroke-miterlimit:4;stroke-dasharray:none;stroke-dashoffset:0;stroke-opacity:1"
           d="M 31.1875,0 C 13.904525,0.43835438 0,14.612004 0,32 0,49.663996 14.336004,64 32,64 49.663996,64 64,49.663996 64,32 64,14.336004 49.663996,0 32,0 31.724,0 31.461833,-0.00695801 31.1875,0 Z M 31.15625,5.5 C 31.439783,5.49101 31.714297,5.5 32,5.5 46.628003,5.4999998 58.5,17.371998 58.5,32 58.499998,46.628001 46.628002,58.5 32,58.5 17.371999,58.499999 5.5,46.628002 5.5,32 5.4999999,17.657701 16.922915,5.9512829 31.15625,5.5 Z"
           id="path1334" />
        <path
           style="opacity:1;fill:#008000;fill-opacity:1;fill-rule:nonzero;stroke:none;stroke-width:219.716;stroke-linecap:butt;stroke-linejoin:round;stroke-miterlimit:4;stroke-dasharray:none;stroke-dashoffset:0;stroke-opacity:1"
           d="m 18.115779,26.784547 h -2.740778 l 6.21875,6.96875 6.21875,-6.96875 h -2.243852 c 0.486099,-3.3998 3.476871,-5.586425 6.931352,-5.3125 0.136556,0.01083 0.267854,0 0.40625,0 5.62743,0 7.84682,4.255865 8.03125,10.53125 0.19247,6.549199 -3.60349,10.620376 -8.03125,10.53125 -4.673386,-0.09221 -6.444049,-2.32751 -7.125,-5.71875 h -8.34375 c 1.373177,7.811231 7.123855,12.392036 15.28125,12.40625 9.23458,0.01625 15.906248,-7.709347 15.906248,-17.21875 0,-10.154893 -6.669368,-17.21875 -15.906248,-17.21875 -0.274244,0 -0.541652,-0.01489 -0.8125,0 -0.0656,0.0036 -0.12197,-0.0011 -0.1875,0 -5.772209,0.09597 -13.602929,4.139742 -13.602972,12 z"
           id="path2371"
           sodipodi:nodetypes="cccccssssccsssssc" />
      </g>
    </g>
  </g>
  <g
     inkscape:groupmode="layer"
     id="layer1"
     inkscape:label="Cut"
     style="display:inline"
     transform="translate(-3.999971,-4.0000015)"
     sodipodi:insensitive="true">
    <path
       style="display:inline;opacity:0.98;fill:none;fill-opacity:1;fill-rule:evenodd;stroke:#ff0000;stroke-width:1.16806px;stroke-linecap:butt;stroke-linejoin:miter;stroke-opacity:1"
       d="m 126.50053,345.316 -4.17264,8.76048 -7.508,-6.6753 -2.92017,10.01067 -8.76048,-8.76048 -0.83499,10.84794 -10.012948,-6.25781 0.41749,10.84565 -10.428173,-5.00533 2.085181,10.42816 -12.098132,-4.17035 5.005331,10.01068 -12.930833,-3.33765 5.840321,9.59546 -12.098131,-1.25019 6.6753,10.01067 -12.098132,-0.83498 8.342992,9.17797 -10.428162,1.25248 8.760482,7.09051 -10.847941,3.75514 9.177971,7.0928 c 0.389304,-0.10384 0.747982,-0.21888 1.10875,-0.33308 -4.717461,1.55717 -9.646739,1.25632 -14.457084,2.00076 l -0.191633,0.19848 c -1.801178,-2.4744 -4.675609,-3.94002 -7.736147,-3.94449 -5.293574,0.001 -9.584236,4.29276 -9.584049,9.58633 0.0035,3.38988 1.797663,6.52569 4.717882,8.24718 4.266389,21.1847 49.811338,47.54339 76.099835,34.35295 l -3.65248,6.20762 2.90648,-1.30722 c -0.55936,3.17015 -1.26164,6.12608 -4.99166,7.35743 -4.158376,1.37276 -9.176169,3.09641 -9.595458,7.92549 -0.784647,9.03713 7.153448,9.59534 11.680638,10.43046 3.94173,0.72712 12.26324,1.01271 17.93846,-7.7179 3.4377,-5.28848 3.74383,-9.07403 3.19621,-12.44947 l 3.0616,-4.23879 4.17264,8.34527 5.42282,-7.51029 3.75286,7.9255 5.42512,-8.76048 6.25552,7.51029 2.92016,-9.17798 5.00762,7.9255 5.42283,-7.9255 4.2388,5.65326 c -0.4673,0.62413 -1.08329,1.18604 -1.94373,1.64714 -3.31548,1.77676 -7.65624,1.12833 -9.80536,8.55288 -2.30543,7.96457 12.18711,11.98371 19.19094,10.01068 9.53273,-2.68545 12.67301,-12.00496 13.14072,-15.0183 0.75786,-4.8827 0.21605,-8.80276 -0.86236,-12.39242 l 0.65247,0.29429 -0.8327,-9.17569 7.9255,2.50267 -3.33765,-9.17797 8.76048,2.08517 -5.00534,-8.34299 10.84566,0.83499 -5.42283,-9.59547 10.84566,-0.83498 -7.50801,-7.09052 10.01067,-3.33765 -8.76048,-5.42283 10.84794,-4.59013 -10.01295,-3.75286 9.59546,-6.25781 -11.26315,-2.92016 9.17798,-6.67531 -11.26544,-0.83498 7.0928,-9.17797 H 202.0072 l 5.42283,-8.76048 -11.68064,0.41749 4.58785,-8.343 -10.84566,3.33765 3.33765,-10.42816 -10.84565,2.50267 1.25019,-9.59547 -10.01067,5.42283 -0.835,-10.84565 -7.92549,6.6753 -2.92016,-10.43045 -6.67531,7.51029 -3.75514,-10.01296 -6.67531,7.50801 -5.84032,-8.76048 -4.58784,8.34527 z m -66.748494,71.91807 c -0.112368,0.0439 -0.224969,0.0862 -0.337641,0.12777 0.117029,-0.0408 0.223673,-0.0859 0.337641,-0.12777 z"
       id="path4410"
       inkscape:connector-curvature="0"
       sodipodi:nodetypes="cccccccccccccccccccccccccccccccsssscccccccccccssssccccccccccccccccccccccccccccccccccccccccc"
       transform="translate(-22.222702,-340.25395)" />
  </g>
  <g
     inkscape:groupmode="layer"
     id="layer2"
     inkscape:label="Engrave"
     style="display:inline"
     transform="translate(-3.999971,-4.0000015)"
     sodipodi:insensitive="true">
    <g
       id="g940"
       style="display:inline"
       transform="translate(-22.222702,-340.25395)">
      <path
         sodipodi:nodetypes="ccccccccccccccccccccccccccccccc"
         inkscape:connector-curvature="0"
         id="path4412"
         d="m 191.16024,471.29913 -8.34332,-3.75449 -0.83432,9.59481 -7.09182,-7.92614 -3.33733,10.01198 -1.11396,-1.48529 m -45.5383,0.97108 -2.15614,3.0172 -1.66866,-10.01198 -7.50898,7.09182 -1.2515,-8.34332 -8.34332,3.75449 4.17166,-7.09181 -8.760485,-2.92016 7.926155,-5.84032 -10.011979,-1.2515 5.840319,-6.25749 -8.760479,-5.00599 9.177639,-4.17166 -8.343315,-3.33732 7.091825,-6.67466 -10.429148,-3.33732 8.343318,-4.17166 -10.011979,-2.08583 5.840321,-8.34331 -10.846305,2.92016 0.417162,-9.17765 -8.760481,5.00599 v -9.17765 l -6.257484,2.92016 c -2.868707,4.41791 -4.26834,9.37004 -12.932141,11.68065"
         style="display:inline;opacity:0.9604;fill:none;fill-rule:evenodd;stroke:#0000ff;stroke-width:1.16806px;stroke-linecap:butt;stroke-linejoin:miter;stroke-opacity:1" />
      <path
         style="display:inline;opacity:0.9604;fill:none;stroke:#0000ff;stroke-width:0.845379;stroke-miterlimit:4;stroke-dasharray:none"
         d="m 44.092185,419.7007 c 1.184685,1.59498 1.885559,3.57074 1.885559,5.71019 0,5.2942 -4.291807,9.586 -9.586011,9.586 -1.816422,0 -3.514857,-0.50522 -4.962427,-1.38279"
         id="path4414"
         inkscape:connector-curvature="0"
         sodipodi:nodetypes="cssc" />
      <circle
         r="7.5089841"
         cy="431.66837"
         cx="77.273964"
         id="circle4416"
         style="display:inline;opacity:0.9604;fill:none;stroke:#0000ff;stroke-width:0.827762;stroke-miterlimit:4;stroke-dasharray:none" />
    </g>
  </g>
</svg>
