<?xml version="1.0" encoding="UTF-8" standalone="no"?>
<svg
   xmlns:dc="http://purl.org/dc/elements/1.1/"
   xmlns:cc="http://creativecommons.org/ns#"
   xmlns:rdf="http://www.w3.org/1999/02/22-rdf-syntax-ns#"
   xmlns:svg="http://www.w3.org/2000/svg"
   xmlns="http://www.w3.org/2000/svg"
   xmlns:xlink="http://www.w3.org/1999/xlink"
   xmlns:sodipodi="http://sodipodi.sourceforge.net/DTD/sodipodi-0.dtd"
   xmlns:inkscape="http://www.inkscape.org/namespaces/inkscape"
   width="166.04022mm"
   height="195mm"
   viewBox="0 0 166.04022 195"
   version="1.1"
   id="svg8"
   inkscape:version="1.0.1 (1.0.1+r75)"
   sodipodi:docname="chase_mask.svg">
  <defs
     id="defs2">
    <rect
       x="723.35223"
       y="52.573097"
       width="825.46857"
       height="222.91702"
       id="rect2356" />
  </defs>
  <sodipodi:namedview
     id="base"
     pagecolor="#ffffff"
     bordercolor="#666666"
     borderopacity="1.0"
     inkscape:pageopacity="0.0"
     inkscape:pageshadow="2"
     inkscape:zoom="0.98994949"
     inkscape:cx="438.70945"
     inkscape:cy="415.8934"
     inkscape:document-units="mm"
     inkscape:current-layer="layer2"
     inkscape:document-rotation="0"
     showgrid="false"
     inkscape:snap-global="false"
     inkscape:window-width="1864"
     inkscape:window-height="1016"
     inkscape:window-x="1976"
     inkscape:window-y="27"
     inkscape:window-maximized="1"
     fit-margin-top="0"
     fit-margin-left="0"
     fit-margin-right="0"
     fit-margin-bottom="0" />
  <metadata
     id="metadata5">
    <rdf:RDF>
      <cc:Work
         rdf:about="">
        <dc:format>image/svg+xml</dc:format>
        <dc:type
           rdf:resource="http://purl.org/dc/dcmitype/StillImage" />
        <dc:title></dc:title>
      </cc:Work>
    </rdf:RDF>
  </metadata>
  <g
     inkscape:groupmode="layer"
     id="layer5"
     inkscape:label="License"
     sodipodi:insensitive="true">
    <text
       xml:space="preserve"
       id="text2354"
       style="font-style:normal;font-variant:normal;font-weight:normal;font-stretch:normal;font-size:17.5px;line-height:125%;font-family:sans-serif;-inkscape-font-specification:sans-serif;text-align:start;writing-mode:lr-tb;white-space:pre;shape-inside:url(#rect2356);display:inline;fill:#008000;stroke:none;stroke-width:1.77165;stroke-linecap:round;stroke-linejoin:round;stroke-dashoffset:0.354331;"
       x="-15.83374"
       y="0"
       transform="matrix(0.28222223,0,0,0.28222223,-36.007532,8.7581282)"><tspan
         x="723.35156"
         y="68.055664"><tspan
           style="shape-inside:url(#rect2356);display:inline">This file is published under the
</tspan></tspan><tspan
         x="723.35156"
         y="89.930664"><tspan
           style="font-style:normal;font-variant:normal;font-weight:bold;font-stretch:normal;font-family:sans-serif;-inkscape-font-specification:'sans-serif Bold';fill:#008000;stroke:none">Attribution-NonCommercial-ShareAlike 4.0 International (CC BY-NC-SA 4.0)</tspan><tspan
           style="shape-inside:url(#rect2356);display:inline"> license.
</tspan></tspan><tspan
         x="723.35156"
         y="111.80566"><tspan
           style="shape-inside:url(#rect2356);display:inline">https://creativecommons.org/licenses/by-nc-sa/4.0/
</tspan></tspan><tspan
         x="723.35156"
         y="133.68066"><tspan
           style="font-style:italic;font-variant:normal;font-weight:bold;font-stretch:normal;font-family:sans-serif;-inkscape-font-specification:'sans-serif Bold Italic'">
</tspan></tspan><tspan
         x="723.35156"
         y="155.55566"><tspan
           style="font-style:normal;font-weight:normal">This clipart was created by hand tracing a bitmap image of the PAW Patrol masks. The image </tspan></tspan><tspan
         x="723.35156"
         y="177.43066"><tspan
           style="font-style:normal;font-weight:normal">is available at:
</tspan></tspan><tspan
         x="723.35156"
         y="199.30566"><tspan
           style="font-style:normal;font-weight:normal">https://www.firlefantastisch.de/media/image/f2/bc/66/PawPatrolMasken1.jpg
</tspan></tspan><tspan
         x="723.35156"
         y="221.18066"><tspan
           style="font-style:normal;font-weight:normal">Please be aware that PAW Patrol and the characters are probably protected by trademarks!</tspan></tspan></text>
    <g
       id="g2531"
       transform="matrix(0.28222223,0,0,0.28222223,-112.34676,27.330503)"
       style="fill:#008000">
      <g
         id="g2462"
         transform="matrix(1.1196698,0,0,1.1196698,992.51148,-97.603024)"
         style="fill:#008000;stroke-width:0.8373">
        <path
           d="M 31.957,0.311 C 23.275,0.311 15.635,3.524 9.731,9.514 3.653,15.678 0.354,23.666 0.354,32 c 0,8.422 3.212,16.236 9.29,22.313 6.078,6.078 13.978,9.377 22.313,9.377 8.334,0 16.409,-3.299 22.66,-9.463 C 60.521,48.41 63.646,40.683 63.646,32 63.646,23.405 60.521,15.592 54.53,9.601 48.453,3.523 40.639,0.311 31.957,0.311 Z m 0.086,5.73 c 7.12,0 13.458,2.691 18.406,7.641 4.862,4.861 7.466,11.286 7.466,18.318 0,7.119 -2.518,13.371 -7.379,18.146 -5.123,5.035 -11.721,7.727 -18.493,7.727 -6.858,0 -13.283,-2.691 -18.232,-7.641 C 8.862,45.283 6.084,38.772 6.084,32 6.084,25.142 8.862,18.631 13.811,13.594 18.673,8.646 24.924,6.041 32.043,6.041 Z"
           id="path2446"
           style="fill:#008000;stroke-width:0.8373" />
        <path
           id="c"
           d="m 31.635,26.734 c -1.79,-3.264 -4.844,-4.563 -8.389,-4.563 -5.16,0 -9.267,3.65 -9.267,9.828 0,6.283 3.861,9.829 9.442,9.829 3.581,0 6.635,-1.966 8.319,-4.949 l -3.931,-2.001 c -0.878,2.105 -2.212,2.738 -3.896,2.738 -2.914,0 -4.248,-2.422 -4.248,-5.617 0,-3.193 1.124,-5.616 4.248,-5.616 0.842,0 2.527,0.456 3.51,2.563 z"
           style="fill:#008000;stroke-width:0.8373" />
        <use
           xlink:href="#c"
           transform="translate(18.281)"
           id="use2449"
           x="0"
           y="0"
           width="100%"
           height="100%"
           style="fill:#008000;stroke-width:0.8373" />
      </g>
      <g
         id="surface1"
         transform="matrix(1.1072835,0,0,1.1072835,1077.4845,-97.20418)"
         style="fill:#008000;stroke-width:1.12889">
        <path
           d="M 31.1875,0 C 13.90625,0.4375 0,14.613281 0,32 0,49.664063 14.335938,64 32,64 49.664063,64 64,49.664063 64,32 64,14.335938 49.664063,0 32,0 31.722656,0 31.460938,-0.0078125 31.1875,0 Z M 31.15625,5.5 C 31.441406,5.492188 31.714844,5.5 32,5.5 46.628906,5.5 58.5,17.371094 58.5,32 58.5,46.628906 46.628906,58.5 32,58.5 17.371094,58.5 5.5,46.628906 5.5,32 5.5,17.65625 16.921875,5.953125 31.15625,5.5 Z"
           id="path2464"
           style="fill:#008000;stroke-width:1.12889" />
        <path
           d="m 36.625,15.9375 c 0,2.550781 -2.070312,4.625 -4.625,4.625 -2.554687,0 -4.625,-2.074219 -4.625,-4.625 0,-2.554687 2.070313,-4.625 4.625,-4.625 2.554688,0 4.625,2.070313 4.625,4.625 z"
           id="path2466"
           style="fill:#008000;stroke-width:1.12889" />
        <path
           d="m 27.214844,52.6875 h 9.570312 v -15.375 h 2.894532 c 0,0 -0.0039,-10.992187 0,-12.722656 -0.0039,-0.457031 0.03906,-1.363281 -0.621094,-2.027344 C 38.394531,21.902344 37.5,21.941406 37.03125,21.941406 c -0.472656,0.0039 -9.589844,0.0039 -10.0625,0 -0.46875,0 -1.363281,-0.03906 -2.027344,0.621094 -0.660156,0.664063 -0.617187,1.570313 -0.621093,2.027344 0.0039,1.730469 0,12.722656 0,12.722656 h 2.894531 z"
           id="path2468"
           style="fill:#008000;stroke-width:1.12889" />
      </g>
      <g
         id="surface1-4"
         transform="matrix(1.1072835,0,0,1.1072835,1162.0611,-97.20418)"
         style="fill:#008000;stroke-width:0.846667">
        <path
           d="M 31.1875,0 C 13.90625,0.4375 0,14.613281 0,32 0,49.664063 14.335938,64 32,64 49.664063,64 64,49.664063 64,32 64,14.335938 49.664063,0 32,0 31.722656,0 31.460938,-0.0078125 31.1875,0 Z M 31.15625,5.5 C 31.441406,5.492188 31.714844,5.5 32,5.5 46.628906,5.5 58.5,17.371094 58.5,32 58.5,46.628906 46.628906,58.5 32,58.5 17.371094,58.5 5.5,46.628906 5.5,32 5.5,17.65625 16.921875,5.953125 31.15625,5.5 Z"
           id="path2483"
           style="fill:#008000;stroke-width:0.846667" />
        <path
           d="m 25.644531,38.742188 c 2.0625,2.882812 8.351563,3.089843 10.511719,1.871093 0.792969,-0.449218 0.988281,-1.75 0.988281,-2.628906 0,-0.605469 -0.15625,-1.078125 -0.476562,-1.425781 -0.335938,-0.34375 -1.1875,-1.21875 -2.175781,-1.476563 C 29.472656,33.785156 26,32.167969 24.636719,30.996094 c -1.695313,-1.46875 -1.96875,-2.425781 -1.96875,-4.980469 0,-2.554687 0.734375,-4.695312 2.394531,-6.230469 1.660156,-1.535156 4.074219,-2.304687 7.234375,-2.304687 3.019531,0 7.269531,0.796875 9.339844,3.257812 l -3.453125,3.753907 c -1.949219,-1.632813 -3.394531,-1.78125 -5.78125,-1.78125 -1.5,0 -2.28125,0.214843 -2.917969,0.648437 -0.636719,0.414063 -0.953125,0.957031 -0.953125,1.628906 0,0.605469 0.289063,1.105469 0.875,1.5 0.582031,0.417969 2.105469,1.039063 5.144531,1.867188 3.40625,0.929687 5.722657,2.0625 6.941407,3.390625 1.199218,1.328125 1.800781,3.097656 1.800781,5.304687 0,2.660157 -0.9375,4.851563 -2.808594,6.578125 -1.855469,1.726563 -4.136719,3.066407 -7.421875,3.066407 -4.230469,0 -9.875,-1.496094 -11.433594,-4.253907"
           id="path2485"
           style="fill:#008000;stroke-width:0.846667" />
        <path
           d="M 59.34375,40.105469 56.9375,45.386719 5.816406,22.351563 8.222656,17.070313 Z"
           id="path2487"
           style="fill:#008000;stroke-width:0.846667" />
        <path
           d="m 30.375,12.875 v 6.84375 h 3.25 V 12.875 Z m 0,32.09375 V 51.125 h 3.25 v -6.15625 z"
           id="path2489"
           style="fill:#008000;stroke-width:0.846667" />
      </g>
      <g
         id="g2513"
         transform="matrix(1.1072835,0,0,1.1072835,1246.6378,-97.20439)"
         style="fill:#008000;stroke-width:0.846667">
        <path
           style="opacity:1;fill:#008000;fill-opacity:1;fill-rule:nonzero;stroke:none;stroke-width:219.716;stroke-linecap:butt;stroke-linejoin:round;stroke-miterlimit:4;stroke-dasharray:none;stroke-dashoffset:0;stroke-opacity:1"
           d="M 31.1875,0 C 13.904525,0.43835438 0,14.612004 0,32 0,49.663996 14.336004,64 32,64 49.663996,64 64,49.663996 64,32 64,14.336004 49.663996,0 32,0 31.724,0 31.461833,-0.00695801 31.1875,0 Z M 31.15625,5.5 C 31.439783,5.49101 31.714297,5.5 32,5.5 46.628003,5.4999998 58.5,17.371998 58.5,32 58.499998,46.628001 46.628002,58.5 32,58.5 17.371999,58.499999 5.5,46.628002 5.5,32 5.4999999,17.657701 16.922915,5.9512829 31.15625,5.5 Z"
           id="path1334" />
        <path
           style="opacity:1;fill:#008000;fill-opacity:1;fill-rule:nonzero;stroke:none;stroke-width:219.716;stroke-linecap:butt;stroke-linejoin:round;stroke-miterlimit:4;stroke-dasharray:none;stroke-dashoffset:0;stroke-opacity:1"
           d="m 18.115779,26.784547 h -2.740778 l 6.21875,6.96875 6.21875,-6.96875 h -2.243852 c 0.486099,-3.3998 3.476871,-5.586425 6.931352,-5.3125 0.136556,0.01083 0.267854,0 0.40625,0 5.62743,0 7.84682,4.255865 8.03125,10.53125 0.19247,6.549199 -3.60349,10.620376 -8.03125,10.53125 -4.673386,-0.09221 -6.444049,-2.32751 -7.125,-5.71875 h -8.34375 c 1.373177,7.811231 7.123855,12.392036 15.28125,12.40625 9.23458,0.01625 15.906248,-7.709347 15.906248,-17.21875 0,-10.154893 -6.669368,-17.21875 -15.906248,-17.21875 -0.274244,0 -0.541652,-0.01489 -0.8125,0 -0.0656,0.0036 -0.12197,-0.0011 -0.1875,0 -5.772209,0.09597 -13.602929,4.139742 -13.602972,12 z"
           id="path2371"
           sodipodi:nodetypes="cccccssssccsssssc" />
      </g>
    </g>
  </g>
  <g
     inkscape:groupmode="layer"
     id="layer3"
     inkscape:label="Cut"
     style="display:inline"
     transform="translate(1.2846092,-11.423301)">
    <path
       style="fill:none;fill-opacity:0.698039;stroke:#ff0000;stroke-width:0.200001;stroke-linecap:round;stroke-linejoin:round;stroke-dashoffset:0.377953"
       d="M 0.85653426,18.350805 C 1.5895062,13.06979 5.2505554,15.267182 7.5821457,18.202985 c 4.5069743,5.67492 9.7211393,12.115099 14.1795503,17.119464 0.904548,1.015314 1.356081,1.473741 3.015282,-0.166722 35.366614,-34.96722455 89.317672,-27.9157385 113.240052,0.230817 2.80544,3.300827 3.11489,2.275541 5.11702,0.08562 5.30738,-5.80521 13.11723,-14.185942 14.37035,-15.820602 2.03025,-2.648436 4.9268,-3.751719 5.54479,1.107865 4.17724,32.847736 -0.49854,56.473779 -5.9708,68.492991 -5.492,12.062512 -9.20614,11.432922 -13.08924,14.576132 l -0.87727,18.49664 c -0.84058,17.72306 3.45378,19.75766 4.05698,29.86552 0.66714,11.17899 -4.46171,20.37077 -12.27472,25.53898 -5.34772,3.53743 -21.84761,9.93782 -28.80186,19.0355 -4.86257,6.3613 -12.194039,9.95589 -26.152284,9.52314 -12.769231,-0.3959 -26.243683,-3.65575 -28.65825,-10.43964 -2.598887,-7.30174 -13.736518,-10.42125 -21.290453,-14.53868 -9.598635,-5.23194 -22.0213394,-18.02648 -19.292094,-33.72022 1.435592,-8.25496 6.285865,-22.50104 3.894196,-39.4981 -0.402854,-2.86299 -0.08084,-5.89331 0.430483,-8.662883 C 9.9167683,95.470644 4.5088955,86.779252 2.5059823,78.968263 -2.4554091,59.619759 -1.7913571,37.428688 0.85653426,18.350805 Z"
       id="path917"
       sodipodi:nodetypes="ssssssssscssssssssscss" />
    <ellipse
       style="fill:none;fill-opacity:0.698039;stroke:#ff0000;stroke-width:0.200001;stroke-linecap:round;stroke-linejoin:round;stroke-dashoffset:0.377953"
       id="path979"
       cx="49.234798"
       cy="120.80435"
       rx="12.4"
       ry="12.399367" />
    <ellipse
       style="fill:none;fill-opacity:0.698039;stroke:#ff0000;stroke-width:0.200001;stroke-linecap:round;stroke-linejoin:round;stroke-dashoffset:0.377953"
       id="ellipse4053"
       cx="113.23384"
       cy="120.80435"
       rx="12.4"
       ry="12.399367" />
  </g>
  <g
     inkscape:groupmode="layer"
     id="layer2"
     inkscape:label="Engrave"
     style="display:inline"
     transform="translate(1.2846092,-11.423301)">
    <path
       style="fill:none;fill-opacity:0.698039;stroke:#0000ff;stroke-width:0.200001;stroke-linecap:round;stroke-linejoin:round;stroke-dashoffset:0.377953"
       d="m 12.23545,142.24927 c -0.556875,-0.98572 7.662157,-8.86395 13.913758,-6.72131 -1.123073,-3.73436 -6.039138,-13.77087 -4.404702,-25.77089 0.220795,-1.62109 -0.249383,-2.27281 -0.715952,-0.0872 -0.448072,2.09897 -2.330341,7.60527 -1.904426,1.27014 0.327938,-4.87778 3.272895,-10.90727 4.690869,-13.85303 -1.117787,1.024665 -1.932327,2.417511 -2.895225,3.62887 -1.188235,1.49483 -1.222486,-0.37689 -0.557381,-1.702539 1.24319,-2.477861 2.778278,-4.577348 4.681218,-7.242666 13.849148,-7.873572 25.160039,-10.14292 37.634362,-10.796846 7.822958,3.041188 9.493919,6.960618 12.501629,10.638308 0.809915,0.990328 1.824228,4.213347 -0.717558,1.663362 -0.990703,-0.993896 -0.719976,-1.372333 -2.140676,-2.251387 1.585724,4.117671 4.549438,7.756319 5.306251,15.841678 0.03883,0.4149 0.416246,3.02459 -0.890779,0.87718 -0.651996,-1.07121 -0.967935,-1.08958 -0.710669,0.83845 0.315934,2.36771 1.218009,5.84848 0.696363,8.82803 -0.287258,1.64077 -0.95542,1.28423 -1.249697,-0.31744 -0.168489,-0.91703 -1.153599,-3.53394 -0.990438,-2.61594 1.155693,6.5023 -1.31317,14.30998 -2.503047,16.71275"
       id="path919"
       sodipodi:nodetypes="ccssscssccsscssssssc" />
    <path
       style="fill:none;fill-opacity:0.698039;stroke:#0000ff;stroke-width:0.200001;stroke-linecap:round;stroke-linejoin:round;stroke-dashoffset:0.377953"
       d="m 144.65547,142.0562 c 0.35588,-0.22522 -3.71949,-5.58273 -9.53278,-5.30169 0.91618,-3.70239 3.78541,-9.15937 3.47214,-21.36358 -0.0419,-1.63551 0.24938,-2.27281 0.71595,-0.0872 0.44807,2.09897 1.90393,6.24678 1.47801,-0.0884 -0.32794,-4.87778 -1.53992,-12.06928 -2.95789,-15.01505 1.11779,1.02467 0.73841,0.86127 1.70131,2.07263 1.18824,1.49483 0.57113,-0.21948 0.55738,-1.70254 -0.0243,-2.628851 -1.95722,-4.908051 -3.8613,-7.573228 -13.84915,-7.873572 -22.48945,-9.420883 -34.88835,-11.722844 -7.822957,3.041187 -10.488351,6.531893 -12.525455,10.413453 -0.620913,1.183105 -1.542626,5.176245 1.264466,1.985936 0.927002,-1.053553 1.082601,-0.993346 2.503301,-1.872399 -1.585724,4.117671 -4.941408,7.012225 -5.698079,15.097592 -0.03882,0.41486 0.133495,2.12512 0.974492,0.48491 2.894907,-5.64597 1.113658,-1.20651 0.626956,1.23072 -0.467773,2.34246 -1.670275,6.20679 -1.265234,9.20442 0.184656,1.3666 0.270118,1.33912 0.765778,0.27558 0.393863,-0.84512 0.789345,-1.48221 0.626185,-0.56422 -1.155694,6.5023 1.609341,11.26731 2.799218,13.67008"
       id="path921"
       sodipodi:nodetypes="ccssscssccsscssssssc" />
    <path
       style="fill:none;fill-opacity:0.698039;stroke:#0000ff;stroke-width:0.200001;stroke-linecap:round;stroke-linejoin:round;stroke-dashoffset:0.377953"
       d="m 8.0323498,30.64225 c 4.3362342,7.285604 9.4302952,14.010548 13.3749142,21.672056 0,0 1.815001,2.924116 2.199945,4.416795 1.177944,4.567669 3.551146,13.480791 3.551146,13.480791 -1.256788,0.547816 -0.729441,4.640257 0.627799,4.47138 -4.257542,5.171905 -6.937956,6.439658 -10.555429,9.808113 l -0.733274,0.602952 C 12.878487,80.795931 7.520904,75.625286 6.5797545,68.804036 6.3754785,67.323487 5.6685601,65.761476 5.9015981,64.285181 6.4843621,60.593371 6.7227828,56.087526 7.2845787,53.053338 6.1166593,54.509801 5.4187931,55.514146 4.7242097,57.043421 4.0288504,58.440945 3.4857226,58.912187 3.4085211,56.548409 3.608322,47.435362 4.4241453,38.541664 8.0323498,30.64225 Z"
       id="path923"
       sodipodi:nodetypes="cssccccsscccc" />
    <path
       style="fill:none;fill-opacity:0.698039;stroke:#0000ff;stroke-width:0.200001;stroke-linecap:round;stroke-linejoin:round;stroke-dashoffset:0.377953"
       d="m 155.51195,31.23565 c -4.29802,9.095691 -9.61488,15.463306 -13.56934,22.658645 0,0 -1.815,2.924116 -2.19995,4.416794 -1.17794,4.567669 -4.517,12.480876 -4.517,12.480876 1.25679,0.547816 0.72944,4.640256 -0.6278,4.471379 3.79251,5.361178 3.83497,6.04711 8.12279,9.14273 0.82228,0.730656 0.46576,1.897184 0.39571,3.216445 2.47261,-0.990179 10.23811,-8.413812 13.04394,-16.220671 0.5055,-1.406501 1.52101,-4.060383 1.28797,-5.536679 -0.58277,-3.69181 -0.73541,-6.899486 -1.2972,-9.933675 1.16792,1.456464 1.62575,1.500745 2.4746,2.691915 0.90589,1.271212 1.16388,0.93901 1.24107,-1.424769 -0.1998,-9.113046 -0.74659,-18.063575 -4.35479,-25.96299 z"
       id="path925"
       sodipodi:nodetypes="cssccccsscscc" />
    <path
       style="fill:none;fill-opacity:0.698039;stroke:#0000ff;stroke-width:0.200001;stroke-linecap:round;stroke-linejoin:round;stroke-dashoffset:0.377953"
       d="m 138.50993,35.947288 c 9.05674,12.056182 1.54589,16.101852 0.93486,23.483616"
       id="path927"
       sodipodi:nodetypes="cc" />
    <path
       style="fill:none;fill-opacity:0.698039;stroke:#0000ff;stroke-width:0.200001;stroke-linecap:round;stroke-linejoin:round;stroke-dashoffset:0.377953"
       d="M 24.980019,34.972562 C 15.990285,45.156017 22.953123,49.623936 23.901936,57.855757"
       id="path929"
       sodipodi:nodetypes="cc" />
    <path
       style="fill:none;fill-opacity:0.698039;stroke:#0000ff;stroke-width:0.200001;stroke-linecap:round;stroke-linejoin:round;stroke-dashoffset:0.377953"
       d="m 135.66769,92.780148 c 1.80858,0.54668 1.99141,1.484281 4.81361,-0.511026 1.48469,-1.284693 1.8592,-2.665241 2.2544,-4.044002 0.65789,-1.769595 0.25629,-2.803457 -2.20132,-3.709539 -18.04722,-6.653733 -36.13404,-13.549517 -58.784786,-12.995877 -26.836822,0.655959 -45.447425,4.974637 -61.694588,11.340834 -0.888184,0.348021 -3.562907,1.440756 -3.167307,3.620895 0.894845,2.11604 1.376063,4.326064 3.856485,6.081835 1.857679,1.515108 3.106927,-0.247358 4.838764,-1.087855"
       id="path931"
       sodipodi:nodetypes="cccsssccc" />
    <path
       style="fill:none;fill-opacity:0.698039;stroke:#0000ff;stroke-width:0.200001;stroke-linecap:round;stroke-linejoin:round;stroke-dashoffset:0.377953"
       d="M 27.371295,70.039642 C 74.209203,49.963552 117.5546,62.489832 135.08688,71.045708"
       id="path933"
       sodipodi:nodetypes="cc" />
    <path
       style="fill:none;fill-opacity:0.698039;stroke:#0000ff;stroke-width:0.200001;stroke-linecap:round;stroke-linejoin:round;stroke-dashoffset:0.377953"
       d="M 134.50218,75.225921 C 100.28038,63.895178 64.745203,62.534041 27.880832,74.636384"
       id="path935"
       sodipodi:nodetypes="cc" />
    <path
       style="fill:none;fill-opacity:0.698039;stroke:#0000ff;stroke-width:0.200001;stroke-linecap:round;stroke-linejoin:round;stroke-dashoffset:0.377953"
       d="M 62.897526,80.960244 C 77.22763,79.557826 88.897055,79.65107 101.44458,81.279092"
       id="path937"
       sodipodi:nodetypes="cc" />
    <g
       id="g957"
       transform="matrix(1.2943506,0,0,1.2942843,-0.19834766,15.963312)"
       style="stroke:#0000ff;stroke-width:0.772608">
      <path
         style="fill:none;fill-opacity:0.698039;stroke:#0000ff;stroke-width:0.154522;stroke-linecap:round;stroke-linejoin:round;stroke-dashoffset:0.377953"
         d="M 49.393339,6.9305068 C 53.763844,6.7998875 52.811462,5.6637664 52.78105,4.024691 52.636605,3.6351527 52.624433,3.3605408 53.462435,3.0092546 c 6.350376,-2.66204473 12.924454,-2.55785418 19.923718,0.094268 0.625567,0.1718282 0.799672,0.4518481 0.664957,0.8960909 -0.77317,3.0606495 2.714392,2.916175 3.240817,3.0226495 0.636001,17.73058 -8.883079,22.497027 -13.453303,25.450356 -0.219197,0.141647 -0.465764,0.123902 -0.87184,-0.0566 C 50.741514,26.981849 49.007382,15.163127 49.393339,6.9305068 Z"
         id="path939"
         sodipodi:nodetypes="ccscccssc" />
      <path
         style="fill:none;fill-opacity:0.698039;stroke:#0000ff;stroke-width:0.154522;stroke-linecap:round;stroke-linejoin:round;stroke-dashoffset:0.377953"
         d="m 51.866338,8.6826074 c 3.012227,-0.27181 2.811503,-1.3747977 3.100622,-2.6347821 -0.118821,-0.3204907 -0.128834,-0.5464264 0.56051,-0.8354454 5.223849,-2.1901845 10.033736,-2.0626647 15.791363,0.1193562 0.514594,0.1413708 0.657814,0.3717558 0.546996,0.7372544 -0.636013,2.5181348 2.516976,2.6015075 2.950015,2.6891088 0.523178,14.5877497 -7.307261,18.5093217 -11.066748,20.9391587 -0.180313,0.116539 -0.38314,0.10194 -0.71718,-0.04657 C 52.975353,25.179753 51.548848,15.455956 51.866338,8.6826074 Z"
         id="path941"
         sodipodi:nodetypes="ccscccssc" />
      <path
         style="fill:none;fill-opacity:0.698039;stroke:#0000ff;stroke-width:0.154522;stroke-linecap:round;stroke-linejoin:round;stroke-dashoffset:0.377953"
         d="m 63.004189,24.161495 c 1.371193,-0.646817 2.660696,-1.144069 4.043976,-0.812206 1.563418,0.37508 3.67178,-1.667449 3.168657,-3.437077 -0.781578,-2.749033 -3.616091,-5.73216 -6.448358,-5.349661 -2.583462,0.348898 -4.567862,4.061516 -4.813515,6.498144 -0.224974,2.231517 2.121875,4.009973 4.04924,3.1008 z"
         id="path943"
         sodipodi:nodetypes="ssssss" />
      <path
         style="fill:none;fill-opacity:0.698039;stroke:#0000ff;stroke-width:0.154522;stroke-linecap:round;stroke-linejoin:round;stroke-dashoffset:0.377953"
         d="m 53.81722,13.387283 c 0.122189,-1.685141 1.944194,-2.717721 3.63061,-2.051947 1.005293,0.396876 1.755042,1.400778 2.191766,2.389413 0.649848,1.471095 -0.33657,3.203708 -1.947492,3.256137 -1.967613,0.06404 -4.004428,-1.807029 -3.874884,-3.593603 z"
         id="path945"
         sodipodi:nodetypes="sssss" />
      <path
         style="fill:none;fill-opacity:0.698039;stroke:#0000ff;stroke-width:0.154522;stroke-linecap:round;stroke-linejoin:round;stroke-dashoffset:0.377953"
         d="m 60.70325,6.8338589 c 1.333719,-1.3064986 3.29056,-1.2005909 4.262111,0.549708 0.524536,0.9449793 0.548144,2.9372641 0.325488,3.9948801 -0.363041,1.724446 -2.768198,2.282478 -4.091962,1.248864 C 59.615475,11.39096 59.26777,8.2400414 60.70325,6.8338589 Z"
         id="path947"
         sodipodi:nodetypes="sssss" />
      <path
         style="fill:none;fill-opacity:0.698039;stroke:#0000ff;stroke-width:0.154522;stroke-linecap:round;stroke-linejoin:round;stroke-dashoffset:0.377953"
         d="M 72.382946,10.984924 C 72.260757,9.2997834 70.733723,8.4453321 69.047307,9.1111061 c -1.005293,0.396876 -2.009983,1.6665369 -2.182215,2.7335249 -0.232705,1.441622 0.327019,2.859596 1.937941,2.912025 1.967613,0.06404 3.709457,-1.985158 3.579913,-3.771732 z"
         id="path949"
         sodipodi:nodetypes="sssss" />
    </g>
    <path
       style="fill:none;fill-opacity:0.698039;stroke:#0000ff;stroke-width:0.200001;stroke-linecap:round;stroke-linejoin:round;stroke-dashoffset:0.377953"
       d="m 65.158006,137.61158 c -2.042137,1.39928 -2.533268,4.31145 -1.900496,6.70467 1.744234,6.59691 8.217147,12.06055 14.58256,14.5196 2.877652,1.11168 6.600198,2.31398 9.23369,0.70734 5.120098,-3.12366 10.204116,-7.94222 13.09551,-13.35305 1.37608,-2.57515 0.98708,-6.99548 -1.989781,-8.79497 -7.15058,-4.32248 -23.886897,-6.04261 -33.021483,0.21641 z"
       id="path993"
       sodipodi:nodetypes="sssssss" />
    <path
       style="fill:none;fill-opacity:0.698039;stroke:#0000ff;stroke-width:0.200001;stroke-linecap:round;stroke-linejoin:round;stroke-dashoffset:0.377953"
       d="m 52.266414,140.53164 c 2.45142,0.14906 5.101708,-1.96826 7.272827,-3.31385 17.477572,-10.83206 35.080493,-7.50913 50.075519,3.19162"
       id="path995"
       sodipodi:nodetypes="csc" />
    <ellipse
       style="fill:none;fill-opacity:0.698039;stroke:#0000ff;stroke-width:0.200001;stroke-linecap:round;stroke-linejoin:round;stroke-dashoffset:0.377953"
       id="path997"
       cx="52.17664"
       cy="148.68547"
       rx="0.78943574"
       ry="0.94923019" />
    <ellipse
       style="fill:none;fill-opacity:0.698039;stroke:#0000ff;stroke-width:0.200001;stroke-linecap:round;stroke-linejoin:round;stroke-dashoffset:0.377953"
       id="ellipse999"
       cx="49.089725"
       cy="158.65601"
       rx="0.78943574"
       ry="0.94923019" />
    <ellipse
       style="fill:none;fill-opacity:0.698039;stroke:#0000ff;stroke-width:0.200001;stroke-linecap:round;stroke-linejoin:round;stroke-dashoffset:0.377953"
       id="ellipse1001"
       cx="57.758812"
       cy="155.48509"
       rx="0.78943574"
       ry="0.94923019" />
    <ellipse
       style="fill:none;fill-opacity:0.698039;stroke:#0000ff;stroke-width:0.200001;stroke-linecap:round;stroke-linejoin:round;stroke-dashoffset:0.377953"
       id="ellipse1003"
       cx="109.48967"
       cy="150.38696"
       rx="0.78943574"
       ry="0.94923019" />
    <ellipse
       style="fill:none;fill-opacity:0.698039;stroke:#0000ff;stroke-width:0.200001;stroke-linecap:round;stroke-linejoin:round;stroke-dashoffset:0.377953"
       id="ellipse1005"
       cx="108.11719"
       cy="160.31796"
       rx="0.78943574"
       ry="0.94923019" />
    <ellipse
       style="fill:none;fill-opacity:0.698039;stroke:#0000ff;stroke-width:0.200001;stroke-linecap:round;stroke-linejoin:round;stroke-dashoffset:0.377953"
       id="ellipse1007"
       cx="102.8777"
       cy="157.15907"
       rx="0.78943574"
       ry="0.94923019" />
    <path
       style="fill:none;fill-opacity:0.698039;stroke:#0000ff;stroke-width:0.200001;stroke-linecap:round;stroke-linejoin:round;stroke-dashoffset:0.377953"
       d="m 127.7443,137.20922 c 0.0888,-0.11624 -4.48233,-2.75573 -8.02572,-2.42583 -6.0219,0.56066 -11.37602,0.15231 -16.10183,0.45152 -1.18968,0.0753 -2.18366,-0.76311 -3.25303,-1.69849 -4.256185,-3.72292 -4.595768,-15.51632 -1.884624,-21.77264 2.955734,-6.82074 11.012914,-12.216181 18.344034,-11.64098 6.4127,0.50314 13.69433,6.32311 14.44928,15.02307 0.61908,7.13401 -4.64888,18.65053 -6.20197,20.19345"
       id="path1009"
       sodipodi:nodetypes="cssssssc" />
    <path
       style="fill:none;fill-opacity:0.698039;stroke:#0000ff;stroke-width:0.200001;stroke-linecap:round;stroke-linejoin:round;stroke-dashoffset:0.377953"
       d="m 32.023299,135.5943 c 1.541733,-1.19437 5.60638,-1.73753 9.149764,-1.40763 6.021902,0.56066 11.76,0.58412 16.48581,0.88333 1.189679,0.0753 2.064897,-0.91948 3.253026,-1.69849 7.299629,-4.78607 5.633604,-17.2611 2.913458,-23.53269 -3.329982,-7.67764 -12.023096,-12.300108 -19.476038,-11.280475 -6.373033,0.871891 -13.430044,6.705515 -15.607177,15.162445 -1.802919,7.00334 2.477691,16.48313 5.842586,20.62904"
       id="path1011"
       sodipodi:nodetypes="cssssssc" />
    <path
       style="fill:none;fill-opacity:0.698039;stroke:#0000ff;stroke-width:0.200001;stroke-linecap:round;stroke-linejoin:round;stroke-dashoffset:0.377953"
       d="m 37.606881,152.14816 c 0.871633,3.27839 4.718383,15.92081 11.376255,20.40883 3.310125,2.23133 6.558627,3.22094 9.932465,3.0757 14.264617,-0.61409 28.735757,0.32806 41.123879,1.44971 3.92877,0.35572 7.2835,-0.0814 10.53115,-2.32057 5.12746,-3.53529 8.89908,-9.771 10.5969,-15.76299 0.7601,-2.6826 3.85298,-5.04782 3.85298,-5.04782"
       id="path1031"
       sodipodi:nodetypes="csssssc" />
    <path
       style="fill:none;fill-opacity:0.698039;stroke:#0000ff;stroke-width:0.200001;stroke-linecap:round;stroke-linejoin:round;stroke-dashoffset:0.377953"
       d="m 32.63122,155.86305 c 2.215277,-1.81042 4.160496,-5.48185 9.128404,-3.98123"
       id="path1033"
       sodipodi:nodetypes="cc" />
    <path
       style="fill:none;fill-opacity:0.698039;stroke:#0000ff;stroke-width:0.200001;stroke-linecap:round;stroke-linejoin:round;stroke-dashoffset:0.377953"
       d="m 130.39733,158.8962 c -1.74398,-2.18391 -3.98715,-7.013 -8.95506,-5.51238"
       id="path1035"
       sodipodi:nodetypes="cc" />
    <path
       style="fill:none;fill-opacity:0.698039;stroke:#0000ff;stroke-width:0.200001;stroke-linecap:round;stroke-linejoin:round;stroke-dashoffset:0.377953"
       d="m 54.79297,175.48573 c 1.196066,2.67181 8.644095,13.95439 24.600771,14.9473 13.928231,0.86668 25.022629,-10.62542 26.992579,-13.53073"
       id="path1037"
       sodipodi:nodetypes="csc" />
    <path
       style="fill:none;fill-opacity:0.698039;stroke:#0000ff;stroke-width:0.200001;stroke-linecap:round;stroke-linejoin:round;stroke-dashoffset:0.377953"
       d="m 59.485814,175.79359 c 1.267266,2.19401 9.008044,10.72823 18.654063,10.56731 8.957402,-0.14943 13.822963,-3.29016 15.574202,-4.46692"
       id="path1039"
       sodipodi:nodetypes="csc" />
    <path
       style="fill:none;fill-opacity:0.698039;stroke:#0000ff;stroke-width:0.200001;stroke-linecap:round;stroke-linejoin:round;stroke-dashoffset:0.377953"
       d="m 63.607907,175.76478 c 0,0 1.514256,3.24201 2.291537,4.0439 0.838722,0.86528 1.075911,0.51765 1.554822,-0.0669 0.546825,-0.6675 1.311233,-2.04161 2.173561,-2.00994 6.855844,0.25175 14.99882,-0.46295 21.823346,1.54717 0.865444,0.2549 1.03233,0.97921 1.542172,1.72352 0.496673,0.72508 1.161987,1.35118 2.187816,0.051 0.756689,-0.95906 2.863646,-4.08824 3.716959,-3.88241"
       id="path1041"
       sodipodi:nodetypes="cssssssc" />
    <path
       style="fill:none;fill-opacity:0.698039;stroke:#0000ff;stroke-width:0.200001;stroke-linecap:round;stroke-linejoin:round;stroke-dashoffset:0.377953"
       d="m 82.44688,162.85159 c 0.257577,3.5382 -0.368543,6.96502 -0.364436,10.23957"
       id="path1043"
       sodipodi:nodetypes="cc" />
  </g>
</svg>
