<?xml version="1.0" encoding="UTF-8" standalone="no"?>
<svg
   xmlns:dc="http://purl.org/dc/elements/1.1/"
   xmlns:cc="http://creativecommons.org/ns#"
   xmlns:rdf="http://www.w3.org/1999/02/22-rdf-syntax-ns#"
   xmlns:svg="http://www.w3.org/2000/svg"
   xmlns="http://www.w3.org/2000/svg"
   xmlns:xlink="http://www.w3.org/1999/xlink"
   xmlns:sodipodi="http://sodipodi.sourceforge.net/DTD/sodipodi-0.dtd"
   xmlns:inkscape="http://www.inkscape.org/namespaces/inkscape"
   width="190.54401mm"
   height="190.56645mm"
   viewBox="0 0 190.54401 190.56645"
   version="1.1"
   id="svg8"
   inkscape:version="1.0.1 (1.0.1+r75)"
   sodipodi:docname="marshal_mask.svg">
  <defs
     id="defs2">
    <rect
       x="723.35223"
       y="52.573097"
       width="825.46857"
       height="222.91702"
       id="rect2356" />
  </defs>
  <sodipodi:namedview
     id="base"
     pagecolor="#ffffff"
     bordercolor="#666666"
     borderopacity="1.0"
     inkscape:pageopacity="0.0"
     inkscape:pageshadow="2"
     inkscape:zoom="0.7"
     inkscape:cx="355.73115"
     inkscape:cy="441.5777"
     inkscape:document-units="mm"
     inkscape:current-layer="layer3"
     inkscape:document-rotation="0"
     showgrid="false"
     inkscape:snap-global="false"
     inkscape:window-width="1864"
     inkscape:window-height="1016"
     inkscape:window-x="1976"
     inkscape:window-y="27"
     inkscape:window-maximized="1"
     showguides="true"
     inkscape:guide-bbox="true"
     fit-margin-top="0"
     fit-margin-left="0"
     fit-margin-right="0"
     fit-margin-bottom="0" />
  <metadata
     id="metadata5">
    <rdf:RDF>
      <cc:Work
         rdf:about="">
        <dc:format>image/svg+xml</dc:format>
        <dc:type
           rdf:resource="http://purl.org/dc/dcmitype/StillImage" />
        <dc:title></dc:title>
      </cc:Work>
    </rdf:RDF>
  </metadata>
  <g
     inkscape:groupmode="layer"
     id="layer4"
     inkscape:label="License"
     sodipodi:insensitive="true">
    <text
       xml:space="preserve"
       id="text2354"
       style="font-style:normal;font-variant:normal;font-weight:normal;font-stretch:normal;font-size:17.5px;line-height:125%;font-family:sans-serif;-inkscape-font-specification:sans-serif;text-align:start;writing-mode:lr-tb;white-space:pre;shape-inside:url(#rect2356);display:inline;fill:#008000;stroke:none;stroke-width:1.77165;stroke-linecap:round;stroke-linejoin:round;stroke-dashoffset:0.354331;"
       x="-15.83374"
       y="0"
       transform="matrix(0.28222223,0,0,0.28222223,-11.436285,9.0212673)"><tspan
         x="723.35156"
         y="68.055664"><tspan
           style="shape-inside:url(#rect2356);display:inline">This file is published under the
</tspan></tspan><tspan
         x="723.35156"
         y="89.930664"><tspan
           style="font-style:normal;font-variant:normal;font-weight:bold;font-stretch:normal;font-family:sans-serif;-inkscape-font-specification:'sans-serif Bold';fill:#008000;stroke:none">Attribution-NonCommercial-ShareAlike 4.0 International (CC BY-NC-SA 4.0)</tspan><tspan
           style="shape-inside:url(#rect2356);display:inline"> license.
</tspan></tspan><tspan
         x="723.35156"
         y="111.80566"><tspan
           style="shape-inside:url(#rect2356);display:inline">https://creativecommons.org/licenses/by-nc-sa/4.0/
</tspan></tspan><tspan
         x="723.35156"
         y="133.68066"><tspan
           style="font-style:italic;font-variant:normal;font-weight:bold;font-stretch:normal;font-family:sans-serif;-inkscape-font-specification:'sans-serif Bold Italic'">
</tspan></tspan><tspan
         x="723.35156"
         y="155.55566"><tspan
           style="font-style:normal;font-weight:normal">This clipart was created by hand tracing a bitmap image of the PAW Patrol masks. The image </tspan></tspan><tspan
         x="723.35156"
         y="177.43066"><tspan
           style="font-style:normal;font-weight:normal">is available at:
</tspan></tspan><tspan
         x="723.35156"
         y="199.30566"><tspan
           style="font-style:normal;font-weight:normal">https://www.firlefantastisch.de/media/image/f2/bc/66/PawPatrolMasken1.jpg
</tspan></tspan><tspan
         x="723.35156"
         y="221.18066"><tspan
           style="font-style:normal;font-weight:normal">Please be aware that PAW Patrol and the characters are probably protected by trademarks!</tspan></tspan></text>
    <g
       id="g2531"
       transform="matrix(0.28222223,0,0,0.28222223,-87.775515,27.593644)"
       style="fill:#008000">
      <g
         id="g2462"
         transform="matrix(1.1196698,0,0,1.1196698,992.51148,-97.603024)"
         style="fill:#008000;stroke-width:0.8373">
        <path
           d="M 31.957,0.311 C 23.275,0.311 15.635,3.524 9.731,9.514 3.653,15.678 0.354,23.666 0.354,32 c 0,8.422 3.212,16.236 9.29,22.313 6.078,6.078 13.978,9.377 22.313,9.377 8.334,0 16.409,-3.299 22.66,-9.463 C 60.521,48.41 63.646,40.683 63.646,32 63.646,23.405 60.521,15.592 54.53,9.601 48.453,3.523 40.639,0.311 31.957,0.311 Z m 0.086,5.73 c 7.12,0 13.458,2.691 18.406,7.641 4.862,4.861 7.466,11.286 7.466,18.318 0,7.119 -2.518,13.371 -7.379,18.146 -5.123,5.035 -11.721,7.727 -18.493,7.727 -6.858,0 -13.283,-2.691 -18.232,-7.641 C 8.862,45.283 6.084,38.772 6.084,32 6.084,25.142 8.862,18.631 13.811,13.594 18.673,8.646 24.924,6.041 32.043,6.041 Z"
           id="path2446"
           style="fill:#008000;stroke-width:0.8373" />
        <path
           id="c"
           d="m 31.635,26.734 c -1.79,-3.264 -4.844,-4.563 -8.389,-4.563 -5.16,0 -9.267,3.65 -9.267,9.828 0,6.283 3.861,9.829 9.442,9.829 3.581,0 6.635,-1.966 8.319,-4.949 l -3.931,-2.001 c -0.878,2.105 -2.212,2.738 -3.896,2.738 -2.914,0 -4.248,-2.422 -4.248,-5.617 0,-3.193 1.124,-5.616 4.248,-5.616 0.842,0 2.527,0.456 3.51,2.563 z"
           style="fill:#008000;stroke-width:0.8373" />
        <use
           xlink:href="#c"
           transform="translate(18.281)"
           id="use2449"
           x="0"
           y="0"
           width="100%"
           height="100%"
           style="fill:#008000;stroke-width:0.8373" />
      </g>
      <g
         id="surface1"
         transform="matrix(1.1072835,0,0,1.1072835,1077.4845,-97.20418)"
         style="fill:#008000;stroke-width:1.12889">
        <path
           d="M 31.1875,0 C 13.90625,0.4375 0,14.613281 0,32 0,49.664063 14.335938,64 32,64 49.664063,64 64,49.664063 64,32 64,14.335938 49.664063,0 32,0 31.722656,0 31.460938,-0.0078125 31.1875,0 Z M 31.15625,5.5 C 31.441406,5.492188 31.714844,5.5 32,5.5 46.628906,5.5 58.5,17.371094 58.5,32 58.5,46.628906 46.628906,58.5 32,58.5 17.371094,58.5 5.5,46.628906 5.5,32 5.5,17.65625 16.921875,5.953125 31.15625,5.5 Z"
           id="path2464"
           style="fill:#008000;stroke-width:1.12889" />
        <path
           d="m 36.625,15.9375 c 0,2.550781 -2.070312,4.625 -4.625,4.625 -2.554687,0 -4.625,-2.074219 -4.625,-4.625 0,-2.554687 2.070313,-4.625 4.625,-4.625 2.554688,0 4.625,2.070313 4.625,4.625 z"
           id="path2466"
           style="fill:#008000;stroke-width:1.12889" />
        <path
           d="m 27.214844,52.6875 h 9.570312 v -15.375 h 2.894532 c 0,0 -0.0039,-10.992187 0,-12.722656 -0.0039,-0.457031 0.03906,-1.363281 -0.621094,-2.027344 C 38.394531,21.902344 37.5,21.941406 37.03125,21.941406 c -0.472656,0.0039 -9.589844,0.0039 -10.0625,0 -0.46875,0 -1.363281,-0.03906 -2.027344,0.621094 -0.660156,0.664063 -0.617187,1.570313 -0.621093,2.027344 0.0039,1.730469 0,12.722656 0,12.722656 h 2.894531 z"
           id="path2468"
           style="fill:#008000;stroke-width:1.12889" />
      </g>
      <g
         id="surface1-4"
         transform="matrix(1.1072835,0,0,1.1072835,1162.0611,-97.20418)"
         style="fill:#008000;stroke-width:0.846667">
        <path
           d="M 31.1875,0 C 13.90625,0.4375 0,14.613281 0,32 0,49.664063 14.335938,64 32,64 49.664063,64 64,49.664063 64,32 64,14.335938 49.664063,0 32,0 31.722656,0 31.460938,-0.0078125 31.1875,0 Z M 31.15625,5.5 C 31.441406,5.492188 31.714844,5.5 32,5.5 46.628906,5.5 58.5,17.371094 58.5,32 58.5,46.628906 46.628906,58.5 32,58.5 17.371094,58.5 5.5,46.628906 5.5,32 5.5,17.65625 16.921875,5.953125 31.15625,5.5 Z"
           id="path2483"
           style="fill:#008000;stroke-width:0.846667" />
        <path
           d="m 25.644531,38.742188 c 2.0625,2.882812 8.351563,3.089843 10.511719,1.871093 0.792969,-0.449218 0.988281,-1.75 0.988281,-2.628906 0,-0.605469 -0.15625,-1.078125 -0.476562,-1.425781 -0.335938,-0.34375 -1.1875,-1.21875 -2.175781,-1.476563 C 29.472656,33.785156 26,32.167969 24.636719,30.996094 c -1.695313,-1.46875 -1.96875,-2.425781 -1.96875,-4.980469 0,-2.554687 0.734375,-4.695312 2.394531,-6.230469 1.660156,-1.535156 4.074219,-2.304687 7.234375,-2.304687 3.019531,0 7.269531,0.796875 9.339844,3.257812 l -3.453125,3.753907 c -1.949219,-1.632813 -3.394531,-1.78125 -5.78125,-1.78125 -1.5,0 -2.28125,0.214843 -2.917969,0.648437 -0.636719,0.414063 -0.953125,0.957031 -0.953125,1.628906 0,0.605469 0.289063,1.105469 0.875,1.5 0.582031,0.417969 2.105469,1.039063 5.144531,1.867188 3.40625,0.929687 5.722657,2.0625 6.941407,3.390625 1.199218,1.328125 1.800781,3.097656 1.800781,5.304687 0,2.660157 -0.9375,4.851563 -2.808594,6.578125 -1.855469,1.726563 -4.136719,3.066407 -7.421875,3.066407 -4.230469,0 -9.875,-1.496094 -11.433594,-4.253907"
           id="path2485"
           style="fill:#008000;stroke-width:0.846667" />
        <path
           d="M 59.34375,40.105469 56.9375,45.386719 5.816406,22.351563 8.222656,17.070313 Z"
           id="path2487"
           style="fill:#008000;stroke-width:0.846667" />
        <path
           d="m 30.375,12.875 v 6.84375 h 3.25 V 12.875 Z m 0,32.09375 V 51.125 h 3.25 v -6.15625 z"
           id="path2489"
           style="fill:#008000;stroke-width:0.846667" />
      </g>
      <g
         id="g2513"
         transform="matrix(1.1072835,0,0,1.1072835,1246.6378,-97.20439)"
         style="fill:#008000;stroke-width:0.846667">
        <path
           style="opacity:1;fill:#008000;fill-opacity:1;fill-rule:nonzero;stroke:none;stroke-width:219.716;stroke-linecap:butt;stroke-linejoin:round;stroke-miterlimit:4;stroke-dasharray:none;stroke-dashoffset:0;stroke-opacity:1"
           d="M 31.1875,0 C 13.904525,0.43835438 0,14.612004 0,32 0,49.663996 14.336004,64 32,64 49.663996,64 64,49.663996 64,32 64,14.336004 49.663996,0 32,0 31.724,0 31.461833,-0.00695801 31.1875,0 Z M 31.15625,5.5 C 31.439783,5.49101 31.714297,5.5 32,5.5 46.628003,5.4999998 58.5,17.371998 58.5,32 58.499998,46.628001 46.628002,58.5 32,58.5 17.371999,58.499999 5.5,46.628002 5.5,32 5.4999999,17.657701 16.922915,5.9512829 31.15625,5.5 Z"
           id="path1334" />
        <path
           style="opacity:1;fill:#008000;fill-opacity:1;fill-rule:nonzero;stroke:none;stroke-width:219.716;stroke-linecap:butt;stroke-linejoin:round;stroke-miterlimit:4;stroke-dasharray:none;stroke-dashoffset:0;stroke-opacity:1"
           d="m 18.115779,26.784547 h -2.740778 l 6.21875,6.96875 6.21875,-6.96875 h -2.243852 c 0.486099,-3.3998 3.476871,-5.586425 6.931352,-5.3125 0.136556,0.01083 0.267854,0 0.40625,0 5.62743,0 7.84682,4.255865 8.03125,10.53125 0.19247,6.549199 -3.60349,10.620376 -8.03125,10.53125 -4.673386,-0.09221 -6.444049,-2.32751 -7.125,-5.71875 h -8.34375 c 1.373177,7.811231 7.123855,12.392036 15.28125,12.40625 9.23458,0.01625 15.906248,-7.709347 15.906248,-17.21875 0,-10.154893 -6.669368,-17.21875 -15.906248,-17.21875 -0.274244,0 -0.541652,-0.01489 -0.8125,0 -0.0656,0.0036 -0.12197,-0.0011 -0.1875,0 -5.772209,0.09597 -13.602929,4.139742 -13.602972,12 z"
           id="path2371"
           sodipodi:nodetypes="cccccssssccsssssc" />
      </g>
    </g>
  </g>
  <g
     inkscape:groupmode="layer"
     id="layer3"
     inkscape:label="Cut"
     style="display:inline"
     transform="translate(52.662674,-0.87664551)">
    <path
       id="path1167"
       style="fill:none;fill-opacity:0.698039;stroke:#ff0000;stroke-width:0.2;stroke-linecap:round;stroke-linejoin:round;stroke-dashoffset:0.377953"
       d="m 88.204535,39.533112 c 6.700485,-3.216391 13.499115,1.179242 17.413965,8.817756 3.28343,-0.435255 6.23824,-1.375902 8.47413,-1.998056 12.27586,-3.415855 18.73157,-1.643276 22.53292,11.488229 2.41205,8.332251 0.91852,14.234888 -3.21113,21.159867 -1.7906,3.002654 -1.5078,2.107559 -1.18426,4.946845 1.28867,11.308901 -7.40722,33.272567 -10.40824,39.066757 -3.14666,6.07538 -10.21148,15.80188 -13.49753,17.86943 -2.57937,1.62292 -5.23601,1.36517 -7.78991,-0.67463 -1.180279,-0.9427 -1.576513,-0.8098 -2.027392,-0.30402 -2.277855,1.83301 -4.157055,2.90807 -8.015357,3.88214 -0.364227,0.0919 -0.978173,-0.26197 -1.20539,1.11271 -1.648629,9.97402 -21.774644,25.22454 -27.566598,29.46488 -4.301854,3.14944 -11.593251,9.67032 -14.357763,11.67525 -6.001178,4.35228 -10.04258,5.1509 -14.643494,5.26602 -4.615726,0.11547 -9.316762,0.29295 -14.643495,-5.03588 -2.414298,-2.41525 -7.618076,-5.97085 -11.9108183,-9.13269 -6.28428368,-4.62872 -29.1456457,-20.3091 -26.8677927,-37.65064 0.181476,-1.38146 -0.300887,-1.15681 -0.605658,-1.37643 -3.841333,-2.76811 -4.531156,-3.29041 -6.707111,-5.73152 -0.450883,-0.50578 -0.997634,-1.04044 -2.17792,-0.0977 -2.553893,2.0398 -4.92396,3.62706 -7.906092,4.2547 -3.77901,0.79535 -7.915003,-0.0702 -6.981238,-7.23498 0.861969,-6.61389 2.994364,-9.84157 4.026954,-20.49171 0.275772,-2.84433 -1.147483,-4.80923 -2.305453,-8.10791 -3.615387,-10.299041 -9.164071,-20.211512 -9.202485,-40.809952 -0.02606,-13.974846 9.952639,-19.697452 20.70283,-16.227372 6.534151,2.109172 14.279145,4.950973 19.80826,6.084128 C -3.2808575,18.825557 21.56396,14.440993 29.196817,12.743417 28.757072,9.5463338 28.00817,6.3180938 27.136316,3.0774772 33.035485,2.4438513 38.669241,1.7632081 43.704982,0.97664462 46.30595,5.1028787 48.79829,8.615347 51.061168,13.071771 c 3.680915,0.954003 23.207486,3.561423 37.143367,26.461341 z"
       sodipodi:nodetypes="ccssssssscssssssscscssssssscccccc" />
    <ellipse
       style="fill:none;fill-opacity:0.698039;stroke:#ff0000;stroke-width:0.2;stroke-linecap:round;stroke-linejoin:round;stroke-dashoffset:0.377953"
       id="path1170"
       cx="4.9182749"
       cy="105.45336"
       rx="12.4"
       ry="12.400001" />
    <ellipse
       style="fill:none;fill-opacity:0.698039;stroke:#ff0000;stroke-width:0.2;stroke-linecap:round;stroke-linejoin:round;stroke-dashoffset:0.377953"
       id="ellipse2820"
       cx="62.380993"
       cy="105.45336"
       rx="12.4"
       ry="12.400001" />
  </g>
  <g
     inkscape:groupmode="layer"
     id="layer2"
     inkscape:label="Engrave"
     style="display:inline"
     transform="translate(52.662674,-0.87664551)">
    <path
       style="fill:none;fill-opacity:0.698039;stroke:#0000ff;stroke-width:0.2;stroke-linecap:round;stroke-linejoin:round;stroke-dashoffset:0.377953"
       d="m 23.042291,54.038934 c -6.127356,-6.599757 -6.930873,-15.280851 -6.615577,-22.455746 -0.05133,-0.73498 0.199362,-0.766174 0.436861,-0.828109 2.148826,0.09798 3.686711,-1.853935 3.653696,-3.75226 -0.04921,-0.550811 0.03901,-0.797821 0.541486,-0.955074 7.207375,-2.255455 15.735617,-2.061802 20.398781,-1.359008 1.042205,0.106914 0.881192,0.799431 0.734944,1.313942 -0.465153,4.156811 3.268393,3.93395 3.839887,4.057267 0.435334,12.947486 -7.372285,20.324763 -11.592352,24.571496"
       id="path959"
       sodipodi:nodetypes="ccccscccc" />
    <path
       style="fill:none;fill-opacity:0.698039;stroke:#0000ff;stroke-width:0.2;stroke-linecap:round;stroke-linejoin:round;stroke-dashoffset:0.377953"
       d="m 19.413431,32.704507 c 3.17023,-0.243097 3.932777,-4.260644 4.009692,-4.845 2.698319,-1.041109 11.797579,-1.661817 16.259425,-0.513341 -0.123795,3.636439 0.829962,4.825542 3.182993,4.933149 -1.946946,16.705204 -13.843225,22.221302 -13.843225,22.221302 -3.649938,-2.150341 -9.395328,-4.965639 -9.608885,-21.79611 z"
       id="path961"
       sodipodi:nodetypes="cccccc" />
    <path
       style="fill:none;fill-opacity:0.698039;stroke:#0000ff;stroke-width:0.2;stroke-linecap:round;stroke-linejoin:round;stroke-dashoffset:0.377953"
       d="m 27.222278,47.966731 c 1.377963,-0.662594 3.410122,-0.443092 4.800232,-0.103142 1.571137,0.384251 3.689909,-1.708154 3.184302,-3.520996 -0.785437,-2.816141 -3.092112,-5.506651 -5.965201,-5.501557 -2.594144,0.005 -5.10541,4.181967 -5.352277,6.678095 -0.226086,2.285995 1.396063,3.378964 3.332944,2.447587 z"
       id="path963"
       sodipodi:nodetypes="ssssss" />
    <path
       style="fill:none;fill-opacity:0.698039;stroke:#0000ff;stroke-width:0.2;stroke-linecap:round;stroke-linejoin:round;stroke-dashoffset:0.377953"
       d="m 21.63726,36.339274 c 0.107354,-1.724946 1.307312,-2.78633 2.788973,-2.104832 0.883237,0.40625 1.541956,1.433874 1.925656,2.445864 0.570946,1.505847 -0.484006,3.157815 -1.899339,3.211498 -1.728718,0.06553 -2.929106,-1.723751 -2.81529,-3.55253 z"
       id="path965"
       sodipodi:nodetypes="sssss" />
    <path
       style="fill:none;fill-opacity:0.698039;stroke:#0000ff;stroke-width:0.2;stroke-linecap:round;stroke-linejoin:round;stroke-dashoffset:0.377953"
       d="m 27.933867,30.635423 c 1.233738,-1.439937 3.428834,-1.936977 4.327554,-0.0076 0.485216,1.041499 0.353575,2.953809 0.14761,4.119416 -0.335828,1.90055 -2.729961,3.019191 -3.95449,1.880023 -1.464714,-1.362607 -1.848545,-4.441707 -0.520674,-5.991489 z"
       id="path967"
       sodipodi:nodetypes="sssss" />
    <path
       style="fill:none;fill-opacity:0.698039;stroke:#0000ff;stroke-width:0.2;stroke-linecap:round;stroke-linejoin:round;stroke-dashoffset:0.377953"
       d="m 39.055839,35.543013 c -0.122122,-1.80873 -1.648346,-2.725843 -3.333866,-2.011251 -1.004759,0.425985 -2.008915,1.788768 -2.181056,2.933998 -0.23258,1.547355 0.326846,3.069302 1.936912,3.12559 1.966567,0.0688 3.707484,-2.130756 3.57801,-4.048337 z"
       id="path969"
       sodipodi:nodetypes="sssss" />
    <path
       style="fill:none;fill-opacity:0.698039;stroke:#0000ff;stroke-width:0.2;stroke-linecap:round;stroke-linejoin:round;stroke-dashoffset:0.377953"
       d="m -29.504316,131.84299 c 5.155205,-4.39536 10.727936,-7.88294 14.716518,-14.81478 l -0.629611,7.00977 c -0.126817,1.41192 -0.439783,3.41385 -1.776375,5.5054 -1.672096,2.61657 -3.018253,5.23856 -3.458027,8.7628"
       id="path1174"
       sodipodi:nodetypes="ccssc" />
    <path
       style="fill:none;fill-opacity:0.698039;stroke:#0000ff;stroke-width:0.2;stroke-linecap:round;stroke-linejoin:round;stroke-dashoffset:0.377953"
       d="m 99.33202,139.36818 c -4.126438,-5.2039 -5.20234,-13.68675 -6.657933,-20.64259 -0.561458,3.32684 -0.886814,6.74164 -2.235594,9.77519 -0.575925,1.29534 -0.39669,2.90525 0.245496,5.30289 0.829977,3.09875 -0.540107,6.68534 -1.209978,10.17247"
       id="path1176"
       sodipodi:nodetypes="ccssc" />
    <path
       style="fill:none;fill-opacity:0.698039;stroke:#0000ff;stroke-width:0.2;stroke-linecap:round;stroke-linejoin:round;stroke-dashoffset:0.377953"
       d="m -1.6408506,73.39143 c -0.6145974,-1.483609 -3.2200779,-3.831187 -4.8546569,-4.651197 -3.330297,-1.670684 -7.5145175,-1.664797 -16.1231925,0.544522 -7.967428,2.044759 -14.493883,4.185402 -17.918022,12.993814 -2.887767,7.428621 0.636699,15.714606 -0.45964,23.854111"
       id="path1178"
       sodipodi:nodetypes="csssc" />
    <path
       style="fill:none;fill-opacity:0.698039;stroke:#0000ff;stroke-width:0.2;stroke-linecap:round;stroke-linejoin:round;stroke-dashoffset:0.377953"
       d="m -51.837385,55.894102 c 3.694042,-6.613493 11.162636,-7.314425 19.647911,-4.996405 17.714102,4.839166 36.5171933,10.85883 67.892628,11.38939 26.036655,0.440286 51.913181,-0.685221 78.001566,-8.527175 5.81964,-1.749334 12.20949,-5.002303 17.31435,1.24246 5.4499,6.666849 4.01872,11.916931 3.70164,13.509341 -0.74315,3.73216 -1.36341,7.055327 -4.24486,10.148538"
       id="path1180"
       sodipodi:nodetypes="csssssc" />
    <path
       style="fill:none;fill-opacity:0.698039;stroke:#0000ff;stroke-width:0.2;stroke-linecap:round;stroke-linejoin:round;stroke-dashoffset:0.377953"
       d="m 20.352499,62.011512 c -8.023508,3.47559 -14.9613277,4.804864 -26.2260705,15.501732 -7.4796275,7.102578 -9.3055355,12.805726 -8.2252275,18.125267 1.872946,9.222579 -0.06189,14.850659 -0.632787,21.382879"
       id="path1182"
       sodipodi:nodetypes="cssc" />
    <path
       style="fill:none;fill-opacity:0.698039;stroke:#0000ff;stroke-width:0.2;stroke-linecap:round;stroke-linejoin:round;stroke-dashoffset:0.377953"
       d="m 60.861719,62.347136 c 6.50254,2.014117 13.365063,7.764131 19.369545,13.930494"
       id="path1184"
       sodipodi:nodetypes="cc" />
    <path
       style="fill:none;fill-opacity:0.698039;stroke:#0000ff;stroke-width:0.2;stroke-linecap:round;stroke-linejoin:round;stroke-dashoffset:0.377953"
       d="m 131.63624,81.547099 c -0.89806,-2.501691 -3.03057,-5.175844 -7.72536,-7.69932 -7.36872,-3.960705 -15.07541,-7.035504 -24.443578,-8.705621 -7.251963,-1.292861 -11.99283,-0.633916 -15.117999,2.300447 -2.227995,2.091966 -3.998603,4.40074 -5.499222,7.059427"
       id="path1186"
       sodipodi:nodetypes="csssc" />
    <path
       style="fill:none;fill-opacity:0.698039;stroke:#0000ff;stroke-width:0.2;stroke-linecap:round;stroke-linejoin:round;stroke-dashoffset:0.377953"
       d="m 86.911652,69.86715 c 3.6575,3.95829 4.067598,16.470618 3.846175,27.395167 -0.132504,6.537023 1.28579,15.123683 1.999603,21.397793"
       id="path1188"
       sodipodi:nodetypes="csc" />
    <path
       style="fill:none;fill-opacity:0.698039;stroke:#0000ff;stroke-width:0.2;stroke-linecap:round;stroke-linejoin:round;stroke-dashoffset:0.377953"
       d="m 88.188285,73.201676 c -2.292981,0.452336 -4.058842,2.549395 -5.711026,5.001161 7.163347,7.352828 5.33138,6.680617 8.10095,11.890625"
       id="path1190"
       sodipodi:nodetypes="ccc" />
    <path
       style="fill:none;fill-opacity:0.698039;stroke:#0000ff;stroke-width:0.2;stroke-linecap:round;stroke-linejoin:round;stroke-dashoffset:0.377953"
       d="M -11.885358,49.964498 C -5.2470335,51.898217 42.891644,60.428662 105.7213,49.043637"
       id="path1192"
       sodipodi:nodetypes="cc" />
    <path
       style="fill:none;fill-opacity:0.698039;stroke:#0000ff;stroke-width:0.2;stroke-linecap:round;stroke-linejoin:round;stroke-dashoffset:0.377953"
       d="M 29.467406,12.714764 C 38.07487,11.224539 44.662968,12.182242 50.84138,13.108763"
       id="path1194"
       sodipodi:nodetypes="cc" />
    <path
       style="fill:none;fill-opacity:0.698039;stroke:#0000ff;stroke-width:0.2;stroke-linecap:round;stroke-linejoin:round;stroke-dashoffset:0.377953"
       d="M 43.495817,1.2922059 C 42.964802,4.4266755 42.872519,8.2075755 42.868715,11.874265"
       id="path1196"
       sodipodi:nodetypes="cc" />
    <path
       style="display:inline;fill:none;fill-opacity:0.698039;stroke:#0000ff;stroke-width:0.2;stroke-linecap:round;stroke-linejoin:round;stroke-dashoffset:0.377953"
       d="m -2.0712016,51.689167 -0.1168387,-6.728093 c 0.023106,-0.37054 0.080324,-0.799984 0.4389734,-0.772841 C 6.0780092,44.217923 7.385048,38.629295 6.2383662,30.013645 28.721816,9.7234341 56.792912,20.102594 60.578824,25.450798 c -3.112723,9.809633 -5.63663,18.723159 5.942837,22.718919 l -2.678209,5.765095"
       id="path1198"
       sodipodi:nodetypes="ccccccc" />
    <path
       style="display:inline;fill:none;fill-opacity:0.698039;stroke:#0000ff;stroke-width:0.2;stroke-linecap:round;stroke-linejoin:round;stroke-dashoffset:0.377953"
       d="m 64.529713,17.843063 c 7.962809,4.029621 16.801339,23.851672 17.075072,34.305749"
       id="path1200"
       sodipodi:nodetypes="cc" />
    <path
       style="display:inline;fill:none;fill-opacity:0.698039;stroke:#0000ff;stroke-width:0.2;stroke-linecap:round;stroke-linejoin:round;stroke-dashoffset:0.377953"
       d="m 88.02265,39.713672 c -2.690084,1.295942 -6.287642,5.062692 -3.958171,12.140357"
       id="path1202"
       sodipodi:nodetypes="cc" />
    <path
       style="display:inline;fill:none;fill-opacity:0.698039;stroke:#0000ff;stroke-width:0.2;stroke-linecap:round;stroke-linejoin:round;stroke-dashoffset:0.377953"
       d="m 98.709336,49.919229 c 0.708248,-2.842316 -0.494456,-7.419666 -6.359345,-7.731706 -2.689379,-0.143077 -7.000754,2.769652 -5.012164,9.075634"
       id="path1204"
       sodipodi:nodetypes="csc" />
    <path
       style="display:inline;fill:none;fill-opacity:0.698039;stroke:#0000ff;stroke-width:0.2;stroke-linecap:round;stroke-linejoin:round;stroke-dashoffset:0.377953"
       d="m 16.258412,184.51506 c -3.035451,-3.17885 -3.988535,-6.83322 -6.323475,-9.46439"
       id="path1206"
       sodipodi:nodetypes="cc" />
    <path
       style="display:inline;fill:none;fill-opacity:0.698039;stroke:#0000ff;stroke-width:0.2;stroke-linecap:round;stroke-linejoin:round;stroke-dashoffset:0.377953"
       d="m 1.9918682,138.91216 c 6.6631431,16.17906 10.6316128,37.304 26.3513358,37.1925 22.493294,-0.15953 29.513616,-29.64746 35.071401,-44.75385"
       id="path1208"
       sodipodi:nodetypes="csc" />
    <path
       style="display:inline;fill:none;fill-opacity:0.698039;stroke:#0000ff;stroke-width:0.2;stroke-linecap:round;stroke-linejoin:round;stroke-dashoffset:0.377953"
       d="m -0.86735548,128.70342 c -1.98788702,-0.21127 -3.65731702,0.40238 -5.09878002,1.60652"
       id="path1210"
       sodipodi:nodetypes="cc" />
    <path
       style="display:inline;fill:none;fill-opacity:0.698039;stroke:#0000ff;stroke-width:0.2;stroke-linecap:round;stroke-linejoin:round;stroke-dashoffset:0.377953"
       d="m 59.060943,129.49203 c 5.376059,0.46135 6.896835,2.86096 7.870226,5.53577"
       id="path1212"
       sodipodi:nodetypes="cc" />
    <path
       style="display:inline;fill:none;fill-opacity:0.698039;stroke:#0000ff;stroke-width:0.2;stroke-linecap:round;stroke-linejoin:round;stroke-dashoffset:0.377953"
       d="m 10.73747,160.74011 3.244782,-0.10263 c 0.844705,-0.0267 1.496252,-0.35363 1.949233,0.89114 2.829147,7.77434 9.105078,8.59424 15.592721,8.52017 13.575819,-2.84209 14.127192,-7.4298 18.593902,-11.7824 1.451407,-1.41433 2.194731,-1.81479 3.178101,-2.20827"
       id="path1214"
       sodipodi:nodetypes="csscsc" />
    <path
       style="display:inline;fill:none;fill-opacity:0.698039;stroke:#0000ff;stroke-width:0.2;stroke-linecap:round;stroke-linejoin:round;stroke-dashoffset:0.377953"
       d="m -0.04093388,126.57111 c -1.92865122,10.81749 3.93918088,15.61336 9.79557678,16.90097 5.2408551,1.15229 12.7348981,0.0662 16.8137261,-1.80412 1.684367,-0.77235 3.239876,-0.44464 3.926059,-0.21645 5.244295,1.74409 10.634462,2.93867 17.214809,0.17582 9.863096,-4.14116 11.309794,-7.7391 14.531199,-11.3805"
       id="path1216"
       sodipodi:nodetypes="cssssc" />
    <path
       style="display:inline;fill:none;fill-rule:evenodd;stroke:#0000ff;stroke-width:0.264583px;stroke-linecap:butt;stroke-linejoin:miter;stroke-opacity:1"
       d="M 1.9777943,122.60744 C 3.310229,117.86391 9.8363931,116.38481 12.1264,115.09499"
       id="path1218"
       sodipodi:nodetypes="cc" />
    <path
       style="display:inline;fill:none;fill-opacity:0.698039;stroke:#0000ff;stroke-width:0.2;stroke-linecap:round;stroke-linejoin:round;stroke-dashoffset:0.377953"
       d="m 15.395965,111.78692 c -1.283434,0.80105 -3.633167,1.45457 -2.495983,4.57141 1.907735,5.22882 3.399453,12.84712 13.081709,12.37201 8.170577,-0.40094 13.331528,-6.18499 15.669619,-12.41194 0.703778,-1.87436 1.857065,-4.60426 -1.806669,-6.02763 -7.56522,-2.93915 -15.677909,-3.97803 -24.448676,1.49615 z"
       id="path1220"
       sodipodi:nodetypes="ssssss" />
    <path
       style="display:inline;fill:none;fill-opacity:0.698039;stroke:#0000ff;stroke-width:0.2;stroke-linecap:round;stroke-linejoin:round;stroke-dashoffset:0.377953"
       d="m 42.759289,112.98435 c 8.030603,2.93459 10.07117,10.11125 17.887468,11.59508"
       id="path1222"
       sodipodi:nodetypes="cc" />
    <path
       style="display:inline;fill:none;fill-opacity:0.698039;stroke:#0000ff;stroke-width:0.2;stroke-linecap:round;stroke-linejoin:round;stroke-dashoffset:0.377953"
       d="m 7.5921006,117.3811 c -5.9469804,-0.93388 -11.0561031,2.0536 -14.5322411,3.64157"
       id="path1224"
       sodipodi:nodetypes="cc" />
    <path
       style="display:inline;fill:none;fill-opacity:0.698039;stroke:#0000ff;stroke-width:0.2;stroke-linecap:round;stroke-linejoin:round;stroke-dashoffset:0.377953"
       d="m -16.278844,128.08031 c 1.917702,-3.11007 3.206038,-4.51722 4.849729,-6.05405"
       id="path1226"
       sodipodi:nodetypes="cc" />
    <path
       style="display:inline;fill:none;fill-opacity:0.698039;stroke:#0000ff;stroke-width:0.2;stroke-linecap:round;stroke-linejoin:round;stroke-dashoffset:0.377953"
       d="m 54.325465,121.57115 c 5.658601,-2.84462 15.029401,-4.12709 24.451538,1.61212"
       id="path1228"
       sodipodi:nodetypes="cc" />
    <path
       style="display:inline;fill:none;fill-opacity:0.698039;stroke:#0000ff;stroke-width:0.2;stroke-linecap:round;stroke-linejoin:round;stroke-dashoffset:0.377953"
       d="m 90.019219,130.97392 c -0.877365,-2.52239 -2.051233,-4.34763 -3.31624,-5.95862"
       id="path1230"
       sodipodi:nodetypes="cc" />
    <path
       style="display:inline;fill:none;fill-opacity:0.698039;stroke:#0000ff;stroke-width:0.2;stroke-linecap:round;stroke-linejoin:round;stroke-dashoffset:0.377953"
       d="m 25.920462,129.47021 c 0.350722,2.66618 0.742898,6.50447 1.496501,8.12886"
       id="path1232"
       sodipodi:nodetypes="cc" />
    <ellipse
       style="display:inline;fill:none;fill-opacity:0.698039;stroke:#0000ff;stroke-width:0.2;stroke-linecap:round;stroke-linejoin:round;stroke-dashoffset:0.377953"
       id="path1234"
       cx="9.2138357"
       cy="123.39597"
       rx="0.64340663"
       ry="0.64340657" />
    <ellipse
       style="display:inline;fill:none;fill-opacity:0.698039;stroke:#0000ff;stroke-width:0.2;stroke-linecap:round;stroke-linejoin:round;stroke-dashoffset:0.377953"
       id="circle1236"
       cx="7.900176"
       cy="129.39787"
       rx="0.64340663"
       ry="0.64340657" />
    <ellipse
       style="display:inline;fill:none;fill-opacity:0.698039;stroke:#0000ff;stroke-width:0.2;stroke-linecap:round;stroke-linejoin:round;stroke-dashoffset:0.377953"
       id="circle1238"
       cx="4.2221594"
       cy="127.29713"
       rx="0.64340663"
       ry="0.64340657" />
    <ellipse
       style="display:inline;fill:none;fill-opacity:0.698039;stroke:#0000ff;stroke-width:0.2;stroke-linecap:round;stroke-linejoin:round;stroke-dashoffset:0.377953"
       id="circle1240"
       cx="51.626358"
       cy="124.74906"
       rx="0.64340663"
       ry="0.64340657" />
    <ellipse
       style="display:inline;fill:none;fill-opacity:0.698039;stroke:#0000ff;stroke-width:0.2;stroke-linecap:round;stroke-linejoin:round;stroke-dashoffset:0.377953"
       id="circle1242"
       cx="45.480064"
       cy="120.87585"
       rx="0.64340663"
       ry="0.64340657" />
    <ellipse
       style="display:inline;fill:none;fill-opacity:0.698039;stroke:#0000ff;stroke-width:0.2;stroke-linecap:round;stroke-linejoin:round;stroke-dashoffset:0.377953"
       id="circle1244"
       cx="47.584862"
       cy="127.59654"
       rx="0.64340663"
       ry="0.64340657" />
    <path
       style="display:inline;fill:none;fill-opacity:0.698039;stroke:#0000ff;stroke-width:0.2;stroke-linecap:round;stroke-linejoin:round;stroke-dashoffset:0.377953"
       d="m 5.6132126,142.0269 c 0.6135794,1.83655 1.8266979,3.27879 5.2680414,3.25565 0.505049,-0.0687 1.014828,-0.39396 1.498759,0.68318 0.503845,1.7124 1.038442,2.77516 1.862094,3.47456 0.40467,0.87131 0.90548,1.33495 1.79094,0.16762 2.132185,-1.70633 2.049447,-2.5841 2.498043,-3.66064 5.974656,1.20561 11.142874,2.12055 18.048774,0.64881 0.412986,1.20036 1.84922,1.91785 2.903594,3.0954 0.538624,1.5699 1.580893,0.53554 2.664546,-0.71279 1.282337,-1.09814 1.994412,-1.86596 2.594497,-3.08704 10.724693,-1.50279 12.729974,-7.27829 14.328365,-11.62858"
       id="path1246"
       sodipodi:nodetypes="ccccccccccc" />
    <path
       style="display:inline;fill:none;fill-opacity:0.698039;stroke:#0000ff;stroke-width:0.2;stroke-linecap:round;stroke-linejoin:round;stroke-dashoffset:0.377953"
       d="m 6.2903681,71.480327 c 2.0433808,-1.305049 3.2512769,-0.03069 3.2540398,0.862221 0.00329,1.043914 1.2671771,1.71989 -1.940989,3.28859 -2.7420442,1.340774 -5.4719339,2.221584 -7.90803668,4.706805 -1.93936032,1.978455 -2.52078372,1.808826 -2.04089882,-0.542173 0.7747341,-3.795475 4.1044254,-5.421343 8.6358847,-8.315443 z"
       id="path1248"
       sodipodi:nodetypes="ssssss" />
    <path
       style="display:inline;fill:none;fill-opacity:0.698039;stroke:#0000ff;stroke-width:0.2;stroke-linecap:round;stroke-linejoin:round;stroke-dashoffset:0.377953"
       d="m 58.254459,64.284589 c -2.370794,-0.507818 -3.093337,0.451431 -2.984959,1.337753 0.177377,1.450579 -0.242759,2.63494 2.419578,3.042095 3.092069,0.472877 6.865303,3.552996 9.301406,6.038217 1.93936,1.978457 2.482452,1.638568 2.002567,-0.712427 -0.774735,-3.795478 -6.427986,-8.782299 -10.738592,-9.705638 z"
       id="path1250"
       sodipodi:nodetypes="ssssss" />
    <path
       style="display:inline;fill:none;fill-opacity:0.698039;stroke:#0000ff;stroke-width:0.2;stroke-linecap:round;stroke-linejoin:round;stroke-dashoffset:0.377953"
       d="m 59.137492,87.458892 c 11.672522,-0.790027 14.492822,5.611511 16.652969,10.32561"
       id="path1252"
       sodipodi:nodetypes="cc" />
    <path
       style="display:inline;fill:none;fill-opacity:0.698039;stroke:#0000ff;stroke-width:0.2;stroke-linecap:round;stroke-linejoin:round;stroke-dashoffset:0.377953"
       d="m 15.719917,110.97056 c 1.74618,-2.68075 2.46219,-11.040113 0.998031,-14.592901 -1.52176,-3.692568 -6.8059603,-5.516854 -10.2424164,-5.12954 -3.2120621,0.362025 -10.2688571,0.915847 -13.2607481,11.537491 -1.504187,5.34008 -0.01576,11.09686 1.762791,16.82147"
       id="path1254"
       sodipodi:nodetypes="csssc" />
    <path
       style="display:inline;fill:none;fill-opacity:0.698039;stroke:#0000ff;stroke-width:0.2;stroke-linecap:round;stroke-linejoin:round;stroke-dashoffset:0.377953"
       d="m 43.493002,112.7331 c 0.01207,-5.3775 1.641072,-16.109945 9.646395,-19.218992 9.715236,-3.77312 15.753315,-1.63364 19.411938,4.971722 3.106203,5.60803 4.150606,11.74071 -2.769675,20.33964"
       id="path1256"
       sodipodi:nodetypes="cssc" />
    <path
       style="display:inline;fill:none;fill-opacity:0.698039;stroke:#0000ff;stroke-width:0.2;stroke-linecap:round;stroke-linejoin:round;stroke-dashoffset:0.377953"
       d="M 16.226099,94.799295 C 14.763028,89.899988 12.458026,87.049333 9.8824078,84.857178"
       id="path1258"
       sodipodi:nodetypes="cc" />
    <path
       style="display:inline;fill:none;fill-opacity:0.698039;stroke:#0000ff;stroke-width:0.2;stroke-linecap:round;stroke-linejoin:round;stroke-dashoffset:0.377953"
       d="m -1.6421587,90.033726 c 4.145402,-2.346557 9.654678,-3.273238 14.7414917,-1.089693"
       id="path1260"
       sodipodi:nodetypes="cc" />
    <path
       style="display:inline;fill:none;fill-opacity:0.698039;stroke:#0000ff;stroke-width:0.2;stroke-linecap:round;stroke-linejoin:round;stroke-dashoffset:0.377953"
       d="m -20.163399,136.50755 c 1.019511,-1.49445 4.061229,-2.35 6.020503,0.6194 2.566048,3.88901 0.609349,5.52611 -0.511121,6.00577 -0.50102,0.21449 -1.261105,0.62536 -0.346783,1.19899 1.103723,0.69245 1.989387,3.38846 -6.65e-4,4.58525 -0.97524,0.58649 -1.771371,0.88426 -4.380551,-0.25597"
       id="path1262"
       sodipodi:nodetypes="cssssc" />
    <path
       style="display:inline;fill:none;fill-opacity:0.698039;stroke:#0000ff;stroke-width:0.2;stroke-linecap:round;stroke-linejoin:round;stroke-dashoffset:0.377953"
       d="m -10.667791,153.35867 c 0.642105,-0.71187 1.7694135,-1.44094 2.6615065,-1.08991 1.05714,0.41598 1.639141,1.97828 1.427992,3.09453 -0.190211,1.00556 -1.195131,2.04939 -2.215701,2.1252 -1.040904,0.0773 -2.2127065,-0.82393 -2.5552805,-1.80988 -0.26453,-0.76133 0.141648,-1.72144 0.681483,-2.31994 z"
       id="path1264"
       sodipodi:nodetypes="ssssss" />
    <path
       style="display:inline;fill:none;fill-opacity:0.698039;stroke:#0000ff;stroke-width:0.2;stroke-linecap:round;stroke-linejoin:round;stroke-dashoffset:0.377953"
       d="m 80.154354,135.96275 c 0.0064,1.16045 0.649245,1.57259 -0.704383,2.44648 -2.424259,1.56509 -2.566866,6.66288 -1.38127,7.61069 1.327683,1.06141 1.94437,0.23345 2.836284,-0.80661 1.233182,-1.43801 0.612467,-1.18534 1.017126,-0.076 0.389709,1.06837 1.482515,2.77197 2.836669,0.20396 1.067749,-2.02486 2.269794,-5.30006 0.609467,-6.27944 -0.685663,-0.40447 -0.810171,-0.91262 -0.20488,-1.55565 1.820277,-1.93373 1.999174,-7.43903 -0.535282,-8.06281 -2.490625,-0.61299 -4.503295,1.16753 -4.473731,6.51936 z"
       id="path1266"
       sodipodi:nodetypes="ssssssssss" />
    <path
       style="display:inline;fill:none;fill-opacity:0.698039;stroke:#0000ff;stroke-width:0.2;stroke-linecap:round;stroke-linejoin:round;stroke-dashoffset:0.377953"
       d="m -29.68251,114.8527 c 0.561243,0.67304 0.595935,0.89184 1.440393,0.38096 0.898617,-0.54364 2.198788,-1.81317 3.431002,0.99869 0.410918,0.93768 1.147866,2.64149 -1.24629,3.57386 -0.572605,0.22299 -1.085147,0.12622 -0.878466,1.24544 0.258527,1.39996 0.439877,3.44579 -1.527112,4.23119 -1.416326,0.56552 -2.551016,-0.9959 -2.327421,-2.66144 0.260608,-1.94126 -0.307789,-0.7144 -0.761943,-0.73802 -1.400536,-0.0728 -2.638742,-0.13655 -2.734435,-4.51299 -0.07272,-3.32635 2.830478,-4.6448 4.604272,-2.51769 z"
       id="path1268"
       sodipodi:nodetypes="ssssssssss" />
    <path
       style="display:inline;fill:none;fill-opacity:0.698039;stroke:#0000ff;stroke-width:0.2;stroke-linecap:round;stroke-linejoin:round;stroke-dashoffset:0.377953"
       d="m -41.515439,92.936775 c 0.7671,-0.50026 1.460219,-2.028974 2.301301,0.978164 0.223925,0.800601 0.610125,1.336094 1.347022,0.653885 1.228148,-1.136981 2.865691,-1.821246 3.794419,1.771207 0.6419,2.482965 -0.284421,4.087789 -1.678417,4.570859 -0.484073,0.16774 -0.677495,-0.0404 -0.182578,0.85501 1.239016,2.24168 0.990778,4.26769 -0.05952,5.29488 -1.37483,1.34456 -3.369243,1.6756 -4.831017,-1.1195"
       id="path1270"
       sodipodi:nodetypes="cssssssc" />
    <path
       style="display:inline;fill:none;fill-opacity:0.698039;stroke:#0000ff;stroke-width:0.2;stroke-linecap:round;stroke-linejoin:round;stroke-dashoffset:0.377953"
       d="m -32.697225,73.060297 c -1.204161,0.977249 -1.517123,2.316133 -0.846693,3.498774 0.819053,1.4448 1.952534,1.489126 2.83514,1.526872 1.700789,0.07275 1.506614,0.697838 0.79967,1.060868 -3.862745,1.983591 -1.7843,5.16834 -1.177666,5.85542 1.15816,1.311738 2.270965,2.121479 3.475154,1.859331 0.494011,-0.107545 0.840358,-0.243714 1.270872,0.523922 1.96634,3.506103 4.990223,2.850646 6.313107,1.984632 2.478176,-1.622297 3.24704,-4.613472 2.388865,-5.837982 -0.230031,-0.328227 -0.784102,-0.637069 0.354638,-0.834802 0.906088,-0.157327 1.936623,-0.198245 2.49214,-0.748388 0.960743,-0.95144 0.921616,-1.588929 0.587694,-2.156528 -0.263623,-0.44811 -0.386956,-0.942347 0.565176,-1.207127 2.166849,-0.602595 2.856464,-2.039406 3.525413,-3.542055 0.8760205,-1.967793 -0.04675,-3.216454 -0.975154,-4.358804 -0.2805,-0.345146 -0.685425,-1.000154 0.151153,-1.280307 1.1878235,-0.397786 1.1112775,-0.888863 1.2756035,-1.442277"
       id="path1272"
       sodipodi:nodetypes="csssssssssssssssc" />
    <path
       style="display:inline;fill:none;fill-opacity:0.698039;stroke:#0000ff;stroke-width:0.2;stroke-linecap:round;stroke-linejoin:round;stroke-dashoffset:0.377953"
       d="m -31.310607,105.22724 c 1.085898,0.5788 0.754492,0.87491 0.624277,1.27721 -0.276409,0.85394 -0.238612,3.1808 2.821142,1.80343 0.660245,-0.29722 2.253462,-1.80205 0.888493,-3.39615 -0.391331,-0.45702 -0.902347,-0.64299 -0.177608,-1.92617 0.744985,-1.31902 -0.394612,-4.025993 -2.915793,-2.44772 -1.870314,1.17083 -2.633849,3.94673 -1.240511,4.6894 z"
       id="path1274"
       sodipodi:nodetypes="sssssss" />
    <path
       style="display:inline;fill:none;fill-opacity:0.698039;stroke:#0000ff;stroke-width:0.2;stroke-linecap:round;stroke-linejoin:round;stroke-dashoffset:0.377953"
       d="m 94.370753,64.989987 c -1.589487,0.474599 -3.346811,0.455657 -2.839852,2.907886 0.214596,1.038027 -0.375405,2.120215 0.678835,2.580123 1.003462,0.437759 0.497801,0.183038 0.209249,1.728268 -0.274751,1.471332 0.325284,2.516642 1.478981,3.865764 1.008251,1.17905 1.819309,1.572898 2.712101,1.590098 1.590017,0.03053 0.74528,0.736781 0.507635,1.611714 -1.660236,6.112333 4.542298,8.088109 6.682688,8.446981 4.05798,0.680372 9.27297,-2.394019 10.17644,-5.924324 0.24865,-0.971592 0.33391,-1.145106 1.19281,-0.939394 1.40951,0.337604 3.26275,-0.297006 4.2038,-1.534421 1.06686,-1.402831 1.57275,-2.871457 0.29615,-4.125013 -0.6579,-0.646015 -0.57824,-1.252045 -0.14496,-1.187582 1.08186,0.160963 1.05993,-0.783721 1.19397,-1.618057"
       id="path1276"
       sodipodi:nodetypes="cssssssssssssc" />
    <path
       style="display:inline;fill:none;fill-opacity:0.698039;stroke:#0000ff;stroke-width:0.2;stroke-linecap:round;stroke-linejoin:round;stroke-dashoffset:0.377953"
       d="m 121.04325,85.767701 c 0.0944,1.01336 0.50857,1.048593 -0.84232,0.930483 -2.8318,-0.247598 -3.95951,0.817985 -4.45765,1.911782 -1.3279,2.915747 0.28453,3.898961 1.24454,5.059833 0.74135,0.896484 0.63687,0.818561 0.16176,0.969957 -1.0805,0.344312 -1.29159,1.082692 -0.78659,2.118682 0.61568,1.263033 1.46927,1.616146 2.22718,1.611604 1.10285,-0.0064 0.86365,0.431266 0.9182,0.814412 0.6291,4.417826 2.91395,4.515756 4.28596,4.471326 2.70545,-0.0877 3.69821,-2.41538 2.97276,-5.211653 -0.1663,-0.641026 -0.52555,-0.867028 0.49985,-1.315402 1.69661,-0.74189 2.08964,-2.527547 2.12221,-3.931438 0.0891,-3.841684 -2.1543,-4.114306 -2.8667,-4.314498 -1.20565,-0.338819 -0.77796,-0.783017 -0.45239,-1.221996 1.25057,-1.686137 0.26096,-4.313725 -1.38303,-4.648505 -2.97721,-0.606268 -3.808,0.992596 -3.64378,2.755413 z"
       id="path1278"
       sodipodi:nodetypes="ssssssssssssssss" />
    <path
       style="display:inline;fill:none;fill-opacity:0.698039;stroke:#0000ff;stroke-width:0.2;stroke-linecap:round;stroke-linejoin:round;stroke-dashoffset:0.377953"
       d="m 104.0967,105.74077 c 0.54438,0 1.06951,0.84463 -0.1197,1.58565 -0.87933,0.54793 -1.70469,1.31722 -0.87958,3.93315 0.46968,1.48908 1.41728,2.54279 2.89515,2.23419 0.33766,-0.0706 0.66364,-0.0495 0.25967,0.96042 -0.9363,2.34078 1.52361,3.54292 2.17124,3.40426 2.24684,-0.48107 2.40462,-1.83783 1.88638,-3.12764 -0.26714,-0.66483 -0.12973,-0.61439 0.51179,-0.59791 2.51417,0.0646 3.27173,-1.39307 3.31154,-2.11671 0.2038,-3.70398 -1.09387,-3.21413 -1.56928,-3.43167 -0.53027,-0.24265 -0.80317,-0.72644 -0.15866,-1.12488 0.9337,-0.57721 0.42754,-0.90048 -0.0641,-1.61199 -0.40736,-0.58959 -0.99419,-0.63145 -1.57639,-0.58403 -0.38892,0.0317 -0.51068,0.14394 -0.901,-1.07928 -0.68219,-2.1379 -2.16091,-2.54426 -3.71139,-2.48052 -1.57198,0.0646 -3.05369,2.59094 -2.0557,4.03696 0,0 0,0 0,0 z"
       id="path1280"
       sodipodi:nodetypes="sssssssssssssssss" />
  </g>
</svg>
