<?xml version="1.0" encoding="UTF-8" standalone="no"?>
<svg
   xmlns:dc="http://purl.org/dc/elements/1.1/"
   xmlns:cc="http://creativecommons.org/ns#"
   xmlns:rdf="http://www.w3.org/1999/02/22-rdf-syntax-ns#"
   xmlns:svg="http://www.w3.org/2000/svg"
   xmlns="http://www.w3.org/2000/svg"
   xmlns:xlink="http://www.w3.org/1999/xlink"
   xmlns:sodipodi="http://sodipodi.sourceforge.net/DTD/sodipodi-0.dtd"
   xmlns:inkscape="http://www.inkscape.org/namespaces/inkscape"
   width="272.09021mm"
   height="195mm"
   viewBox="0 0 272.09021 195"
   version="1.1"
   id="svg8"
   inkscape:version="1.0.1 (1.0.1+r75)"
   sodipodi:docname="sky_mask.svg">
  <defs
     id="defs2">
    <rect
       x="723.35223"
       y="52.573097"
       width="825.46857"
       height="222.91702"
       id="rect2356" />
  </defs>
  <sodipodi:namedview
     id="base"
     pagecolor="#ffffff"
     bordercolor="#666666"
     borderopacity="1.0"
     inkscape:pageopacity="0.0"
     inkscape:pageshadow="2"
     inkscape:zoom="0.7"
     inkscape:cx="1343.1735"
     inkscape:cy="406.06389"
     inkscape:document-units="mm"
     inkscape:current-layer="layer1"
     inkscape:document-rotation="0"
     showgrid="false"
     inkscape:snap-global="false"
     inkscape:window-width="1864"
     inkscape:window-height="1016"
     inkscape:window-x="1976"
     inkscape:window-y="27"
     inkscape:window-maximized="1"
     showguides="true"
     inkscape:guide-bbox="true"
     fit-margin-top="0"
     fit-margin-left="0"
     fit-margin-right="0"
     fit-margin-bottom="0" />
  <metadata
     id="metadata5">
    <rdf:RDF>
      <cc:Work
         rdf:about="">
        <dc:format>image/svg+xml</dc:format>
        <dc:type
           rdf:resource="http://purl.org/dc/dcmitype/StillImage" />
        <dc:title></dc:title>
      </cc:Work>
    </rdf:RDF>
  </metadata>
  <g
     inkscape:groupmode="layer"
     id="layer1"
     inkscape:label="License"
     sodipodi:insensitive="true">
    <text
       xml:space="preserve"
       id="text2354"
       style="font-style:normal;font-variant:normal;font-weight:normal;font-stretch:normal;font-size:17.5px;line-height:125%;font-family:sans-serif;-inkscape-font-specification:sans-serif;text-align:start;writing-mode:lr-tb;white-space:pre;shape-inside:url(#rect2356);display:inline;fill:#008000;stroke:none;stroke-width:1.77165;stroke-linecap:round;stroke-linejoin:round;stroke-dashoffset:0.354331;"
       x="-15.83374"
       y="0"
       transform="matrix(0.28222223,0,0,0.28222223,71.020137,9.8950086)"><tspan
         x="723.35156"
         y="68.055664"><tspan
           style="shape-inside:url(#rect2356);display:inline">This file is published under the
</tspan></tspan><tspan
         x="723.35156"
         y="89.930664"><tspan
           style="font-style:normal;font-variant:normal;font-weight:bold;font-stretch:normal;font-family:sans-serif;-inkscape-font-specification:'sans-serif Bold';fill:#008000;stroke:none">Attribution-NonCommercial-ShareAlike 4.0 International (CC BY-NC-SA 4.0)</tspan><tspan
           style="shape-inside:url(#rect2356);display:inline"> license.
</tspan></tspan><tspan
         x="723.35156"
         y="111.80566"><tspan
           style="shape-inside:url(#rect2356);display:inline">https://creativecommons.org/licenses/by-nc-sa/4.0/
</tspan></tspan><tspan
         x="723.35156"
         y="133.68066"><tspan
           style="font-style:italic;font-variant:normal;font-weight:bold;font-stretch:normal;font-family:sans-serif;-inkscape-font-specification:'sans-serif Bold Italic'">
</tspan></tspan><tspan
         x="723.35156"
         y="155.55566"><tspan
           style="font-style:normal;font-weight:normal">This clipart was created by hand tracing a bitmap image of the PAW Patrol masks. The image </tspan></tspan><tspan
         x="723.35156"
         y="177.43066"><tspan
           style="font-style:normal;font-weight:normal">is available at:
</tspan></tspan><tspan
         x="723.35156"
         y="199.30566"><tspan
           style="font-style:normal;font-weight:normal">https://www.firlefantastisch.de/media/image/f2/bc/66/PawPatrolMasken1.jpg
</tspan></tspan><tspan
         x="723.35156"
         y="221.18066"><tspan
           style="font-style:normal;font-weight:normal">Please be aware that PAW Patrol and the characters are probably protected by trademarks!</tspan></tspan></text>
    <g
       id="g2531"
       transform="matrix(0.28222223,0,0,0.28222223,-5.3190934,28.467384)"
       style="fill:#008000">
      <g
         id="g2462"
         transform="matrix(1.1196698,0,0,1.1196698,992.51148,-97.603024)"
         style="fill:#008000;stroke-width:0.8373">
        <path
           d="M 31.957,0.311 C 23.275,0.311 15.635,3.524 9.731,9.514 3.653,15.678 0.354,23.666 0.354,32 c 0,8.422 3.212,16.236 9.29,22.313 6.078,6.078 13.978,9.377 22.313,9.377 8.334,0 16.409,-3.299 22.66,-9.463 C 60.521,48.41 63.646,40.683 63.646,32 63.646,23.405 60.521,15.592 54.53,9.601 48.453,3.523 40.639,0.311 31.957,0.311 Z m 0.086,5.73 c 7.12,0 13.458,2.691 18.406,7.641 4.862,4.861 7.466,11.286 7.466,18.318 0,7.119 -2.518,13.371 -7.379,18.146 -5.123,5.035 -11.721,7.727 -18.493,7.727 -6.858,0 -13.283,-2.691 -18.232,-7.641 C 8.862,45.283 6.084,38.772 6.084,32 6.084,25.142 8.862,18.631 13.811,13.594 18.673,8.646 24.924,6.041 32.043,6.041 Z"
           id="path2446"
           style="fill:#008000;stroke-width:0.8373" />
        <path
           id="c"
           d="m 31.635,26.734 c -1.79,-3.264 -4.844,-4.563 -8.389,-4.563 -5.16,0 -9.267,3.65 -9.267,9.828 0,6.283 3.861,9.829 9.442,9.829 3.581,0 6.635,-1.966 8.319,-4.949 l -3.931,-2.001 c -0.878,2.105 -2.212,2.738 -3.896,2.738 -2.914,0 -4.248,-2.422 -4.248,-5.617 0,-3.193 1.124,-5.616 4.248,-5.616 0.842,0 2.527,0.456 3.51,2.563 z"
           style="fill:#008000;stroke-width:0.8373" />
        <use
           xlink:href="#c"
           transform="translate(18.281)"
           id="use2449"
           x="0"
           y="0"
           width="100%"
           height="100%"
           style="fill:#008000;stroke-width:0.8373" />
      </g>
      <g
         id="surface1"
         transform="matrix(1.1072835,0,0,1.1072835,1077.4845,-97.20418)"
         style="fill:#008000;stroke-width:1.12889">
        <path
           d="M 31.1875,0 C 13.90625,0.4375 0,14.613281 0,32 0,49.664063 14.335938,64 32,64 49.664063,64 64,49.664063 64,32 64,14.335938 49.664063,0 32,0 31.722656,0 31.460938,-0.0078125 31.1875,0 Z M 31.15625,5.5 C 31.441406,5.492188 31.714844,5.5 32,5.5 46.628906,5.5 58.5,17.371094 58.5,32 58.5,46.628906 46.628906,58.5 32,58.5 17.371094,58.5 5.5,46.628906 5.5,32 5.5,17.65625 16.921875,5.953125 31.15625,5.5 Z"
           id="path2464"
           style="fill:#008000;stroke-width:1.12889" />
        <path
           d="m 36.625,15.9375 c 0,2.550781 -2.070312,4.625 -4.625,4.625 -2.554687,0 -4.625,-2.074219 -4.625,-4.625 0,-2.554687 2.070313,-4.625 4.625,-4.625 2.554688,0 4.625,2.070313 4.625,4.625 z"
           id="path2466"
           style="fill:#008000;stroke-width:1.12889" />
        <path
           d="m 27.214844,52.6875 h 9.570312 v -15.375 h 2.894532 c 0,0 -0.0039,-10.992187 0,-12.722656 -0.0039,-0.457031 0.03906,-1.363281 -0.621094,-2.027344 C 38.394531,21.902344 37.5,21.941406 37.03125,21.941406 c -0.472656,0.0039 -9.589844,0.0039 -10.0625,0 -0.46875,0 -1.363281,-0.03906 -2.027344,0.621094 -0.660156,0.664063 -0.617187,1.570313 -0.621093,2.027344 0.0039,1.730469 0,12.722656 0,12.722656 h 2.894531 z"
           id="path2468"
           style="fill:#008000;stroke-width:1.12889" />
      </g>
      <g
         id="surface1-4"
         transform="matrix(1.1072835,0,0,1.1072835,1162.0611,-97.20418)"
         style="fill:#008000;stroke-width:0.846667">
        <path
           d="M 31.1875,0 C 13.90625,0.4375 0,14.613281 0,32 0,49.664063 14.335938,64 32,64 49.664063,64 64,49.664063 64,32 64,14.335938 49.664063,0 32,0 31.722656,0 31.460938,-0.0078125 31.1875,0 Z M 31.15625,5.5 C 31.441406,5.492188 31.714844,5.5 32,5.5 46.628906,5.5 58.5,17.371094 58.5,32 58.5,46.628906 46.628906,58.5 32,58.5 17.371094,58.5 5.5,46.628906 5.5,32 5.5,17.65625 16.921875,5.953125 31.15625,5.5 Z"
           id="path2483"
           style="fill:#008000;stroke-width:0.846667" />
        <path
           d="m 25.644531,38.742188 c 2.0625,2.882812 8.351563,3.089843 10.511719,1.871093 0.792969,-0.449218 0.988281,-1.75 0.988281,-2.628906 0,-0.605469 -0.15625,-1.078125 -0.476562,-1.425781 -0.335938,-0.34375 -1.1875,-1.21875 -2.175781,-1.476563 C 29.472656,33.785156 26,32.167969 24.636719,30.996094 c -1.695313,-1.46875 -1.96875,-2.425781 -1.96875,-4.980469 0,-2.554687 0.734375,-4.695312 2.394531,-6.230469 1.660156,-1.535156 4.074219,-2.304687 7.234375,-2.304687 3.019531,0 7.269531,0.796875 9.339844,3.257812 l -3.453125,3.753907 c -1.949219,-1.632813 -3.394531,-1.78125 -5.78125,-1.78125 -1.5,0 -2.28125,0.214843 -2.917969,0.648437 -0.636719,0.414063 -0.953125,0.957031 -0.953125,1.628906 0,0.605469 0.289063,1.105469 0.875,1.5 0.582031,0.417969 2.105469,1.039063 5.144531,1.867188 3.40625,0.929687 5.722657,2.0625 6.941407,3.390625 1.199218,1.328125 1.800781,3.097656 1.800781,5.304687 0,2.660157 -0.9375,4.851563 -2.808594,6.578125 -1.855469,1.726563 -4.136719,3.066407 -7.421875,3.066407 -4.230469,0 -9.875,-1.496094 -11.433594,-4.253907"
           id="path2485"
           style="fill:#008000;stroke-width:0.846667" />
        <path
           d="M 59.34375,40.105469 56.9375,45.386719 5.816406,22.351563 8.222656,17.070313 Z"
           id="path2487"
           style="fill:#008000;stroke-width:0.846667" />
        <path
           d="m 30.375,12.875 v 6.84375 h 3.25 V 12.875 Z m 0,32.09375 V 51.125 h 3.25 v -6.15625 z"
           id="path2489"
           style="fill:#008000;stroke-width:0.846667" />
      </g>
      <g
         id="g2513"
         transform="matrix(1.1072835,0,0,1.1072835,1246.6378,-97.20439)"
         style="fill:#008000;stroke-width:0.846667">
        <path
           style="opacity:1;fill:#008000;fill-opacity:1;fill-rule:nonzero;stroke:none;stroke-width:219.716;stroke-linecap:butt;stroke-linejoin:round;stroke-miterlimit:4;stroke-dasharray:none;stroke-dashoffset:0;stroke-opacity:1"
           d="M 31.1875,0 C 13.904525,0.43835438 0,14.612004 0,32 0,49.663996 14.336004,64 32,64 49.663996,64 64,49.663996 64,32 64,14.336004 49.663996,0 32,0 31.724,0 31.461833,-0.00695801 31.1875,0 Z M 31.15625,5.5 C 31.439783,5.49101 31.714297,5.5 32,5.5 46.628003,5.4999998 58.5,17.371998 58.5,32 58.499998,46.628001 46.628002,58.5 32,58.5 17.371999,58.499999 5.5,46.628002 5.5,32 5.4999999,17.657701 16.922915,5.9512829 31.15625,5.5 Z"
           id="path1334" />
        <path
           style="opacity:1;fill:#008000;fill-opacity:1;fill-rule:nonzero;stroke:none;stroke-width:219.716;stroke-linecap:butt;stroke-linejoin:round;stroke-miterlimit:4;stroke-dasharray:none;stroke-dashoffset:0;stroke-opacity:1"
           d="m 18.115779,26.784547 h -2.740778 l 6.21875,6.96875 6.21875,-6.96875 h -2.243852 c 0.486099,-3.3998 3.476871,-5.586425 6.931352,-5.3125 0.136556,0.01083 0.267854,0 0.40625,0 5.62743,0 7.84682,4.255865 8.03125,10.53125 0.19247,6.549199 -3.60349,10.620376 -8.03125,10.53125 -4.673386,-0.09221 -6.444049,-2.32751 -7.125,-5.71875 h -8.34375 c 1.373177,7.811231 7.123855,12.392036 15.28125,12.40625 9.23458,0.01625 15.906248,-7.709347 15.906248,-17.21875 0,-10.154893 -6.669368,-17.21875 -15.906248,-17.21875 -0.274244,0 -0.541652,-0.01489 -0.8125,0 -0.0656,0.0036 -0.12197,-0.0011 -0.1875,0 -5.772209,0.09597 -13.602929,4.139742 -13.602972,12 z"
           id="path2371"
           sodipodi:nodetypes="cccccssssccsssssc" />
      </g>
    </g>
  </g>
  <g
     inkscape:groupmode="layer"
     id="layer3"
     inkscape:label="Cut"
     style="display:inline"
     transform="translate(-1.6470436,-1.3817676)">
    <path
       id="path1053"
       style="fill:none;fill-opacity:0.698039;stroke:#ff0000;stroke-width:0.2;stroke-linecap:round;stroke-linejoin:round;stroke-dashoffset:0.377953"
       d="m 139.06021,20.353128 c -2.29794,-0.28122 -3.6361,0.0886 -4.86777,0.53074 -0.68133,-1.46389 -1.82207,-3.04652 -3.48469,-4.76407 l -2.95459,-0.46776 c -14.57254,4.39462 -27.12396,11.07813 -37.799051,19.8865 -6.80454,1.64573 -11.88164,2.75995 -16.86295,4.56213 -1.10265,0.39893 -1.35559,0.54364 -2.79123,-0.85927 -16.48439,-16.1085 -22.73628,-15.65294 -26.80457,-15.46792 -5.9516,0.27067 -12.3964,3.97442 -14.98572,11.6052 -18.6337425,-1.20239 -26.3653225,12.2637 -26.7032895,21.88944 -0.486339,13.85155 2.058389,15.82 5.468129,21.13104 1.13613,1.76964 1.611631,2.4426 1.050765,4.65605 -3.547054,13.99846 11.1218455,31.851262 22.5263955,36.767852 18.66879,8.0483 36.30262,0.7385 45.8508,-5.97538 0.58596,-0.41203 1.44367,-1.05603 1.59463,0.0662 -0.0192,1.89092 -0.23304,3.5326 -0.92757,5.07048 -7.51492,16.64023 -11.60831,35.54337 -40.92698,39.4722 -1.4535,0.19478 -1.88496,0.33478 -2.47109,1.80576 -2.63875,6.62236 -2.05781,11.53941 1.21088,15.2547 0.66952,0.761 1.3006,0.98124 2.05079,0.97692 28.10078,-0.16164 42.96921,-42.49517 46.22097,-48.84715 -1.1717,7.06342 -2.5107,14.50696 -1.31181,20.19419 3.95496,18.7613 14.95503,23.83838 22.489341,27.98136 6.72469,3.6978 10.87199,4.62804 14.99796,6.21864 4.86586,1.87583 8.97346,4.12413 11.76586,6.49814 5.40383,4.59416 16.12171,7.55614 21.96719,7.74015 3.23325,0.10172 14.25149,-2.96828 20.35514,-7.94922 3.42603,-2.79586 2.19243,-2.90024 8.98263,-5.16523 8.15637,-2.72069 32.00668,-16.66244 36.06619,-28.58918 1.87279,-5.5022 2.83383,-9.70462 1.66213,-16.76804 6.74518,8.96342 27.31222,9.85065 23.08879,26.26965 -0.1869,0.7266 -0.15672,1.26679 0.38527,1.69513 2.05483,1.62392 11.2641,6.6928 15.40946,-0.61307 0.78143,-1.3772 1.47235,-2.64639 0.80844,-4.92658 -9.23372,-31.71266 -21.93143,-18.21916 -34.49438,-32.67225 -1.10697,-1.27353 -2.15159,-1.59253 -2.17075,-3.48345 0.15103,-1.12226 0.39392,-1.75822 0.16428,-3.49143 10.23791,1.24267 11.50806,4.28493 30.13837,-1.46166 10.30772,-3.17946 19.69908,-16.29841 17.42191,-31.174362 -0.27161,-1.77435 -0.73318,-1.06644 0.37658,-4.09816 1.9765,-5.39955 2.76606,-12.53443 1.38621,-18.76116 -1.67429,-7.55552 -8.76964,-16.86689 -21.20313,-17.67239 0.0588,-7.39459 -6.5131,-12.53851 -12.38033,-13.81868 -3.97889,-0.86817 -13.22921,-2.86165 -21.66263,8.1874 -1.1575,1.51651 -1.19249,1.90515 -2.66541,1.20704 -4.16973,-1.97629 -6.40498,-1.19102 -8.02072,-2.1309 0.0154,-3.02544 0.3958,-4.59881 0.37594,-8.12427 -9.14587,-7.02492 -20.35538,-12.40759 -33.16865,-16.51397 -2.50469,-1.84318 -5.28774,-5.6763 -13.57613,-5.46936 -3.37096,0.0842 -4.59065,1.90108 -2.87978,7.59169 -3.43083,-2.42148 -6.5797,-4.59294 -9.11692,-13.7627197 -1.31765,-4.7621 -4.54156,-3.59169 -6.60825,0.46385 -2.5785,5.0599197 -4.36897,10.2161097 -2.97666,15.3051497 z"
       sodipodi:nodetypes="cccccscscssssscssssccssssssssccssssccsssscssscccscssc" />
    <ellipse
       style="fill:none;fill-opacity:0.698039;stroke:#ff0000;stroke-width:0.200001;stroke-linecap:round;stroke-linejoin:round;stroke-dashoffset:0.377953"
       id="path1056"
       cx="118.66489"
       cy="120.83639"
       rx="12.4"
       ry="12.401019" />
    <ellipse
       style="fill:none;fill-opacity:0.698039;stroke:#ff0000;stroke-width:0.200001;stroke-linecap:round;stroke-linejoin:round;stroke-dashoffset:0.377953"
       id="ellipse3443"
       cx="183.60107"
       cy="120.83639"
       rx="12.4"
       ry="12.401019" />
  </g>
  <g
     inkscape:groupmode="layer"
     id="layer2"
     inkscape:label="Engrave"
     transform="translate(-1.6470436,-1.3817676)"
     style="display:inline">
    <path
       style="fill:none;fill-opacity:0.698039;stroke:#0000ff;stroke-width:0.2;stroke-linecap:round;stroke-linejoin:round;stroke-dashoffset:0.377953"
       d="m 216.38996,43.469388 c 11.58209,4.99337 20.66061,15.60577 23.28228,21.44836"
       id="path1060"
       sodipodi:nodetypes="cc" />
    <path
       style="fill:none;fill-opacity:0.698039;stroke:#0000ff;stroke-width:0.2;stroke-linecap:round;stroke-linejoin:round;stroke-dashoffset:0.377953"
       d="m 251.73879,47.414998 c -2.1488,-0.0379 -4.88013,0.85246 -6.21272,1.81502"
       id="path1062"
       sodipodi:nodetypes="cc" />
    <path
       style="fill:none;fill-opacity:0.698039;stroke:#0000ff;stroke-width:0.2;stroke-linecap:round;stroke-linejoin:round;stroke-dashoffset:0.377953"
       d="m 270.9046,85.603668 c -3.24937,7.39589 -6.60038,11.35828 -10.14176,13.80713"
       id="path1064"
       sodipodi:nodetypes="cc" />
    <path
       style="display:inline;fill:none;fill-opacity:0.698039;stroke:#0000ff;stroke-width:0.2;stroke-linecap:round;stroke-linejoin:round;stroke-dashoffset:0.377953"
       d="m 71.987949,40.350378 c -3.04786,0.79628 -6.898,2.8959 -9.86611,2.53837"
       id="path1068"
       sodipodi:nodetypes="cc" />
    <path
       style="display:inline;fill:none;fill-opacity:0.698039;stroke:#0000ff;stroke-width:0.2;stroke-linecap:round;stroke-linejoin:round;stroke-dashoffset:0.377953"
       d="m 28.501849,35.380408 c 4.46374,0.83079 7.78629,1.94385 10.91069,3.99705"
       id="path1066"
       sodipodi:nodetypes="cc" />
    <path
       style="display:inline;fill:none;fill-opacity:0.698039;stroke:#0000ff;stroke-width:0.2;stroke-linecap:round;stroke-linejoin:round;stroke-dashoffset:0.377953"
       d="m 8.6455465,80.260578 c 7.7109125,10.99657 25.1312025,12.42904 31.8301025,11.02509"
       id="path1070"
       sodipodi:nodetypes="cc" />
    <path
       style="fill:none;fill-opacity:0.698039;stroke:#0000ff;stroke-width:0.2;stroke-linecap:round;stroke-linejoin:round;stroke-dashoffset:0.377953"
       d="m 114.73224,152.59618 c 10.43311,16.38241 24.3439,19.39198 38.515,19.2536 20.44949,-0.19968 29.27097,-9.18685 37.18763,-19.78515"
       id="path1075"
       sodipodi:nodetypes="csc" />
    <path
       style="fill:none;fill-opacity:0.698039;stroke:#0000ff;stroke-width:0.2;stroke-linecap:round;stroke-linejoin:round;stroke-dashoffset:0.377953"
       d="m 110.61958,154.08263 c 2.29182,-0.38723 4.32022,-1.45579 5.79516,-2.96338"
       id="path1077"
       sodipodi:nodetypes="cc" />
    <path
       style="fill:none;fill-opacity:0.698039;stroke:#0000ff;stroke-width:0.2;stroke-linecap:round;stroke-linejoin:round;stroke-dashoffset:0.377953"
       d="m 187.44328,147.09018 c 1.23277,3.77285 3.62035,5.59341 6.92271,5.47493"
       id="path1079"
       sodipodi:nodetypes="cc" />
    <path
       style="fill:none;fill-opacity:0.698039;stroke:#0000ff;stroke-width:0.2;stroke-linecap:round;stroke-linejoin:round;stroke-dashoffset:0.377953"
       d="m 127.33959,165.77706 c 3.09713,6.86166 8.67606,13.25726 18.0881,17.64695 4.97167,2.31874 10.2604,1.54827 15.54787,-0.84344 5.34719,-2.41872 8.33636,-5.4064 9.70469,-8.02532"
       id="path1081"
       sodipodi:nodetypes="cssc" />
    <path
       style="fill:none;fill-opacity:0.698039;stroke:#0000ff;stroke-width:0.2;stroke-linecap:round;stroke-linejoin:round;stroke-dashoffset:0.377953"
       d="m 130.05288,167.51834 c 0.2176,1.81541 2.72274,5.22933 5.57867,8.03106 1.26989,0.9604 1.83593,1.15728 2.9132,0.0311 0.92978,-0.83224 1.71537,-1.51537 2.09478,-1.77854 10.20953,3.78479 20.29844,1.44099 24.71583,-0.52009 l 1.20904,2.01492 c 0.8508,1.2431 1.42498,1.10925 3.06843,-0.2013 3.53413,-2.77296 6.10472,-5.74793 7.61547,-9.27723"
       id="path1085"
       sodipodi:nodetypes="cccccccc" />
    <path
       style="fill:none;fill-opacity:0.698039;stroke:#0000ff;stroke-width:0.2;stroke-linecap:round;stroke-linejoin:round;stroke-dashoffset:0.377953"
       d="m 131.08234,142.56447 c 16.97704,-11.67836 31.38371,-8.62566 45.02643,-1.19471"
       id="path1087"
       sodipodi:nodetypes="cc" />
    <path
       style="fill:none;fill-opacity:0.698039;stroke:#0000ff;stroke-width:0.2;stroke-linecap:round;stroke-linejoin:round;stroke-dashoffset:0.377953"
       d="m 142.31174,141.17995 c -1.82188,1.63628 -2.06182,4.94174 -1.2263,7.2437 1.76098,4.8517 6.89616,8.37149 11.77523,10.05419 1.56388,0.53935 3.42185,0.40217 4.9583,-0.21098 4.8927,-1.95253 9.51055,-5.91289 11.10777,-10.86644 0.62347,-1.93364 0.53937,-4.57449 -0.87621,-6.03173 -6.19843,-6.38081 -18.95494,-6.28148 -25.73879,-0.18874 z"
       id="path1089"
       sodipodi:nodetypes="sssssss" />
    <path
       style="fill:none;fill-opacity:0.698039;stroke:#0000ff;stroke-width:0.2;stroke-linecap:round;stroke-linejoin:round;stroke-dashoffset:0.377953"
       d="m 83.558939,127.63986 c 4.57317,-11.38978 -1.02784,-31.937272 3.11769,-46.533072 2.86998,-10.10475 4.72484,-16.66533 16.824311,-27.7057 8.2757,-7.55129 17.86663,-10.46026 27.77207,-11.92889 1.44704,-3.43494 0.50188,-8.02973 -0.10338,-12.00591 -0.8394,-5.41282 1.90685,-3.63047 3.85194,-2.74871 1.42964,0.6481 2.66171,1.12859 5.00127,2.6373 0.82978,0.97386 0.77689,-0.0919 0.54499,-1.5164 -0.27951,-2.42151 -0.89,-4.9778 -1.50846,-7.32264"
       id="path1091"
       sodipodi:nodetypes="cssccsccc" />
    <path
       style="fill:none;fill-opacity:0.698039;stroke:#0000ff;stroke-width:0.2;stroke-linecap:round;stroke-linejoin:round;stroke-dashoffset:0.377953"
       d="m 131.21335,41.496308 c -0.49955,1.68681 -1.25971,3.1388 -2.14002,4.03206"
       id="path1093"
       sodipodi:nodetypes="cc" />
    <path
       style="fill:none;fill-opacity:0.698039;stroke:#0000ff;stroke-width:0.2;stroke-linecap:round;stroke-linejoin:round;stroke-dashoffset:0.377953"
       d="m 157.79023,18.390848 c 2.25501,6.28572 -3.3127,14.81654 -5.86062,17.70647"
       id="path1095"
       sodipodi:nodetypes="cc" />
    <path
       style="fill:none;fill-opacity:0.698039;stroke:#0000ff;stroke-width:0.2;stroke-linecap:round;stroke-linejoin:round;stroke-dashoffset:0.377953"
       d="m 141.01759,47.057548 c 3.05272,8.27547 13.19865,17.44874 22.9936,18.78777 5.5218,0.75487 11.78979,-2.35391 15.34028,-6.65009 4.89956,-5.92859 5.84041,-14.84556 4.87704,-22.47639 -0.95286,-7.54759 -8.16723,-18.81719 -10.00138,-20.3572"
       id="path1097"
       sodipodi:nodetypes="csssc" />
    <path
       style="fill:none;fill-opacity:0.698039;stroke:#0000ff;stroke-width:0.2;stroke-linecap:round;stroke-linejoin:round;stroke-dashoffset:0.377953"
       d="m 140.6912,29.295018 c 0.74114,4.22778 -0.4719,9.49945 -1.73987,12.94757"
       id="path1099"
       sodipodi:nodetypes="cc" />
    <path
       style="fill:none;fill-opacity:0.698039;stroke:#0000ff;stroke-width:0.2;stroke-linecap:round;stroke-linejoin:round;stroke-dashoffset:0.377953"
       d="m 89.789259,35.728758 c -1.38035,1.17333 -2.63743,2.52037 -3.51276,3.6662 -0.28521,2.33513 0.90704,4.74362 1.55222,7.12496 -1.29134,1.52205 -2.30893,2.18063 -3.37735,4.56719 -0.88767,1.98283 -0.87661,1.11586 0.7006,4.72765 l -1.54277,0.75439 c -11.0768,26.24157 -8.00014,41.30734 -5.42529,56.706522"
       id="path1101"
       sodipodi:nodetypes="cccsccc" />
    <path
       style="fill:none;fill-opacity:0.698039;stroke:#0000ff;stroke-width:0.2;stroke-linecap:round;stroke-linejoin:round;stroke-dashoffset:0.377953"
       d="m 134.2507,20.967838 c -16.50556,4.90274 -32.28271,12.01719 -45.976771,25.45674"
       id="path1103"
       sodipodi:nodetypes="cc" />
    <path
       style="fill:none;fill-opacity:0.698039;stroke:#0000ff;stroke-width:0.2;stroke-linecap:round;stroke-linejoin:round;stroke-dashoffset:0.377953"
       d="m 85.238769,55.741248 c 2.18771,-1.10055 3.89542,-2.10496 5.82204,-2.80473 0.89393,-0.32469 2.06694,-0.11523 2.81356,0.47396 0.83167,0.65634 1.08182,1.87435 1.08182,1.87435"
       id="path1105"
       sodipodi:nodetypes="cssc" />
    <path
       style="fill:none;fill-opacity:0.698039;stroke:#0000ff;stroke-width:0.2;stroke-linecap:round;stroke-linejoin:round;stroke-dashoffset:0.377953"
       d="m 81.719439,105.05207 c -0.68105,4.82258 -2.05329,8.84228 -3.71265,12.52847"
       id="path1107"
       sodipodi:nodetypes="cc" />
    <path
       style="fill:none;fill-opacity:0.698039;stroke:#0000ff;stroke-width:0.2;stroke-linecap:round;stroke-linejoin:round;stroke-dashoffset:0.377953"
       d="m 131.28511,32.452418 c -10.88584,2.3354 -22.2497,6.74273 -36.258961,22.61642 l -0.11162,1.27797 c -16.54684,17.63459 -14.92075,40.55192 -14.26852,51.907612"
       id="path1109"
       sodipodi:nodetypes="cccc" />
    <path
       style="fill:none;fill-opacity:0.698039;stroke:#0000ff;stroke-width:0.2;stroke-linecap:round;stroke-linejoin:round;stroke-dashoffset:0.377953"
       d="m 33.630619,170.12694 c 24.29183,1.64823 48.12696,-43.08014 51.47438,-58.6978"
       id="path1111"
       sodipodi:nodetypes="cc" />
    <path
       style="fill:none;fill-opacity:0.698039;stroke:#0000ff;stroke-width:0.2;stroke-linecap:round;stroke-linejoin:round;stroke-dashoffset:0.377953"
       d="m 220.51133,138.2948 c -5.47731,-12.69674 -4.4355,-24.14677 -4.0122,-29.91575 1.02576,-13.979802 -2.36747,-30.548332 -9.2112,-43.201442 -5.39645,-9.97726 -16.2592,-17.53225 -22.62059,-20.41955"
       id="path1113"
       sodipodi:nodetypes="cssc" />
    <path
       style="fill:none;fill-opacity:0.698039;stroke:#0000ff;stroke-width:0.2;stroke-linecap:round;stroke-linejoin:round;stroke-dashoffset:0.377953"
       d="m 223.62527,125.48551 -1.00874,-1.15031 c -1.01897,-1.16195 -3.50621,-5.49813 -3.58103,-8.90564"
       id="path1115"
       sodipodi:nodetypes="csc" />
    <path
       style="fill:none;fill-opacity:0.698039;stroke:#0000ff;stroke-width:0.2;stroke-linecap:round;stroke-linejoin:round;stroke-dashoffset:0.377953"
       d="m 216.39807,122.74396 c 2.21954,7.63905 10.41118,12.38794 15.71354,14.76058 6.35074,2.84175 12.4382,4.11167 17.6643,10.93614 5.33634,6.96839 5.20945,13.35453 5.95163,19.52268"
       id="path1117"
       sodipodi:nodetypes="cssc" />
    <path
       style="fill:none;fill-opacity:0.698039;stroke:#0000ff;stroke-width:0.2;stroke-linecap:round;stroke-linejoin:round;stroke-dashoffset:0.377953"
       d="m 184.67309,38.708748 c 8.76634,4.41986 12.44359,7.33826 15.50364,10.03103"
       id="path1119"
       sodipodi:nodetypes="cc" />
    <path
       style="fill:none;fill-opacity:0.698039;stroke:#0000ff;stroke-width:0.2;stroke-linecap:round;stroke-linejoin:round;stroke-dashoffset:0.377953"
       d="m 181.13814,27.139238 c 5.13927,2.13249 15.55845,5.40458 26.90481,15.37867 1.74757,1.53622 3.12428,2.85063 2.79869,4.39837 -0.53656,1.13399 -0.58437,1.30955 -0.55597,1.6679 1.73322,1.63555 3.48303,4.40368 4.29674,6.14438 4.96935,10.63048 8.07608,19.98992 8.91323,29.77993 1.00872,11.79622 0.53003,25.241302 0.17517,35.894502"
       id="path1121"
       sodipodi:nodetypes="csccssc" />
    <path
       style="fill:none;fill-opacity:0.698039;stroke:#0000ff;stroke-width:0.2;stroke-linecap:round;stroke-linejoin:round;stroke-dashoffset:0.377953"
       d="m 210.33688,48.017268 c -0.84022,1.80534 -3.16677,-0.65897 -6.5473,-1.49627 -0.84036,-0.20815 -1.5237,0.0426 -2.08968,0.69774 -0.46408,0.53721 -0.93742,1.01388 -1.10339,1.70414 -0.23905,0.99425 0.0716,1.173 1.25426,2.17585 10.96315,9.29679 13.82219,20.22836 16.41397,35.60849 2.1335,12.66059 1.28472,28.247862 2.59807,34.501502"
       id="path1123"
       sodipodi:nodetypes="csssssc" />
    <path
       style="fill:none;fill-opacity:0.698039;stroke:#0000ff;stroke-width:0.2;stroke-linecap:round;stroke-linejoin:round;stroke-dashoffset:0.377953"
       d="m 202.03752,47.415398 c 3.62519,1.98664 6.39364,5.41852 8.21314,8.35416"
       id="path1125"
       sodipodi:nodetypes="cc" />
    <path
       style="fill:none;fill-opacity:0.698039;stroke:#0000ff;stroke-width:0.2;stroke-linecap:round;stroke-linejoin:round;stroke-dashoffset:0.377953"
       d="m 97.390179,135.34328 c 1.1709,-1.18217 3.795901,-2.26856 9.043881,-1.49793 6.59995,0.96917 13.34047,2.925 20.04044,2.91627 3.29527,-0.004 6.59911,-2.65118 7.35342,-5.34054 1.01574,-3.62155 3.33888,-13.23616 -5.37073,-22.90029 -5.16863,-5.73506 -14.04833,-6.07631 -17.42374,-5.02967 -1.25473,0.38906 -3.44747,0.95181 -4.7084,2.0566 -0.69408,0.60815 -1.07893,0.73625 -2.1177,0.39728 -2.67335,-0.87236 -3.29697,-1.37775 -4.747231,-2.81692 -0.25738,-0.25539 -0.962,-0.66984 -0.84446,0.50135 0.14822,1.47719 0.67225,3.67987 2.823591,5.20824 0.62682,0.44532 0.74896,0.4016 -0.64645,0.66805 -1.493631,0.2852 -3.356071,-0.44819 -5.057021,-1.58911 -0.56676,-0.38015 -0.83366,-0.39054 -0.65651,0.38631 0.43966,1.92805 0.90471,2.87299 2.75945,3.97188 2.01213,1.19215 0.81115,1.43574 0.64436,1.74204 -0.22805,0.41878 -1.95598,1.10985 -4.08677,0.31445 -0.75333,-0.28121 -1.10889,-0.0799 -0.71887,0.78946 0.5849,1.30378 1.35778,2.39354 2.63745,2.64542 1.29895,0.25567 0.82825,0.89535 0.67028,1.60475 -1.59398,7.15804 1.6351,12.95294 2.41035,13.70786 -1.67176,1.24696 -1.45605,1.56812 -2.00534,2.2645 z"
       id="path1131"
       sodipodi:nodetypes="cssssssssssssssssssscc" />
    <path
       style="fill:none;fill-opacity:0.698039;stroke:#0000ff;stroke-width:0.2;stroke-linecap:round;stroke-linejoin:round;stroke-dashoffset:0.377953"
       d="m 101.78552,132.38632 c 4.86195,-0.98437 11.97972,2.14962 18.21001,2.58148 2.88667,0.20009 5.91307,0.83263 8.68079,-0.0116 3.31935,-1.01247 3.79417,-3.46203 4.32217,-5.81246 1.23,-5.47551 0.65142,-12.20671 -2.84881,-16.59314 -3.56671,-4.46976 -10.12673,-6.77504 -15.84159,-6.582 -5.90602,0.19948 -11.29729,4.52166 -13.48109,10.35137 -2.260231,4.86552 -2.679761,12.1238 0.95852,16.06632 z"
       id="path1133"
       sodipodi:nodetypes="cssssscc" />
    <path
       style="fill:none;fill-opacity:0.698039;stroke:#0000ff;stroke-width:0.2;stroke-linecap:round;stroke-linejoin:round;stroke-dashoffset:0.377953"
       d="m 133.15734,127.85426 c -1.11346,2.90479 -2.39793,5.75781 -7.52914,7.44683"
       id="path1135"
       sodipodi:nodetypes="cc" />
    <path
       style="fill:none;fill-opacity:0.698039;stroke:#0000ff;stroke-width:0.2;stroke-linecap:round;stroke-linejoin:round;stroke-dashoffset:0.377953"
       d="m 205.08088,134.40789 c -2.12776,-0.63951 -4.99936,-0.7014 -10.09917,0.75717 -4.64001,1.32707 -8.27651,3.18416 -14.97647,3.17543 -3.29527,-0.004 -8.73645,-1.31803 -10.31894,-5.13424 -1.44075,-3.4744 -4.08728,-13.26633 3.81156,-23.30845 4.77312,-6.06826 13.45205,-6.3436 16.94783,-5.82576 1.23992,0.18367 3.69083,0.54951 6.4999,2.1528 0.80144,0.45744 1.17442,1.49714 2.26707,1.50278 2.0421,0.0103 3.60262,-0.7089 4.02581,-2.1507 0.1021,-0.34792 0.38144,-0.91315 0.56985,0.24874 0.17385,1.07197 0.4585,2.87183 -1.26347,4.81635 -0.3284,0.37083 0.42862,1.21063 0.96275,1.31189 1.19922,0.22734 3.8126,-0.30551 4.40901,-1.90746 0.49127,-1.31955 0.68166,-1.29958 1.0619,-0.0424 0.79244,2.62003 -1.77197,4.90879 -3.6267,6.00768 -2.01214,1.19215 -0.0211,1.30259 0.3196,1.37685 0.82617,0.18006 2.90517,-0.15836 4.40596,-1.25013 0.65026,-0.47304 0.82975,-0.15688 0.71886,0.78946 -0.22484,1.91887 -2.64093,4.3233 -3.92059,4.57518 -1.29895,0.25567 -0.71749,0.97603 -0.81931,1.69564 -0.67824,4.79375 -3.77262,8.57087 -3.97271,9.92425 1.47715,0.005 2.66287,0.24872 2.99726,1.28495 z"
       id="path1139"
       sodipodi:nodetypes="cssssssssssssssssssscc" />
    <path
       style="fill:none;fill-opacity:0.698039;stroke:#0000ff;stroke-width:0.2;stroke-linecap:round;stroke-linejoin:round;stroke-dashoffset:0.377953"
       d="m 199.46493,133.18332 c -5.01294,-0.22344 -10.10756,3.11064 -16.33784,3.54249 -2.88667,0.2001 -5.20291,0.57994 -7.71444,-0.85719 -3.41304,-1.95299 -5.17037,-6.39921 -5.69837,-8.74964 -1.23,-5.47551 0.40151,-9.71064 3.90174,-14.09707 3.56671,-4.46975 8.17814,-6.6094 13.893,-6.41637 5.90601,0.19949 11.09682,3.41861 13.28062,9.24832 2.09283,4.83787 1.71571,13.28821 -1.32471,17.32946 z"
       id="path1141"
       sodipodi:nodetypes="cssssscc" />
    <path
       style="fill:none;fill-opacity:0.698039;stroke:#0000ff;stroke-width:0.2;stroke-linecap:round;stroke-linejoin:round;stroke-dashoffset:0.377953"
       d="m 106.69792,87.365918 c -0.48256,0.97043 -0.35767,2.02569 0.85241,1.47358 3.72729,-1.70061 7.72373,-4.22266 12.80254,-3.86264 1.6487,0.1169 1.63412,-0.39717 0.77167,-1.63081 -2.75346,-3.93855 -10.31033,-4.25808 -14.42662,4.01987 z"
       id="path1151"
       sodipodi:nodetypes="sssss" />
    <path
       style="fill:none;fill-opacity:0.698039;stroke:#0000ff;stroke-width:0.2;stroke-linecap:round;stroke-linejoin:round;stroke-dashoffset:0.377953"
       d="m 193.88663,88.543428 c 1.31311,2.94048 0.004,2.43702 -1.04464,1.6179 -3.6737,-2.87144 -7.55724,-5.04301 -12.80253,-3.86263 -1.61251,0.36287 -1.684,-0.4336 -0.77167,-1.63082 3.65495,-4.79626 10.82087,-4.62932 14.61884,3.87555 z"
       id="path1153"
       sodipodi:nodetypes="sssss" />
    <path
       style="fill:none;fill-opacity:0.698039;stroke:#0000ff;stroke-width:0.2;stroke-linecap:round;stroke-linejoin:round;stroke-dashoffset:0.377953"
       d="m 90.014629,128.49747 c 0.95301,8.67296 6.67904,10.00242 10.960521,10.94766 7.22934,1.59605 15.168,0.98201 23.02272,1.14945 8.35765,0.17817 13.62676,-4.05431 14.97758,-9.53205 3.30384,-13.39732 5.33807,-25.8988 -1.42969,-44.651622 -6.21507,-17.22137 -33.93589,-18.09539 -42.077301,0.68774 -7.19399,16.597322 -6.92998,27.964782 -5.45383,41.398822 z"
       id="path1155"
       sodipodi:nodetypes="sssssss" />
    <path
       style="fill:none;fill-opacity:0.698039;stroke:#0000ff;stroke-width:0.2;stroke-linecap:round;stroke-linejoin:round;stroke-dashoffset:0.377953"
       d="m 212.53916,124.57053 c -0.46259,8.71291 -4.94236,12.35614 -9.22384,14.30764 -6.73671,3.07061 -15.23941,1.714 -23.02272,1.14946 -8.33765,-0.60474 -13.62676,-4.05432 -14.97758,-9.53205 -3.30383,-13.39732 -1.67016,-26.11325 2.27707,-44.789482 4.59864,-21.7584 32.71026,-18.09839 39.29018,-0.0931 5.77518,15.803142 6.38105,25.317952 5.65689,38.957542 z"
       id="path1157"
       sodipodi:nodetypes="sssssss" />
    <path
       style="fill:none;fill-opacity:0.698039;stroke:#0000ff;stroke-width:0.2;stroke-linecap:round;stroke-linejoin:round;stroke-dashoffset:0.377953"
       d="m 137.08126,135.39938 c 6.38951,-6.99137 11.31655,-17.24507 14.41464,-28.11931 0.27575,-0.96788 0.84321,-1.52337 1.2795,-0.0449 2.74327,9.29642 7.39777,18.93147 13.62764,26.22181"
       id="path1159"
       sodipodi:nodetypes="cssc" />
    <path
       style="fill:none;fill-opacity:0.698039;stroke:#0000ff;stroke-width:0.2;stroke-linecap:round;stroke-linejoin:round;stroke-dashoffset:0.377953"
       d="m 180.18544,140.47061 c 13.74017,3.13557 17.16561,7.02988 17.20701,10.90543 0.16963,15.87482 -12.32855,22.56309 -19.21437,33.18496"
       id="path1161"
       sodipodi:nodetypes="csc" />
    <path
       style="fill:none;fill-opacity:0.698039;stroke:#0000ff;stroke-width:0.2;stroke-linecap:round;stroke-linejoin:round;stroke-dashoffset:0.377953"
       d="m 117.39372,140.76049 c -5.34373,-0.10738 -11.13993,5.72836 -11.03261,10.91692 0.41685,20.15227 12.25516,23.09143 20.04512,33.24492"
       id="path1163"
       sodipodi:nodetypes="csc" />
  </g>
</svg>
