<?xml version="1.0" encoding="UTF-8" standalone="no"?>
<svg
   xmlns:dc="http://purl.org/dc/elements/1.1/"
   xmlns:cc="http://creativecommons.org/ns#"
   xmlns:rdf="http://www.w3.org/1999/02/22-rdf-syntax-ns#"
   xmlns:svg="http://www.w3.org/2000/svg"
   xmlns="http://www.w3.org/2000/svg"
   xmlns:xlink="http://www.w3.org/1999/xlink"
   xmlns:sodipodi="http://sodipodi.sourceforge.net/DTD/sodipodi-0.dtd"
   xmlns:inkscape="http://www.inkscape.org/namespaces/inkscape"
   width="181.30751mm"
   height="144.29045mm"
   viewBox="0 0 642.42818 511.26538"
   id="svg2"
   version="1.1"
   inkscape:version="1.0.1 (1.0.1+r75)"
   sodipodi:docname="unicorn.svg">
  <defs
     id="defs4">
    <rect
       x="723.35221"
       y="52.573099"
       width="825.46854"
       height="222.91703"
       id="rect2356" />
    <rect
       x="744.96916"
       y="73.960978"
       width="33.14419"
       height="67.590118"
       id="rect2350" />
    <rect
       x="699.25179"
       y="75.376312"
       width="214.10092"
       height="266.19655"
       id="rect2344" />
  </defs>
  <sodipodi:namedview
     id="base"
     pagecolor="#ffffff"
     bordercolor="#666666"
     borderopacity="1.0"
     inkscape:pageopacity="0.0"
     inkscape:pageshadow="2"
     inkscape:zoom="0.74625796"
     inkscape:cx="627.45809"
     inkscape:cy="214.5746"
     inkscape:document-units="mm"
     inkscape:current-layer="layer3"
     showgrid="false"
     inkscape:window-width="1920"
     inkscape:window-height="1043"
     inkscape:window-x="0"
     inkscape:window-y="0"
     inkscape:window-maximized="1"
     fit-margin-top="0"
     fit-margin-left="0"
     fit-margin-right="0"
     fit-margin-bottom="0"
     inkscape:document-rotation="0" />
  <metadata
     id="metadata7">
    <rdf:RDF>
      <cc:Work
         rdf:about="">
        <dc:format>image/svg+xml</dc:format>
        <dc:type
           rdf:resource="http://purl.org/dc/dcmitype/StillImage" />
        <dc:title />
      </cc:Work>
    </rdf:RDF>
  </metadata>
  <g
     inkscape:groupmode="layer"
     id="layer3"
     inkscape:label="License">
    <text
       xml:space="preserve"
       id="text2354"
       style="font-style:normal;font-variant:normal;font-weight:normal;font-stretch:normal;font-size:17.5px;line-height:125%;font-family:sans-serif;-inkscape-font-specification:sans-serif;text-align:start;writing-mode:lr-tb;white-space:pre;shape-inside:url(#rect2356);display:inline;fill:#008000;stroke:none;stroke-width:1.77165;stroke-linecap:round;stroke-linejoin:round;stroke-dashoffset:0.354331;"
       x="-15.83374"
       y="0"
       transform="translate(-53.190939,34.911661)"><tspan
         x="723.35156"
         y="68.055664"><tspan
           style="fill:#008000;stroke:none">This file is published under the
</tspan></tspan><tspan
         x="723.35156"
         y="89.930664"><tspan
           style="font-style:normal;font-variant:normal;font-weight:bold;font-stretch:normal;font-family:sans-serif;-inkscape-font-specification:'sans-serif Bold';fill:#008000;stroke:none">Attribution-NonCommercial-ShareAlike 4.0 International (CC BY-NC-SA 4.0)</tspan><tspan
           style="fill:#008000;stroke:none"> license.
</tspan></tspan><tspan
         x="723.35156"
         y="111.80566"><tspan
           style="fill:#008000;stroke:none">https://creativecommons.org/licenses/by-nc-sa/4.0/
</tspan></tspan><tspan
         x="723.35156"
         y="133.68066"><tspan
           style="fill:#008000;stroke:none">
</tspan></tspan><tspan
         x="723.35156"
         y="155.55566"><tspan
           style="fill:#008000;stroke:none">The unicorn shape was downloaded from 
</tspan></tspan><tspan
         x="723.35156"
         y="177.43066"><tspan
           style="fill:#008000;stroke:none">https://openclipart.org/detail/246935/unicorn-silhouette-3 
</tspan></tspan><tspan
         x="723.35156"
         y="199.30566"><tspan
           style="fill:#008000;stroke:none">which was published under the 
</tspan></tspan><tspan
         x="723.35156"
         y="221.18066"><tspan
           style="fill:#008000;stroke:none">CC0 1.0 Universal (CC0 1.0) Public Domain Dedication license.
</tspan></tspan><tspan
         x="723.35156"
         y="243.05566"><tspan
           style="fill:#008000;stroke:none">https://creativecommons.org/publicdomain/zero/1.0/</tspan></tspan></text>
    <g
       id="g2531"
       transform="translate(-323.68431,100.71928)"
       style="fill:#008000">
      <g
         id="g2462"
         transform="matrix(1.1196698,0,0,1.1196698,992.51148,-97.603024)"
         style="fill:#008000;stroke-width:0.8373">
        <path
           d="M 31.957,0.311 C 23.275,0.311 15.635,3.524 9.731,9.514 3.653,15.678 0.354,23.666 0.354,32 c 0,8.422 3.212,16.236 9.29,22.313 6.078,6.078 13.978,9.377 22.313,9.377 8.334,0 16.409,-3.299 22.66,-9.463 C 60.521,48.41 63.646,40.683 63.646,32 63.646,23.405 60.521,15.592 54.53,9.601 48.453,3.523 40.639,0.311 31.957,0.311 Z m 0.086,5.73 c 7.12,0 13.458,2.691 18.406,7.641 4.862,4.861 7.466,11.286 7.466,18.318 0,7.119 -2.518,13.371 -7.379,18.146 -5.123,5.035 -11.721,7.727 -18.493,7.727 -6.858,0 -13.283,-2.691 -18.232,-7.641 C 8.862,45.283 6.084,38.772 6.084,32 6.084,25.142 8.862,18.631 13.811,13.594 18.673,8.646 24.924,6.041 32.043,6.041 Z"
           id="path2446"
           style="fill:#008000;stroke-width:0.8373" />
        <path
           id="c"
           d="m 31.635,26.734 c -1.79,-3.264 -4.844,-4.563 -8.389,-4.563 -5.16,0 -9.267,3.65 -9.267,9.828 0,6.283 3.861,9.829 9.442,9.829 3.581,0 6.635,-1.966 8.319,-4.949 l -3.931,-2.001 c -0.878,2.105 -2.212,2.738 -3.896,2.738 -2.914,0 -4.248,-2.422 -4.248,-5.617 0,-3.193 1.124,-5.616 4.248,-5.616 0.842,0 2.527,0.456 3.51,2.563 z"
           style="fill:#008000;stroke-width:0.8373" />
        <use
           xlink:href="#c"
           transform="translate(18.281)"
           id="use2449"
           x="0"
           y="0"
           width="100%"
           height="100%"
           style="fill:#008000;stroke-width:0.8373" />
      </g>
      <g
         id="surface1"
         transform="matrix(1.1072835,0,0,1.1072835,1077.4845,-97.20418)"
         style="fill:#008000;stroke-width:1.12889">
        <path
           d="M 31.1875,0 C 13.90625,0.4375 0,14.613281 0,32 0,49.664063 14.335938,64 32,64 49.664063,64 64,49.664063 64,32 64,14.335938 49.664063,0 32,0 31.722656,0 31.460938,-0.0078125 31.1875,0 Z M 31.15625,5.5 C 31.441406,5.492188 31.714844,5.5 32,5.5 46.628906,5.5 58.5,17.371094 58.5,32 58.5,46.628906 46.628906,58.5 32,58.5 17.371094,58.5 5.5,46.628906 5.5,32 5.5,17.65625 16.921875,5.953125 31.15625,5.5 Z"
           id="path2464"
           style="fill:#008000;stroke-width:1.12889" />
        <path
           d="m 36.625,15.9375 c 0,2.550781 -2.070312,4.625 -4.625,4.625 -2.554687,0 -4.625,-2.074219 -4.625,-4.625 0,-2.554687 2.070313,-4.625 4.625,-4.625 2.554688,0 4.625,2.070313 4.625,4.625 z"
           id="path2466"
           style="fill:#008000;stroke-width:1.12889" />
        <path
           d="m 27.214844,52.6875 h 9.570312 v -15.375 h 2.894532 c 0,0 -0.0039,-10.992187 0,-12.722656 -0.0039,-0.457031 0.03906,-1.363281 -0.621094,-2.027344 C 38.394531,21.902344 37.5,21.941406 37.03125,21.941406 c -0.472656,0.0039 -9.589844,0.0039 -10.0625,0 -0.46875,0 -1.363281,-0.03906 -2.027344,0.621094 -0.660156,0.664063 -0.617187,1.570313 -0.621093,2.027344 0.0039,1.730469 0,12.722656 0,12.722656 h 2.894531 z"
           id="path2468"
           style="fill:#008000;stroke-width:1.12889" />
      </g>
      <g
         id="surface1-4"
         transform="matrix(1.1072835,0,0,1.1072835,1162.0611,-97.20418)"
         style="fill:#008000;stroke-width:0.846667">
        <path
           d="M 31.1875,0 C 13.90625,0.4375 0,14.613281 0,32 0,49.664063 14.335938,64 32,64 49.664063,64 64,49.664063 64,32 64,14.335938 49.664063,0 32,0 31.722656,0 31.460938,-0.0078125 31.1875,0 Z M 31.15625,5.5 C 31.441406,5.492188 31.714844,5.5 32,5.5 46.628906,5.5 58.5,17.371094 58.5,32 58.5,46.628906 46.628906,58.5 32,58.5 17.371094,58.5 5.5,46.628906 5.5,32 5.5,17.65625 16.921875,5.953125 31.15625,5.5 Z"
           id="path2483"
           style="fill:#008000;stroke-width:0.846667" />
        <path
           d="m 25.644531,38.742188 c 2.0625,2.882812 8.351563,3.089843 10.511719,1.871093 0.792969,-0.449218 0.988281,-1.75 0.988281,-2.628906 0,-0.605469 -0.15625,-1.078125 -0.476562,-1.425781 -0.335938,-0.34375 -1.1875,-1.21875 -2.175781,-1.476563 C 29.472656,33.785156 26,32.167969 24.636719,30.996094 c -1.695313,-1.46875 -1.96875,-2.425781 -1.96875,-4.980469 0,-2.554687 0.734375,-4.695312 2.394531,-6.230469 1.660156,-1.535156 4.074219,-2.304687 7.234375,-2.304687 3.019531,0 7.269531,0.796875 9.339844,3.257812 l -3.453125,3.753907 c -1.949219,-1.632813 -3.394531,-1.78125 -5.78125,-1.78125 -1.5,0 -2.28125,0.214843 -2.917969,0.648437 -0.636719,0.414063 -0.953125,0.957031 -0.953125,1.628906 0,0.605469 0.289063,1.105469 0.875,1.5 0.582031,0.417969 2.105469,1.039063 5.144531,1.867188 3.40625,0.929687 5.722657,2.0625 6.941407,3.390625 1.199218,1.328125 1.800781,3.097656 1.800781,5.304687 0,2.660157 -0.9375,4.851563 -2.808594,6.578125 -1.855469,1.726563 -4.136719,3.066407 -7.421875,3.066407 -4.230469,0 -9.875,-1.496094 -11.433594,-4.253907"
           id="path2485"
           style="fill:#008000;stroke-width:0.846667" />
        <path
           d="M 59.34375,40.105469 56.9375,45.386719 5.816406,22.351563 8.222656,17.070313 Z"
           id="path2487"
           style="fill:#008000;stroke-width:0.846667" />
        <path
           d="m 30.375,12.875 v 6.84375 h 3.25 V 12.875 Z m 0,32.09375 V 51.125 h 3.25 v -6.15625 z"
           id="path2489"
           style="fill:#008000;stroke-width:0.846667" />
      </g>
      <g
         id="g2513"
         transform="matrix(1.1072835,0,0,1.1072835,1246.6378,-97.20439)"
         style="fill:#008000;stroke-width:0.846667">
        <path
           style="opacity:1;fill:#008000;fill-opacity:1;fill-rule:nonzero;stroke:none;stroke-width:219.716;stroke-linecap:butt;stroke-linejoin:round;stroke-miterlimit:4;stroke-dasharray:none;stroke-dashoffset:0;stroke-opacity:1"
           d="M 31.1875,0 C 13.904525,0.43835438 0,14.612004 0,32 0,49.663996 14.336004,64 32,64 49.663996,64 64,49.663996 64,32 64,14.336004 49.663996,0 32,0 31.724,0 31.461833,-0.00695801 31.1875,0 Z M 31.15625,5.5 C 31.439783,5.49101 31.714297,5.5 32,5.5 46.628003,5.4999998 58.5,17.371998 58.5,32 58.499998,46.628001 46.628002,58.5 32,58.5 17.371999,58.499999 5.5,46.628002 5.5,32 5.4999999,17.657701 16.922915,5.9512829 31.15625,5.5 Z"
           id="path1334" />
        <path
           style="opacity:1;fill:#008000;fill-opacity:1;fill-rule:nonzero;stroke:none;stroke-width:219.716;stroke-linecap:butt;stroke-linejoin:round;stroke-miterlimit:4;stroke-dasharray:none;stroke-dashoffset:0;stroke-opacity:1"
           d="m 18.115779,26.784547 h -2.740778 l 6.21875,6.96875 6.21875,-6.96875 h -2.243852 c 0.486099,-3.3998 3.476871,-5.586425 6.931352,-5.3125 0.136556,0.01083 0.267854,0 0.40625,0 5.62743,0 7.84682,4.255865 8.03125,10.53125 0.19247,6.549199 -3.60349,10.620376 -8.03125,10.53125 -4.673386,-0.09221 -6.444049,-2.32751 -7.125,-5.71875 h -8.34375 c 1.373177,7.811231 7.123855,12.392036 15.28125,12.40625 9.23458,0.01625 15.906248,-7.709347 15.906248,-17.21875 0,-10.154893 -6.669368,-17.21875 -15.906248,-17.21875 -0.274244,0 -0.541652,-0.01489 -0.8125,0 -0.0656,0.0036 -0.12197,-0.0011 -0.1875,0 -5.772209,0.09597 -13.602929,4.139742 -13.602972,12 z"
           id="path2371"
           sodipodi:nodetypes="cccccssssccsssssc" />
      </g>
    </g>
  </g>
  <g
     inkscape:label="Cut"
     inkscape:groupmode="layer"
     id="layer1"
     transform="translate(-10.075226,-6.6045631)"
     style="display:inline">
    <g
       style="fill:none;stroke:#ff0000;stroke-width:136.645;stroke-miterlimit:4;stroke-dasharray:none"
       id="g4300"
       transform="matrix(-0.0085232,0,0,0.0085232,389.11867,83.418578)">
      <g
         style="fill:none;stroke:#ff0000;stroke-width:136.645;stroke-miterlimit:4;stroke-dasharray:none"
         id="g4302" />
    </g>
    <path
       style="fill:none;stroke:#ff0000;stroke-width:1.2423;stroke-miterlimit:4;stroke-dasharray:none"
       d="m 41.425781,401.28124 v 150.4922 H 620.22266 V 401.28125 h -78.57227 c 4.76144,-6.05445 8.85964,-13.80424 12.27149,-23.21875 8.73463,-6.52187 8.73463,-18.02702 0,-34.41406 -10.91383,-16.38792 -19.64955,-36.57548 -26.22071,-60.61524 0,-5.44066 -4.35801,-11.99444 -13.125,-19.67968 -11.99539,-7.62034 -24.00723,-20.18894 -36.03515,-37.67383 -3.26093,-6.5224 -3.26093,-13.63419 0,-21.32031 3.26081,-5.44066 3.80218,-15.27301 1.63867,-29.48047 0,-5.44067 2.21201,-9.83139 6.55469,-13.125 14.20741,-18.56657 21.82666,-36.57535 22.9082,-54.09375 2.21226,-6.52174 3.83561,-7.62059 4.93359,-3.26172 4.39132,7.65274 9.30828,12.58569 14.74805,14.74804 4.39142,2.17965 7.11172,5.47292 8.19336,9.83204 3.2609,20.7786 8.19359,26.79228 14.74804,18.02539 10e-6,-1.08169 0.54064,-1.08169 1.63868,0 7.65284,12.02805 13.12555,13.66728 16.38672,4.93359 v -6.55469 c 6.55488,-6.52176 8.19447,-16.38776 4.90039,-29.51367 -1.08169,-5.44058 -1.88523,-11.1759 -2.42579,-17.189452 -0.54061,-6.014295 -1.37783,-12.289973 -2.45898,-18.845704 -2.17972,-3.26088 -2.71977,-6.013683 -1.63867,-8.193359 1.19235,-3.98985 1.582,-8.421557 1.17383,-13.291016 0.18714,-0.101002 0.39042,-0.125731 0.63476,-0.09766 5.75046,0.661387 11.01433,-0.861423 16.05078,-3.511719 2.27077,-1.194869 4.32407,-2.651354 6.10352,-4.49414 0.21234,-0.219867 0.44282,-0.265832 0.73242,-0.236328 4.98641,0.508594 9.69263,-0.665994 14.27149,-2.470704 2.54812,-1.004332 5.07533,-2.134433 7.1582,-3.9375 1.0557,-0.913939 2.10863,-1.07969 3.39648,-1.111328 7.25842,-0.178272 13.91289,-2.505795 20.20508,-5.957031 1.04128,-0.571174 2.03168,-0.8283 3.18555,-0.890625 2.61327,-0.141248 5.16158,-0.716843 7.71289,-1.292969 3.03573,-0.685557 5.98389,-1.639451 8.91406,-2.658203 1.44183,-0.501306 2.8562,-1.079275 4.27735,-1.638672 0.55398,-0.218068 1.1139,-0.404821 1.70703,-0.46289 2.45624,-0.240237 4.85674,-0.800901 7.26171,-1.310547 2.38154,-0.504719 4.73202,-1.156932 7.0879,-1.777344 2.83225,-0.745878 5.65699,-1.528667 8.48437,-2.292969 2.37093,-0.640835 4.78188,-1.133068 7.10938,-2.017578 -0.8432,-0.274054 -1.69638,-0.0748 -2.52539,0.0098 -5.48857,0.560013 -10.95451,1.271045 -16.39454,2.21875 -1.9238,0.335145 -3.93171,0.161548 -5.89648,0.292969 -3.16728,0.211781 -6.33398,0.410406 -9.49024,0.792968 -2.50046,0.302996 -4.98607,0.671202 -7.40234,1.359375 -1.25245,0.35675 -2.45431,0.323548 -3.71289,0.208985 -4.23329,-0.385487 -8.45825,-0.252463 -12.68555,0.216797 -3.15157,0.349847 -6.22652,0.956998 -9.19922,2.0625 -0.34683,0.128979 -0.67506,0.06175 -1.01171,-0.03711 -3.86041,-1.133885 -7.82071,-1.267747 -11.79688,-1.099609 -3.33508,0.141016 -6.61773,0.647014 -9.75781,1.847656 -0.64279,0.245727 -1.27132,0.542206 -1.87695,0.869141 -0.36964,0.199572 -0.68186,0.204542 -1.04102,0.01367 -2.90329,-1.542997 -6.07141,-1.95165 -9.28516,-2.154297 -2.59276,-0.163494 -5.18736,-0.05233 -7.72265,0.476562 -2.462,0.513649 -4.86148,1.291349 -6.91211,2.851563 -0.21962,0.167055 -0.38402,0.25792 -0.63672,0.03516 -2.30187,-2.029396 -5.13895,-2.743237 -8.06055,-3.207031 -2.71665,-0.431295 -5.45065,-0.468009 -8.15429,-0.0039 2.17991,-2.101495 5.43853,-2.616949 9.73437,-1.550781 -2.21218,-5.489357 -6.04617,-8.242187 -11.51953,-8.242187 h -0.006 c 4.39204,-4.358914 5.47265,-8.192119 3.29297,-11.4863284 l 1.4e-4,-3.9e-5 c -9.83226,0 -18.0253,2.2120139 -24.58008,6.5546874 -33.85572,-1.081127 -60.33621,3.293047 -79.47656,13.125 -19.10692,9.832185 -34.69208,22.909885 -46.73633,39.296875 -7.61982,9.86477 -13.63397,18.057832 -18.02539,24.580078 -9.51905,14.985164 -28.36916,17.926644 -45.83789,16.812504 -28.51564,-0.24694 -60.575,-3.26957 -94.9668,-8.121098 -0.73484,-0.09742 -1.4915,-0.203924 -2.26562,-0.318359 -0.17572,-0.02517 -0.34946,-0.04905 -0.52539,-0.07422 l 0.0547,0.0039 c -0.21318,-0.03213 -0.41477,-0.05834 -0.63086,-0.0918 -57.89538,-6.522376 -95.60342,-2.71968 -113.07031,11.488287 -50.242789,-3.26153 -78.639297,14.20713 -85.226561,52.42187 -9.799649,51.37318 -22.909961,78.67351 -39.296875,81.93555 2.179189,9.86474 9.273425,14.74804 21.285157,14.74804 12.027999,0 22.943207,-4.36001 32.77539,-13.12695 18.599047,-11.99549 27.875,-37.13161 27.875,-75.37891 0,-29.47946 9.273309,-44.22851 27.839839,-44.22851 -16.38701,28.41502 -15.30514,61.74498 3.26172,99.95703 6.5875,19.68068 4.42547,33.34852 -6.52148,40.96875 -7.65279,6.55488 -11.48828,12.58473 -11.48828,18.02539 v 9.83203 c 1.08166,39.36141 -4.89959,59.02539 -18.025392,59.02539 -1.081769,3.26086 -0.261357,5.73517 2.458984,7.35742 2.753415,1.67116 3.014996,3.55663 0.802734,5.73633 -3.26088,0 -7.620172,-1.6395 -13.09375,-4.90039 -2.179546,10.94639 -2.719876,20.77865 -1.638672,29.48047 1.089812,6.014 4.497094,8.50586 4.497094,8.50586 z m 61.814469,-13.40625 c 8.73403,2.1797 14.2072,-12.58356 16.38672,-44.25977 1.08177,-7.61981 2.45842,-15.55212 4.09766,-23.74609 1.67101,-8.1934 5.76712,-16.64912 12.28906,-25.41602 4.39199,-3.26141 6.55469,-6.52217 6.55469,-9.83203 14.20765,-4.35887 26.21917,-13.09287 36.03516,-26.21875 4.39134,3.26093 4.39134,7.65271 0,13.09375 -7.61986,12.02797 -7.0791,26.79201 1.63867,44.25977 12.02792,18.56654 18.02734,38.24806 18.02734,58.99414 0,5.47374 3.29388,8.19336 9.86524,8.19336 8.73471,0 13.09179,3.29324 13.09179,9.83203 0,3.18291 0.16045,6.0118 0.46875,8.50586 H 87.026327 c 4.369055,-0.81534 8.561211,-5.75322 16.213923,-13.40625 z M 235.99219,233.83984 c 36.06777,16.38704 68.30146,23.49718 96.6875,21.28516 17.46871,0 38.24681,-3.2607 62.2539,-9.83203 3.29393,-1.08174 4.93164,-0.54043 4.93164,1.63867 v 21.32031 c 0,6.55489 -1.6376,11.48691 -4.93164,14.74805 -5.43999,14.20754 -8.19336,26.21916 -8.19336,36.03516 -3.26081,24.07228 -10.34072,42.63972 -21.28711,55.71679 -2.1797,4.39199 -1.63901,8.76622 1.63868,13.125 8.76722,3.2615 10.94624,7.65325 6.55468,13.09375 -0.0607,0.10689 -0.10163,0.20466 -0.16015,0.31055 h -42.66211 -71.71484 c -4.00682,-3.30137 -10.02384,-7.73902 -18.20118,-13.38867 0,-3.2615 -2.17953,-7.1129 -6.55468,-11.48828 -13.12599,-8.70141 -21.85974,-27.84152 -26.21875,-57.35352 -3.26086,-14.17499 -2.7209,-24.00638 1.63867,-29.48047 3.26093,-7.65227 4.89844,-17.46935 4.89844,-29.51367 9.86476,-9.83226 15.30702,-18.02524 16.38867,-24.58008 2.21218,-1.08169 3.83367,-1.63672 4.93164,-1.63672 z m 215.49219,22.15039 c 1.6407,0 3.00774,0.81487 4.09765,2.44532 12.02802,5.47319 19.68212,11.48882 22.94336,18.02734 6.55473,7.65225 12.58564,14.20778 18.02539,19.64844 13.12578,7.6854 21.31904,16.41974 24.58008,26.25195 7.65295,12.02797 9.27662,22.40069 4.90039,31.10156 0,1.11423 0.57197,1.67188 1.66992,1.67188 8.734,8.73461 10.37436,13.0918 4.90039,13.0918 -8.70159,2.21221 -11.45416,9.3086 -8.19336,21.32031 1.66386,3.30341 4.55287,7.2195 8.66407,11.73242 H 406.34375 c -1.63037,-2.44753 -3.78254,-5.8069 -6.47852,-10.125 0,-2.17967 -1.08013,-4.35875 -3.25976,-6.55469 -5.44065,-6.52174 -6.55596,-13.0936 -3.29492,-19.64844 2.21216,-2.17966 3.59025,-4.63725 4.13086,-7.39062 0.54116,-2.72034 1.34284,-5.17832 2.42382,-7.35742 0,-3.26142 0.83663,-6.2765 2.45899,-9.0293 1.6711,-2.72032 2.45898,-5.73716 2.45898,-8.99805 9.83231,-9.83218 15.30509,-20.74541 16.38672,-32.77343 2.17983,-6.52238 5.73607,-13.37294 10.65235,-20.48438 4.9157,-7.11225 9.56774,-13.92959 13.92773,-20.48437 2.17939,-1.63045 4.09367,-2.44532 5.73438,-2.44532 z"
       transform="matrix(0.9375,0,0,0.9375,0,1.6535434e-6)"
       id="path4308"
       inkscape:connector-curvature="0"
       sodipodi:nodetypes="ccccccccccccccccccccccccccccccccccccccccccccsccccscccccccccccccsccccccccccccccccscscccsccccccccccccccccssscccscsscccccccccccccccsscccccccccccccccccccss" />
    <g
       transform="matrix(-0.0085232,0,0,0.0085232,1046.8836,92.903408)"
       id="g939"
       style="fill:none;stroke:#000000;stroke-width:136.645;stroke-miterlimit:4;stroke-dasharray:none">
      <g
         id="g937"
         style="fill:none;stroke:#000000;stroke-width:136.645;stroke-miterlimit:4;stroke-dasharray:none" />
    </g>
  </g>
  <g
     inkscape:groupmode="layer"
     id="layer4"
     inkscape:label="Engrave">
    <path
       style="fill:none;stroke:#0000ff;stroke-width:1.1646564;stroke-miterlimit:4;stroke-dasharray:none"
       d="m 207.83935,376.20117 c 0.80322,6.49763 2.71168,10.51036 5.70556,12.01354 7.17464,4.11749 17.40553,4.11749 30.7251,0 4.11749,-2.04344 5.40824,-4.34795 3.84156,-6.9287 -0.6521,-1.08253 -2.42771,-2.80206 -5.19836,-5.08484 m 107.2302,0 c -5.84185,10.57023 -0.19528,15.8551 17.049,15.8551 17.40619,0 23.04375,-3.83997 16.89881,-11.521 -0.51478,-0.51459 -1.57116,-1.9702 -3.14578,-4.3341 m 118.80984,0 c 1.27013,1.39422 2.66288,2.84967 4.1821,4.36523 1.33509,-1.32841 2.6189,-2.78968 3.858,-4.36523"
       id="path955"
       inkscape:connector-curvature="0"
       sodipodi:nodetypes="ccccccsccccc"
       transform="translate(-10.075226,-6.6045631)" />
  </g>
  <g
     inkscape:groupmode="layer"
     id="layer5"
     inkscape:label="Raster">
    <text
       xml:space="preserve"
       id="text2348"
       style="fill:none;-inkscape-font-specification:sans-serif;font-size:17.500039px;writing-mode:lr;stroke-width:1.77165357;font-family:sans-serif;stroke-linejoin:round;stroke-linecap:round;line-height:70%;stroke-dashoffset:0.35433071;text-align:center;stroke:#0000ff;font-weight:normal;font-style:normal;font-stretch:normal;font-variant:normal;white-space:pre;shape-inside:url(#rect2350);" />
  </g>
</svg>
